<?xml version="1.0" standalone="no"?>
<!DOCTYPE svg PUBLIC "-//W3C//DTD SVG 20010904//EN"
 "http://www.w3.org/TR/2001/REC-SVG-20010904/DTD/svg10.dtd">
<svg version="1.0" xmlns="http://www.w3.org/2000/svg"
 width="320.000000pt" height="320.000000pt" viewBox="0 0 320.000000 320.000000"
 preserveAspectRatio="xMidYMid meet">
<metadata>
Created by potrace 1.14, written by Peter Selinger 2001-2017
</metadata>
<g transform="translate(0.000000,320.000000) scale(0.100000,-0.100000)"
fill="#000000" stroke="none">
<path d="M1892 3185 c4 -4 1 -23 -7 -42 -13 -31 -13 -38 0 -56 8 -12 15 -18
15 -13 0 5 9 -1 20 -14 11 -13 20 -19 20 -15 0 5 18 -10 40 -33 21 -23 44 -42
50 -42 5 0 10 -4 10 -10 0 -5 11 -20 25 -34 14 -14 25 -30 25 -36 0 -6 5 -8
10 -5 6 3 10 -1 10 -9 0 -8 8 -20 18 -25 9 -6 13 -11 9 -11 -4 0 1 -10 13 -22
11 -12 20 -28 20 -35 0 -7 5 -13 11 -13 5 0 8 -4 5 -9 -3 -5 1 -11 9 -15 8 -3
15 -15 15 -26 0 -11 5 -20 10 -20 6 0 10 -5 10 -11 0 -6 9 -22 20 -36 22 -28
27 -48 9 -38 -6 4 -5 -2 3 -14 7 -12 16 -21 20 -21 5 0 8 -9 8 -20 0 -11 4
-20 10 -20 5 0 7 -7 4 -15 -4 -8 -1 -15 7 -15 7 0 10 -3 6 -6 -3 -4 0 -19 9
-35 8 -16 11 -29 7 -29 -10 0 19 -20 30 -20 5 0 5 6 0 13 -4 6 6 4 21 -7 16
-10 25 -13 22 -7 -5 7 2 11 18 11 21 0 25 4 24 24 -1 14 -6 22 -10 20 -4 -3
-9 0 -9 5 -2 19 -4 25 -24 76 -10 28 -23 53 -28 56 -5 3 -8 8 -6 10 4 8 -13
49 -21 49 -5 0 -7 9 -5 20 2 11 0 20 -6 20 -5 0 -9 7 -9 15 0 8 -4 15 -10 15
-5 0 -10 5 -10 11 0 6 -9 22 -20 36 -11 14 -20 35 -20 47 0 17 -2 18 -10 6 -9
-13 -10 -13 -10 1 0 8 -9 25 -20 37 -12 12 -18 22 -15 22 5 0 -27 40 -61 76
-12 13 -19 25 -16 28 3 3 0 6 -6 6 -6 0 -30 20 -53 45 -23 25 -45 42 -50 39
-5 -3 -9 2 -9 10 0 8 -9 17 -20 21 -11 3 -28 16 -37 28 -10 12 -23 23 -28 24
-6 1 -19 5 -30 9 -11 4 -17 4 -13 -1z"/>
<path d="M1236 3019 c2 -4 -6 -11 -18 -14 -26 -8 -100 -84 -92 -96 2 -4 -1
-11 -7 -14 -5 -4 -8 -13 -5 -21 3 -8 0 -14 -7 -14 -8 0 -6 -4 3 -10 11 -7 11
-10 2 -10 -9 0 -10 -5 -4 -17 5 -10 7 -24 4 -32 -3 -9 0 -11 8 -6 8 5 11 4 7
-2 -8 -12 23 -103 35 -103 4 0 8 -7 8 -15 0 -8 5 -15 12 -15 6 0 9 -3 5 -6 -3
-3 2 -14 11 -24 47 -51 76 -85 72 -85 -3 0 2 -10 11 -22 9 -13 19 -20 22 -16
4 3 7 1 7 -6 0 -7 8 -23 18 -36 9 -12 24 -33 32 -45 8 -13 23 -30 33 -39 9 -8
17 -20 17 -25 0 -5 10 -17 22 -27 11 -11 17 -19 12 -19 -5 0 -4 -4 2 -8 6 -4
24 -25 40 -47 32 -45 49 -66 80 -100 12 -13 20 -25 18 -28 -2 -2 14 -23 36
-47 21 -24 37 -47 35 -51 -3 -4 2 -10 11 -13 8 -3 12 -11 8 -17 -4 -7 -3 -9 3
-6 5 3 16 -3 24 -15 8 -11 19 -26 24 -32 28 -31 47 -70 36 -74 -6 -2 -8 -9 -4
-15 3 -7 -3 -4 -14 6 -11 9 -23 14 -26 10 -6 -6 -8 3 -6 24 0 4 -9 11 -21 15
-12 4 -18 12 -15 18 4 6 1 9 -7 8 -7 -2 -12 3 -11 10 2 6 -4 12 -12 12 -8 0
-15 7 -15 16 0 8 -5 12 -10 9 -5 -3 -10 -2 -10 3 0 9 -42 60 -97 117 -12 13
-19 26 -16 29 4 3 -1 6 -10 6 -10 0 -17 7 -17 16 0 8 -5 12 -10 9 -5 -3 -10
-1 -10 4 0 12 -36 57 -90 110 -19 20 -34 37 -32 38 5 6 2 26 -4 20 -6 -6 -34
16 -34 28 0 3 -10 16 -22 29 -13 13 -36 39 -53 60 -62 76 -101 121 -126 148
-15 15 -24 29 -22 32 3 2 -4 11 -16 18 -12 7 -21 17 -21 22 0 5 -12 21 -27 36
-16 15 -43 45 -62 66 -19 22 -31 32 -26 24 4 -8 -3 -3 -16 11 -13 14 -30 24
-36 22 -7 -3 -13 2 -13 11 0 9 -7 13 -20 11 -11 -2 -20 0 -20 5 0 4 -8 7 -17
6 -10 -2 -21 1 -24 6 -4 7 -13 7 -25 0 -11 -5 -29 -8 -41 -7 -12 1 -25 -5 -28
-12 -2 -8 -9 -11 -15 -8 -5 3 -10 1 -10 -4 0 -6 -7 -11 -16 -11 -8 0 -13 -4
-10 -8 3 -5 -6 -15 -19 -22 -13 -7 -22 -17 -19 -22 3 -5 1 -15 -5 -22 -14 -16
-16 -55 -6 -80 7 -15 5 -17 -6 -11 -12 8 -12 6 0 -8 7 -9 10 -17 6 -17 -5 0 0
-9 10 -20 14 -15 15 -20 4 -20 -10 -1 -10 -4 3 -14 10 -7 15 -16 11 -19 -3 -4
-1 -7 6 -7 7 0 11 -6 8 -12 -2 -7 7 -23 21 -36 13 -13 22 -26 18 -29 -3 -3 9
-17 26 -30 18 -12 28 -23 23 -23 -5 0 8 -16 28 -35 20 -19 37 -40 37 -46 0 -5
5 -7 10 -4 6 3 10 1 10 -5 0 -6 10 -21 23 -34 46 -47 82 -91 80 -98 -2 -4 6
-10 17 -13 11 -4 20 -13 20 -21 0 -8 5 -12 10 -9 6 3 10 0 10 -7 0 -7 14 -26
30 -41 17 -16 30 -33 30 -38 0 -6 5 -7 10 -4 6 3 10 -1 10 -9 0 -8 12 -24 26
-35 15 -12 23 -21 19 -21 -5 0 2 -8 13 -19 12 -10 21 -20 19 -22 -1 -2 0 -3 2
-2 8 5 31 -20 25 -28 -3 -5 10 -18 28 -29 18 -11 33 -23 33 -27 -1 -10 19 -34
72 -89 22 -24 39 -44 37 -44 -2 0 4 -9 13 -19 9 -11 20 -18 25 -15 4 3 8 -1 8
-8 1 -17 46 -68 60 -68 6 0 9 -4 5 -9 -3 -5 4 -16 15 -24 11 -7 17 -17 13 -20
-3 -4 1 -7 11 -7 9 0 14 -5 11 -10 -3 -6 1 -13 9 -16 9 -3 16 -12 16 -20 0 -8
5 -14 12 -14 8 0 7 -5 -3 -15 -21 -21 -60 -6 -78 29 -8 14 -18 23 -23 20 -4
-3 -8 2 -8 11 0 9 -4 13 -10 10 -5 -3 -10 1 -10 10 0 9 -4 13 -10 10 -5 -3
-10 -1 -10 5 0 7 -25 36 -55 65 -30 30 -55 59 -55 65 0 5 -7 10 -15 10 -8 0
-15 4 -15 9 0 13 -47 60 -54 54 -3 -4 -6 1 -6 10 0 8 -11 24 -25 35 -13 11
-21 22 -18 26 3 3 1 6 -5 6 -13 0 -80 70 -97 101 -5 10 -12 17 -15 16 -3 -1
-16 8 -30 21 -13 12 -20 22 -15 22 4 0 -2 9 -15 20 -13 11 -27 20 -32 20 -4 0
-8 5 -8 10 0 6 -31 40 -68 78 -88 86 -119 112 -126 105 -3 -4 -6 -1 -6 6 0 7
-4 9 -10 6 -5 -3 -10 -1 -10 4 0 6 -12 11 -26 11 -14 0 -23 4 -20 9 3 5 -21 8
-54 7 -44 -1 -67 -7 -89 -24 -17 -12 -34 -22 -40 -22 -8 0 -24 -30 -21 -39 1
-2 -4 -7 -11 -11 -7 -5 -13 -20 -15 -34 -2 -16 1 -24 7 -20 6 3 5 -3 -3 -15
-10 -16 -10 -27 -1 -51 8 -23 8 -30 0 -30 -8 0 -8 -3 -2 -8 6 -4 17 -20 25
-37 8 -16 22 -38 32 -48 10 -10 16 -22 13 -28 -4 -5 0 -9 7 -9 7 0 22 -11 32
-25 10 -13 23 -22 29 -18 5 3 7 1 3 -5 -3 -6 3 -17 14 -25 11 -7 17 -17 13
-20 -3 -4 -1 -7 6 -7 6 0 23 -11 37 -25 14 -14 23 -25 21 -25 -2 0 42 -48 99
-106 57 -58 104 -110 104 -115 0 -5 7 -9 16 -9 8 0 13 -3 11 -7 -2 -5 4 -16
15 -25 10 -10 18 -15 19 -10 0 4 4 -3 10 -16 5 -13 13 -20 19 -17 6 4 9 1 8
-7 -2 -7 3 -12 10 -11 6 2 12 -2 12 -7 0 -6 16 -26 35 -46 19 -19 35 -39 35
-45 0 -6 4 -8 8 -5 5 3 16 -4 25 -15 9 -10 14 -19 11 -19 -4 0 9 -13 29 -29
20 -15 34 -31 30 -35 -3 -3 1 -6 11 -6 9 0 14 -4 11 -10 -3 -5 0 -10 8 -10 7
0 19 -11 27 -24 7 -13 21 -27 32 -29 11 -3 17 -10 13 -16 -3 -6 -3 -11 2 -11
14 -1 83 -67 76 -74 -3 -3 -1 -6 5 -6 7 0 12 -5 12 -11 0 -5 -4 -7 -10 -4 -5
3 -10 0 -10 -7 0 -9 -3 -9 -10 2 -5 8 -10 11 -10 6 0 -5 -8 1 -19 12 -10 12
-21 22 -25 22 -7 0 -49 38 -142 128 -29 29 -54 50 -54 47 0 -4 -7 0 -15 9 -8
8 -15 19 -15 25 0 6 -7 11 -15 11 -8 0 -15 5 -15 10 0 6 -7 10 -17 10 -9 0
-14 3 -10 6 8 8 -18 34 -33 34 -6 0 -8 5 -5 10 3 6 1 10 -5 10 -6 0 -29 18
-50 40 -20 21 -40 36 -44 33 -3 -4 -6 1 -6 11 0 9 -4 14 -10 11 -5 -3 -10 -2
-10 3 0 5 -18 17 -40 28 -22 10 -40 22 -40 26 0 4 -9 5 -20 3 -11 -2 -20 -1
-20 3 0 4 -22 7 -49 7 -27 0 -47 -3 -44 -7 2 -5 -4 -8 -15 -8 -10 0 -28 -9
-39 -19 -12 -11 -23 -17 -26 -15 -3 3 -8 -4 -12 -15 -3 -12 -11 -21 -16 -21
-6 0 -8 -4 -5 -8 2 -4 1 -14 -4 -22 -5 -9 -4 -20 3 -29 9 -12 9 -13 -1 -7 -8
5 -11 1 -8 -11 13 -64 20 -83 29 -83 6 0 8 -3 4 -6 -3 -4 -1 -12 6 -20 29 -33
37 -44 31 -44 -3 0 25 -30 62 -67 37 -38 71 -67 76 -65 4 1 8 -4 8 -12 0 -8 9
-18 20 -21 11 -4 19 -9 16 -13 -2 -4 6 -16 17 -27 11 -11 16 -13 12 -5 -4 8 2
5 14 -7 11 -12 21 -27 21 -33 0 -6 4 -9 9 -6 5 4 20 -7 34 -23 14 -17 28 -27
31 -24 3 4 6 -2 6 -12 0 -10 3 -16 6 -12 3 3 26 -14 50 -38 24 -25 44 -42 44
-39 0 4 18 -12 40 -35 22 -22 44 -41 50 -41 5 0 10 -7 10 -15 0 -8 6 -15 13
-15 7 0 18 -9 25 -20 7 -11 19 -20 28 -20 8 0 12 -4 9 -10 -3 -5 -3 -10 2 -10
4 0 26 -17 48 -36 85 -76 95 -84 106 -84 5 0 8 -4 5 -8 -3 -5 5 -15 16 -23 12
-8 34 -26 49 -42 16 -15 31 -27 33 -27 3 0 24 -18 46 -40 22 -22 43 -40 46
-40 3 0 19 -13 34 -30 15 -16 33 -30 39 -30 5 0 15 -8 20 -17 6 -10 11 -14 11
-8 0 5 7 -1 16 -13 8 -12 20 -20 25 -17 5 4 9 -2 9 -11 0 -10 3 -15 6 -11 6 6
14 0 57 -38 13 -11 29 -21 36 -23 7 -1 20 -9 28 -17 13 -14 28 -19 46 -16 4 0
7 -4 7 -11 0 -6 3 -8 7 -5 3 4 17 0 30 -8 13 -9 28 -13 33 -10 6 3 10 1 10 -5
0 -6 5 -8 10 -5 6 3 10 2 10 -4 0 -6 7 -8 16 -4 9 3 20 0 25 -8 7 -12 9 -12 9
0 0 11 3 11 15 1 9 -7 18 -10 22 -7 3 4 12 2 20 -4 10 -9 13 -8 13 0 0 7 5 9
12 5 9 -6 60 -7 148 -2 8 0 21 5 27 11 9 6 13 5 13 -4 0 -10 3 -10 12 -1 7 7
22 12 34 12 13 0 26 5 29 11 4 6 13 8 21 5 8 -3 14 -1 14 4 0 6 4 10 9 10 5 0
22 5 38 12 15 6 33 12 38 13 6 0 9 6 8 12 -1 6 6 9 17 6 12 -3 20 0 20 6 0 7
14 17 30 22 17 6 30 15 30 20 0 5 7 9 15 9 8 0 15 5 15 12 0 6 3 9 6 5 6 -6
18 2 57 38 12 11 25 20 29 20 3 0 15 10 26 22 10 13 21 20 24 18 2 -3 11 6 18
20 7 14 18 25 23 25 11 0 96 91 97 103 0 5 5 5 10 2 6 -3 10 -1 10 5 0 7 16
31 35 54 19 24 35 48 35 54 0 6 7 15 16 20 8 5 16 15 17 23 2 8 12 33 24 56
12 22 19 44 16 47 -4 3 -1 6 6 6 8 0 11 7 7 15 -3 8 0 15 6 15 6 0 9 3 6 6 -4
3 0 21 8 40 11 27 12 34 2 34 -9 1 -8 3 2 9 11 7 15 25 14 65 0 30 2 53 6 51
4 -2 7 2 7 10 0 8 -3 15 -7 15 -9 0 -6 32 4 48 4 6 4 12 -1 12 -4 0 -9 28 -11
63 -3 74 -5 88 -15 105 -5 7 -3 12 3 12 6 0 8 5 5 11 -12 19 -13 64 -1 78 8
12 8 13 -1 7 -9 -5 -13 2 -14 26 -3 70 -7 104 -12 118 -3 8 -6 22 -6 30 -2 32
-8 60 -14 66 -12 12 -8 35 6 29 6 -4 5 -1 -3 7 -15 13 -19 29 -23 95 -1 18 -6
33 -10 33 -5 0 -5 4 -2 10 3 5 8 35 10 67 5 68 13 110 24 132 5 9 6 22 4 29
-3 6 0 12 5 12 6 0 9 8 7 18 -1 9 1 22 5 27 3 6 13 26 20 45 24 64 83 185 92
191 5 3 9 9 9 13 -3 24 1 36 12 36 8 0 12 13 12 35 -1 19 2 35 7 35 10 0 -3
18 -50 66 -19 19 -38 32 -43 28 -5 -3 -9 -2 -9 3 0 4 -11 13 -25 20 -19 8 -23
8 -18 0 5 -9 3 -9 -8 -1 -22 16 -89 18 -89 2 0 -8 -3 -9 -8 -3 -9 14 -52 17
-52 4 0 -6 -6 -9 -12 -6 -7 2 -19 -3 -26 -12 -8 -9 -11 -11 -8 -4 4 6 -14 0
-39 -15 -26 -15 -56 -33 -68 -39 -12 -7 -18 -13 -12 -13 5 0 -3 -11 -18 -25
-15 -14 -27 -30 -27 -36 0 -6 -4 -8 -9 -5 -5 3 -11 -3 -14 -14 -3 -11 -6 -24
-7 -28 -2 -4 -11 -13 -20 -19 -10 -7 -17 -21 -16 -30 2 -10 -3 -23 -9 -30 -7
-6 -11 -23 -10 -37 2 -14 0 -28 -4 -30 -9 -6 -6 -111 5 -127 4 -8 3 -10 -4 -5
-11 6 -18 -27 -13 -56 0 -5 -4 -8 -10 -8 -5 0 -8 -4 -4 -9 3 -5 1 -12 -5 -16
-6 -4 -8 -10 -5 -15 3 -4 -2 -11 -11 -14 -9 -4 -14 -9 -11 -12 5 -6 -53 -61
-60 -57 -1 1 -16 -2 -32 -7 -21 -6 -33 -4 -44 8 -13 13 -19 13 -31 2 -11 -8
-16 -9 -16 -1 0 6 -4 11 -10 11 -5 0 -23 14 -38 30 -16 17 -34 30 -40 30 -6 0
-14 9 -17 20 -3 11 -14 20 -22 20 -9 0 -14 3 -11 6 4 3 -8 21 -25 39 -44 46
-77 88 -77 98 0 5 -4 5 -10 2 -9 -5 -11 -1 -10 20 0 3 -10 16 -22 29 -35 36
-58 65 -58 74 0 4 -9 14 -20 22 -11 8 -20 20 -20 27 0 7 -9 17 -20 23 -11 6
-20 17 -20 25 0 9 -9 23 -20 32 -11 10 -20 22 -20 28 0 6 -9 17 -19 25 -11 7
-18 17 -16 21 3 4 -2 9 -10 13 -8 3 -15 12 -15 21 0 8 -3 15 -8 15 -4 0 -12 8
-17 19 -10 18 -81 116 -127 175 -13 16 -25 34 -27 40 -2 6 -15 21 -29 34 -13
13 -22 26 -19 29 3 3 -6 17 -21 32 -15 15 -48 51 -74 80 -26 28 -60 58 -75 66
-15 8 -21 15 -13 15 16 1 -56 31 -77 32 -7 1 -13 6 -13 12 0 6 -5 4 -10 -4 -9
-13 -10 -13 -10 0 0 13 -1 13 -10 0 -5 -8 -10 -10 -10 -5 0 6 -9 11 -19 11
-11 0 -18 -3 -15 -7z"/>
<path d="M1740 2954 c-6 -14 -10 -30 -10 -35 0 -13 37 -48 44 -41 3 3 6 0 6
-6 0 -7 7 -12 15 -12 8 0 15 -7 15 -17 0 -9 3 -14 6 -10 5 5 74 -59 74 -69 0
-3 13 -19 30 -37 16 -18 30 -38 30 -44 0 -7 5 -13 10 -13 6 0 10 -7 10 -16 0
-8 4 -13 9 -9 6 3 8 -4 6 -15 -2 -11 0 -18 4 -15 7 4 20 -13 26 -35 0 -3 14
-32 29 -65 16 -33 29 -70 30 -82 0 -13 4 -23 8 -23 4 0 9 -9 13 -20 6 -20 28
-22 54 -6 10 6 12 5 7 -2 -10 -16 5 -15 27 2 15 12 15 15 2 26 -8 7 -12 17 -9
22 3 5 -2 16 -12 24 -11 9 -13 12 -6 9 10 -6 11 -3 3 11 -14 27 -24 58 -23 67
1 4 -3 7 -9 7 -5 0 -7 5 -4 10 3 6 1 10 -4 10 -6 0 -11 9 -11 20 0 11 -5 20
-11 20 -5 0 -7 5 -4 10 3 6 2 10 -4 10 -5 0 -15 16 -22 35 -7 19 -17 35 -21
35 -4 0 -8 7 -8 15 0 8 -5 15 -11 15 -5 0 -7 5 -4 10 3 6 -1 10 -9 10 -8 0
-17 9 -21 20 -9 28 -175 192 -175 173 0 -4 -6 2 -14 12 -21 30 -55 29 -66 -1z"/>
<path d="M320 1220 c-8 -5 -25 -10 -36 -10 -13 0 -24 -8 -27 -20 -3 -11 -2
-20 3 -20 4 0 16 -17 25 -37 10 -21 21 -40 25 -43 4 -3 15 -21 25 -40 21 -40
74 -111 93 -123 7 -5 9 -14 6 -20 -4 -7 -4 -9 1 -5 9 8 35 -15 35 -31 0 -6 4
-11 9 -11 5 0 25 -16 44 -35 19 -19 39 -35 44 -35 4 0 19 -12 32 -25 12 -14
27 -22 32 -19 5 3 12 -2 15 -10 3 -9 10 -13 15 -10 5 3 9 0 9 -5 0 -6 5 -11
11 -11 6 0 17 -7 25 -15 8 -8 21 -12 29 -9 8 4 15 1 15 -5 0 -6 7 -11 15 -11
14 0 19 12 16 33 0 4 3 7 8 7 5 0 8 8 6 18 -2 9 -4 21 -4 25 -1 5 -5 5 -11 2
-5 -3 -10 -2 -10 4 0 5 -16 15 -35 22 -19 7 -35 17 -35 21 0 4 -7 8 -15 8 -8
0 -15 5 -15 10 0 6 -6 10 -12 10 -7 0 -26 14 -42 30 -16 17 -33 30 -38 30 -4
0 -8 7 -8 15 0 8 -4 14 -9 12 -5 -1 -10 1 -10 5 -1 4 -19 25 -41 47 -22 22
-40 42 -40 46 0 3 -5 11 -10 18 -41 48 -50 62 -50 74 0 7 -4 13 -10 13 -5 0
-10 7 -10 15 0 8 -5 15 -11 15 -5 0 -7 5 -4 10 3 6 1 10 -4 10 -6 0 -11 7 -11
15 0 9 -7 18 -15 21 -8 4 -12 10 -9 15 7 11 3 11 -16 -1z"/>
<path d="M73 1123 c-16 -11 -23 -12 -23 -4 0 7 -5 9 -13 4 -6 -4 -15 -8 -19
-8 -3 0 -10 -4 -15 -9 -5 -5 -2 -6 6 -1 9 5 12 3 9 -6 -3 -8 6 -31 19 -51 12
-21 23 -42 23 -48 0 -5 5 -10 12 -10 6 0 9 -3 5 -6 -3 -4 -1 -12 6 -20 29 -32
37 -44 35 -48 -2 -2 7 -16 19 -30 13 -14 21 -26 18 -26 -3 0 3 -8 13 -18 9
-11 33 -39 52 -63 19 -24 49 -58 67 -76 17 -17 28 -34 25 -38 -4 -4 -2 -6 3
-5 19 4 36 0 31 -8 -2 -4 20 -25 50 -47 30 -22 54 -44 54 -49 0 -5 3 -7 6 -3
3 3 15 -3 27 -13 11 -11 24 -17 29 -14 4 3 8 0 8 -5 0 -6 7 -11 16 -11 8 0 13
-4 10 -9 -5 -8 40 -26 57 -23 4 1 7 -5 7 -14 0 -10 6 -14 14 -11 7 3 18 1 24
-5 8 -8 13 -2 18 18 4 16 11 35 17 42 11 13 -19 56 -33 47 -4 -3 -13 2 -20 10
-7 8 -19 15 -26 15 -8 0 -14 5 -14 12 0 6 -3 8 -6 5 -4 -4 -15 3 -25 14 -9 11
-19 20 -21 19 -10 -4 -37 14 -32 21 3 5 -2 9 -11 9 -9 0 -36 20 -62 45 -25 25
-49 45 -54 45 -5 0 -9 5 -9 11 0 15 -26 39 -34 32 -3 -4 -6 1 -6 10 0 10 -4
17 -10 17 -5 0 -10 7 -10 16 0 8 -5 12 -10 9 -6 -3 -10 -1 -10 4 0 10 -19 36
-47 66 -7 8 -13 18 -13 24 0 6 -4 11 -10 11 -5 0 -10 7 -10 15 0 8 -5 15 -11
15 -6 0 -8 7 -5 16 3 8 2 13 -3 10 -4 -3 -17 14 -29 38 -12 23 -32 54 -44 68
-21 24 -25 25 -45 11z"/>
</g>
</svg>
