<?xml version="1.0" standalone="no"?>
<!DOCTYPE svg PUBLIC "-//W3C//DTD SVG 20010904//EN"
 "http://www.w3.org/TR/2001/REC-SVG-20010904/DTD/svg10.dtd">
<svg version="1.0" xmlns="http://www.w3.org/2000/svg"
 width="431.000000pt" height="431.000000pt" viewBox="0 0 431.000000 431.000000"
 preserveAspectRatio="xMidYMid meet">

<g transform="translate(0.000000,431.000000) scale(0.100000,-0.100000)"
fill="rgba(195,222,254,0.2)" stroke="none">
<path d="M1297 4083 c-15 -2 -25 -8 -22 -12 6 -11 55 -1 55 10 0 5 -1 8 -2 8
-2 -1 -15 -4 -31 -6z"/>
<path d="M1363 4083 c-17 -6 -17 -33 0 -33 7 0 13 9 14 20 1 11 1 20 0 19 -1
0 -8 -3 -14 -6z"/>
<path d="M1455 4080 c-4 -7 6 -9 32 -6 21 2 43 0 49 -5 12 -10 44 -2 44 10 0
11 -118 13 -125 1z"/>
<path d="M1210 4072 c0 -12 19 -26 26 -19 2 2 -2 10 -11 17 -9 8 -15 8 -15 2z"/>
<path d="M1180 4061 c0 -6 5 -13 10 -16 6 -3 10 1 10 9 0 9 -4 16 -10 16 -5 0
-10 -4 -10 -9z"/>
<path d="M901 4057 c2 -1 12 -9 22 -16 14 -12 17 -11 17 3 0 10 -8 16 -22 16
-12 0 -19 -1 -17 -3z"/>
<path d="M1138 4053 c-24 -6 -23 -15 3 -31 14 -9 19 -10 14 -2 -4 7 -2 16 5
20 15 9 1 18 -22 13z"/>
<path d="M1655 4050 c3 -5 10 -10 16 -10 5 0 9 5 9 10 0 6 -7 10 -16 10 -8 0
-12 -4 -9 -10z"/>
<path d="M1695 4050 c-3 -5 -2 -10 4 -10 5 0 13 5 16 10 3 6 2 10 -4 10 -5 0
-13 -4 -16 -10z"/>
<path d="M1740 4053 c0 -13 29 -38 35 -31 3 3 -4 13 -15 23 -11 10 -20 13 -20
8z"/>
<path d="M1608 4043 c7 -3 16 -2 19 1 4 3 -2 6 -13 5 -11 0 -14 -3 -6 -6z"/>
<path d="M1244 4015 c-28 -24 -39 -29 -57 -26 -5 1 -6 -3 -2 -9 5 -7 18 -4 41
10 20 11 43 20 53 20 9 0 26 7 37 15 18 14 17 14 -12 15 -19 0 -42 -10 -60
-25z"/>
<path d="M1951 4031 c-7 -5 -3 -13 10 -25 12 -9 23 -15 27 -12 3 3 2 6 -3 6
-4 0 -2 6 4 14 9 11 7 15 -8 19 -10 2 -24 2 -30 -2z"/>
<path d="M803 4005 c0 -16 5 -25 15 -25 9 0 26 -10 38 -21 l23 -22 7 27 c8 32
5 35 -32 42 -16 3 -34 10 -40 15 -8 7 -11 2 -11 -16z"/>
<path d="M1790 4020 c0 -6 4 -10 9 -10 5 0 17 -7 26 -16 9 -9 19 -14 22 -11 7
8 -16 31 -39 40 -10 3 -18 2 -18 -3z"/>
<path d="M1540 4006 c0 -10 9 -16 21 -16 24 0 21 23 -4 28 -10 2 -17 -3 -17
-12z"/>
<path d="M940 4000 c0 -5 5 -10 10 -10 6 0 10 5 10 10 0 6 -4 10 -10 10 -5 0
-10 -4 -10 -10z"/>
<path d="M1098 4003 c-20 -5 -23 -18 -8 -28 6 -3 10 -22 10 -41 0 -35 8 -42
26 -24 7 7 16 4 28 -9 17 -19 16 -20 -33 -42 -27 -13 -47 -27 -45 -31 3 -5 -2
-15 -10 -24 -9 -8 -16 -22 -16 -30 0 -8 -5 -14 -12 -14 -6 0 -9 -2 -6 -5 8 -9
38 6 33 16 -3 4 7 15 23 23 15 8 34 26 42 40 12 23 25 28 58 25 4 0 6 -6 4
-14 -1 -7 2 -16 8 -20 6 -4 9 -1 8 7 -3 14 13 15 50 4 14 -5 22 -3 22 4 0 7
-8 14 -19 17 -10 2 -24 16 -30 30 -9 20 -16 24 -36 19 -19 -5 -27 -2 -32 11
-4 9 -1 19 5 21 21 7 13 27 -18 50 -16 12 -30 21 -32 21 -2 -1 -11 -3 -20 -6z"/>
<path d="M1620 4000 c0 -6 -4 -9 -9 -5 -5 3 -12 1 -16 -5 -3 -5 1 -10 9 -10 8
0 18 5 21 10 4 6 11 8 16 4 23 -14 62 -13 82 1 l22 16 -25 -6 c-36 -9 -63 -9
-82 0 -11 4 -18 3 -18 -5z"/>
<path d="M990 3980 c0 -5 5 -10 11 -10 5 0 7 5 4 10 -3 6 -8 10 -11 10 -2 0
-4 -4 -4 -10z"/>
<path d="M1468 3983 c-28 -7 -21 -19 13 -21 28 -2 30 0 19 13 -7 8 -13 14 -14
14 0 -1 -9 -3 -18 -6z"/>
<path d="M2085 3980 c-3 -5 -1 -10 4 -10 6 0 11 5 11 10 0 6 -2 10 -4 10 -3 0
-8 -4 -11 -10z"/>
<path d="M2166 3973 c-6 -14 -5 -15 5 -6 7 7 10 15 7 18 -3 3 -9 -2 -12 -12z"/>
<path d="M1914 3969 c-8 -13 13 -29 38 -29 26 0 31 18 9 29 -25 14 -38 14 -47
0z"/>
<path d="M1290 3960 c-13 -8 -13 -10 2 -10 9 0 20 5 23 10 8 13 -5 13 -25 0z"/>
<path d="M1720 3951 c0 -5 -3 -16 -6 -25 -4 -10 -1 -16 9 -16 8 0 18 -8 21
-17 6 -14 10 -13 26 12 19 30 19 30 -3 42 -26 15 -47 16 -47 4z"/>
<path d="M2108 3953 c7 -3 16 -2 19 1 4 3 -2 6 -13 5 -11 0 -14 -3 -6 -6z"/>
<path d="M1250 3940 c0 -5 5 -10 11 -10 5 0 7 5 4 10 -3 6 -8 10 -11 10 -2 0
-4 -4 -4 -10z"/>
<path d="M1213 3923 c9 -9 19 -14 23 -11 10 10 -6 28 -24 28 -15 0 -15 -1 1
-17z"/>
<path d="M1565 3921 c-8 -14 -15 -51 -9 -51 7 0 25 52 20 57 -2 2 -7 0 -11 -6z"/>
<path d="M1623 3910 c-1 -11 4 -20 12 -20 8 0 13 9 12 20 -1 11 -6 20 -12 20
-6 0 -11 -9 -12 -20z"/>
<path d="M2403 3913 c9 -2 25 -2 35 0 9 3 1 5 -18 5 -19 0 -27 -2 -17 -5z"/>
<path d="M2355 3900 c-16 -7 -17 -9 -3 -9 9 -1 20 4 23 9 7 11 7 11 -20 0z"/>
<path d="M1074 3892 c3 -5 0 -13 -6 -15 -9 -4 -10 -6 -1 -6 17 -1 25 16 12 25
-7 4 -9 3 -5 -4z"/>
<path d="M1890 3890 c0 -5 5 -10 10 -10 6 0 10 5 10 10 0 6 -4 10 -10 10 -5 0
-10 -4 -10 -10z"/>
<path d="M1909 3874 c-7 -8 -18 -13 -25 -10 -14 5 -39 -20 -27 -27 13 -8 96 7
100 18 2 6 -6 16 -16 22 -16 10 -22 9 -32 -3z"/>
<path d="M1430 3861 c-14 -27 -13 -41 5 -41 8 0 15 -4 15 -10 0 -21 26 -9 43
19 19 32 17 35 -25 45 -21 5 -30 2 -38 -13z"/>
<path d="M1613 3867 c19 -7 25 -16 22 -28 -3 -9 1 -24 10 -32 8 -9 15 -21 15
-28 0 -9 3 -10 10 -3 7 7 7 21 -1 45 -15 43 -17 45 -54 52 l-30 6 28 -12z"/>
<path d="M2490 3860 c-12 -8 -11 -10 7 -10 12 0 25 5 28 10 8 13 -15 13 -35 0z"/>
<path d="M1725 3850 c-3 -5 -1 -10 4 -10 6 0 11 5 11 10 0 6 -2 10 -4 10 -3 0
-8 -4 -11 -10z"/>
<path d="M2203 3848 c-6 -7 -14 -20 -18 -28 -8 -13 -7 -13 8 -1 9 7 17 10 17
7 0 -4 9 -2 20 4 14 7 20 7 20 0 0 -5 -6 -10 -14 -10 -8 0 -17 -4 -20 -9 -3
-5 12 -8 34 -7 22 0 40 4 40 8 0 5 9 8 20 8 13 0 18 -5 14 -15 -4 -10 0 -15
12 -16 11 0 14 -3 6 -6 -6 -2 -10 -8 -7 -13 3 -4 -3 -6 -14 -3 -22 6 -38 -14
-23 -29 7 -7 17 -6 32 2 16 9 25 9 33 1 8 -8 6 -11 -8 -11 -10 0 -16 -2 -13
-5 9 -9 58 6 52 16 -5 8 16 13 43 10 6 -1 15 4 19 10 5 8 2 10 -7 7 -8 -3 -26
0 -40 7 l-24 13 28 11 c20 8 48 8 99 0 38 -6 78 -9 89 -6 10 3 22 1 25 -4 3
-5 -2 -9 -10 -9 -23 0 -19 -15 8 -29 29 -16 70 -6 62 16 -9 21 -49 72 -59 72
-5 1 -5 -4 -1 -10 16 -27 -57 -39 -82 -14 -11 10 -36 15 -85 15 -55 0 -69 3
-69 15 0 18 -5 18 -30 5 -13 -7 -21 -7 -25 0 -3 5 -11 10 -16 10 -6 0 -8 -4
-4 -9 9 -16 -15 -24 -30 -11 -9 8 -28 10 -46 6 -18 -3 -28 -2 -24 4 9 14 -1
12 -12 -2z"/>
<path d="M2040 3839 c0 -5 5 -7 10 -4 6 3 10 8 10 11 0 2 -4 4 -10 4 -5 0 -10
-5 -10 -11z"/>
<path d="M1796 3832 c-3 -5 1 -9 9 -9 8 0 15 4 15 9 0 4 -4 8 -9 8 -6 0 -12
-4 -15 -8z"/>
<path d="M1964 3815 c22 -17 36 -19 36 -6 0 10 -24 21 -43 21 -7 0 -3 -7 7
-15z"/>
<path d="M2075 3810 c-3 -5 -2 -10 4 -10 5 0 13 5 16 10 3 6 2 10 -4 10 -5 0
-13 -4 -16 -10z"/>
<path d="M1710 3784 c-6 -14 -10 -32 -10 -40 0 -25 25 -10 28 17 2 13 9 30 14
37 8 9 6 12 -6 12 -9 0 -21 -12 -26 -26z"/>
<path d="M1895 3771 c-29 -18 -34 -37 -6 -21 25 13 34 13 25 -1 -4 -8 0 -7 15
1 17 9 29 8 51 -2 17 -7 30 -17 30 -21 0 -5 4 -6 9 -2 5 3 12 -4 16 -15 7 -23
16 -25 33 -8 9 9 5 17 -16 35 -54 48 -112 61 -157 34z"/>
<path d="M1480 3770 c0 -5 5 -10 11 -10 5 0 7 5 4 10 -3 6 -8 10 -11 10 -2 0
-4 -4 -4 -10z"/>
<path d="M1160 3743 c-38 -15 -66 -21 -91 -17 -28 4 -38 1 -43 -11 -3 -9 -3
-22 0 -27 5 -7 -2 -9 -19 -6 -16 3 -24 1 -20 -5 3 -5 0 -8 -7 -5 -17 5 -22 38
-7 38 7 0 -1 8 -18 19 -29 18 -60 18 -49 0 3 -5 1 -9 -5 -9 -19 0 1 -31 30
-46 33 -16 38 -34 11 -34 -18 0 -60 -36 -51 -44 2 -2 21 -7 43 -10 33 -6 38
-5 33 8 -10 26 38 20 103 -13 32 -16 77 -35 101 -42 39 -12 41 -14 18 -20 -13
-4 -17 -7 -8 -8 9 -1 19 -7 22 -14 4 -10 -2 -13 -19 -9 -13 2 -24 8 -24 13 0
5 -16 9 -35 9 -19 0 -35 -4 -35 -10 0 -5 9 -10 19 -10 25 0 51 -10 51 -20 0
-4 -13 -13 -30 -18 -19 -7 -29 -7 -27 -1 3 14 -58 38 -73 29 -8 -5 -10 -17 -6
-33 5 -21 2 -26 -19 -31 -14 -4 -34 -1 -45 6 -13 9 -23 9 -28 3 -4 -5 -15 -10
-26 -10 -11 0 -23 -10 -28 -24 l-8 -24 67 6 c49 4 60 3 38 -4 -16 -5 -48 -10
-70 -11 -22 0 -56 -9 -75 -20 -19 -10 -43 -18 -52 -18 -10 0 -18 -6 -18 -14 0
-7 -15 -21 -34 -30 -19 -9 -36 -23 -40 -31 -7 -19 1 -19 54 0 23 8 52 15 64
15 26 0 76 22 76 33 0 4 5 7 11 7 5 0 8 -4 5 -9 -3 -4 22 -2 54 6 39 9 67 10
78 4 12 -6 21 -4 30 5 11 12 11 15 0 18 -68 22 -73 24 -49 25 16 1 21 5 17 16
-3 8 0 15 6 15 6 0 18 8 27 18 22 25 61 34 68 16 8 -22 21 -17 58 21 20 19 49
42 65 50 28 15 41 35 21 35 -16 0 -160 70 -167 81 -3 6 3 20 14 32 l21 20 11
-25 c19 -41 66 -62 156 -68 l82 -5 0 37 c1 42 -43 117 -82 143 -47 31 -86 33
-146 8z m-223 -45 c-3 -8 -6 -5 -6 6 -1 11 2 17 5 13 3 -3 4 -12 1 -19z m335
12 c5 0 2 -7 -6 -16 -20 -19 -20 -28 -1 -44 15 -12 55 -5 55 11 0 15 30 10 37
-7 3 -9 -6 -27 -23 -45 -21 -22 -37 -29 -66 -29 -46 0 -88 35 -88 74 0 28 46
70 68 61 7 -3 18 -5 24 -5z"/>
<path d="M1523 3724 c-27 -29 -28 -34 -9 -34 9 0 12 -7 9 -19 -3 -11 -13 -19
-23 -18 -10 1 -16 7 -13 14 3 9 0 11 -10 8 -9 -4 -17 2 -20 17 -5 18 -14 24
-42 25 -41 3 -47 -15 -15 -47 12 -12 25 -32 31 -46 8 -24 13 -26 54 -21 30 4
44 2 42 -5 -1 -6 16 -13 41 -14 24 -2 50 -11 58 -19 9 -8 26 -18 40 -21 13 -3
24 -12 24 -20 0 -8 -6 -11 -15 -8 -9 4 -15 0 -15 -9 0 -8 6 -18 13 -20 7 -3 5
-6 -5 -6 -10 -1 -27 -10 -39 -22 -17 -17 -23 -18 -36 -7 -14 11 -15 9 -8 -20
l7 -34 -31 16 c-45 24 -114 21 -137 -5 -19 -22 -19 -22 3 -10 48 25 163 -7
163 -46 0 -18 -10 -16 -25 4 -11 15 -15 15 -29 4 -9 -7 -16 -21 -16 -31 0 -12
-9 -17 -30 -18 -27 -1 -29 1 -19 20 9 16 7 24 -5 37 -14 13 -18 14 -25 2 -6
-9 -18 -12 -35 -7 -35 9 -34 -10 2 -28 15 -8 40 -28 55 -44 l29 -30 31 18 c38
22 115 41 122 30 12 -20 185 -37 212 -21 17 10 16 10 -3 11 -25 0 -67 29 -44
30 8 1 5 5 -9 11 -17 7 -22 15 -18 29 3 11 1 20 -4 20 -5 0 -9 7 -9 15 0 8 -4
15 -10 15 -5 0 -7 7 -3 16 4 10 -1 22 -12 30 -10 7 -15 20 -12 28 5 13 11 14
34 5 45 -18 143 -15 181 5 19 10 35 16 35 14 1 -2 8 -14 15 -26 12 -22 12 -23
-6 -18 -12 4 -19 1 -19 -8 0 -10 15 -14 59 -14 65 0 88 -13 88 -48 0 -17 7
-25 25 -30 14 -3 25 -12 25 -18 0 -7 11 -19 25 -26 13 -7 22 -17 19 -22 -3 -4
-1 -8 4 -8 6 0 9 -8 8 -17 0 -10 5 -17 12 -16 6 2 12 -6 12 -17 0 -13 7 -20
20 -20 28 0 25 -20 -2 -21 l-23 0 23 -9 c12 -5 27 -21 32 -35 8 -21 16 -25 52
-27 37 -1 39 -2 11 -5 -29 -4 -33 -8 -33 -34 0 -23 9 -35 41 -56 23 -16 53
-35 66 -44 14 -9 49 -41 80 -70 36 -35 64 -54 84 -56 42 -4 28 12 -40 46 -31
16 -63 37 -71 46 -13 15 -10 16 26 10 21 -4 51 -15 66 -26 29 -20 48 -24 48
-11 0 9 -24 22 -78 42 -18 7 -35 16 -38 21 -3 5 2 6 11 3 11 -5 14 -2 9 10 -4
11 -1 16 13 16 10 0 24 9 31 21 11 18 11 20 -5 19 -10 -1 -26 -2 -37 -1 -16 1
-17 3 -5 17 10 12 24 15 59 11 25 -3 54 -2 65 3 15 6 6 9 -32 9 -65 1 -83 8
-83 32 0 14 7 19 29 19 17 0 33 -4 36 -10 3 -5 23 -10 43 -9 36 0 36 1 -18 18
l-55 18 40 5 c38 4 37 5 -12 6 -28 1 -55 -2 -58 -8 -3 -5 -21 -10 -38 -9 -30
1 -30 1 -7 8 40 11 6 23 -45 15 -30 -4 -45 -3 -45 5 0 6 13 11 29 11 17 0 32
4 35 9 7 11 -42 21 -100 21 -24 0 -44 5 -44 10 0 6 -7 10 -15 10 -8 0 -15 6
-15 14 0 8 -6 17 -12 19 -7 3 4 6 25 6 41 1 53 21 12 21 -14 0 -25 5 -25 11 0
7 -10 9 -26 5 -15 -4 -23 -3 -20 2 9 15 55 20 60 8 2 -6 5 -2 5 10 1 15 -8 24
-31 31 l-33 10 24 10 25 10 -29 19 -28 18 23 6 c13 3 26 12 28 19 4 13 -5 12
-58 -7 -11 -4 -10 1 4 16 12 14 14 22 7 22 -7 0 -10 4 -7 8 9 15 -34 43 -55
37 -17 -6 -18 -9 -5 -26 8 -11 12 -29 9 -39 -3 -12 6 -31 26 -52 29 -31 40
-58 23 -58 -15 0 -52 32 -47 40 3 5 -3 13 -12 19 -10 6 -15 11 -11 11 4 0 3
11 -2 24 -6 18 -5 26 3 29 7 2 3 3 -7 1 -25 -4 -58 14 -50 28 4 7 9 6 15 -3 4
-7 11 -10 16 -5 4 4 0 12 -10 17 -9 6 -17 15 -17 20 0 6 5 7 12 3 8 -5 9 -2 5
9 -4 11 -1 17 8 17 8 0 15 5 15 10 0 6 -9 10 -21 10 -11 0 -18 4 -15 9 4 5 0
11 -6 14 -9 3 -7 10 7 21 20 15 20 15 -2 16 -13 0 -23 -5 -23 -11 0 -6 -7 -9
-15 -5 -14 5 -20 -11 -16 -37 2 -13 -25 -36 -35 -29 -5 4 -14 15 -19 25 -6 11
-37 30 -69 44 -55 23 -63 24 -105 12 -25 -7 -63 -29 -86 -48 -22 -19 -50 -44
-62 -54 -22 -19 -22 -19 -16 2 3 11 22 37 42 56 29 29 34 38 25 53 -12 18 -64
19 -75 1 -3 -5 -14 -6 -25 -2 -16 6 -17 5 -6 -9 8 -10 9 -19 3 -22 -5 -4 -14
1 -19 10 -8 15 -12 14 -26 -12 -15 -26 -16 -26 -10 -4 15 53 13 72 -7 77 -10
3 -19 12 -19 19 0 20 -11 16 -37 -12z m394 -126 c3 9 10 4 19 -14 11 -21 12
-30 2 -43 -23 -30 -42 -41 -74 -41 -39 0 -71 25 -80 63 -5 22 -3 27 14 27 11
0 25 -7 32 -15 24 -29 74 -10 63 24 -4 14 -3 14 7 1 9 -12 13 -12 17 -2z
m-227 -138 c0 -5 -9 -10 -20 -10 -11 0 -20 5 -20 10 0 6 9 10 20 10 11 0 20
-4 20 -10z m40 -83 c13 4 13 3 1 -5 -12 -9 -12 -13 -2 -26 11 -13 11 -17 -3
-22 -9 -3 -23 -3 -32 0 -8 3 -12 2 -9 -4 3 -6 -3 -10 -14 -10 -17 0 -19 6 -16
43 1 23 3 43 4 45 1 1 13 -4 29 -11 15 -8 34 -12 42 -10z m657 -213 c-3 -3
-12 -4 -19 -1 -8 3 -5 6 6 6 11 1 17 -2 13 -5z m50 0 c-3 -3 -12 -4 -19 -1 -8
3 -5 6 6 6 11 1 17 -2 13 -5z"/>
<path d="M2445 3730 c22 -4 34 -8 27 -9 -7 0 -11 -5 -8 -10 3 -4 -16 -7 -42
-6 l-47 2 39 -11 c37 -12 38 -12 15 -23 l-24 -11 25 -10 c14 -6 19 -11 13 -11
-7 -1 -13 -5 -13 -11 0 -5 7 -7 15 -4 8 4 15 1 15 -6 0 -6 5 -8 13 -3 6 4 19
6 29 5 9 -2 19 2 23 8 3 5 14 10 23 10 15 -1 15 -2 -2 -15 -22 -17 -14 -20 14
-5 12 7 18 6 17 -3 -1 -39 3 -51 15 -39 7 7 21 12 32 12 14 0 17 3 9 11 -7 7
-8 23 -2 47 12 54 12 55 -23 50 -20 -3 -38 0 -46 8 -7 8 -26 14 -42 14 -16 0
-32 5 -35 10 -3 6 -23 9 -43 9 l-37 -2 40 -7z m68 -37 c-7 -2 -19 -2 -25 0 -7
3 -2 5 12 5 14 0 19 -2 13 -5z"/>
<path d="M880 3666 c0 -10 9 -16 21 -16 24 0 21 23 -4 28 -10 2 -17 -3 -17
-12z"/>
<path d="M840 3646 c0 -2 7 -9 15 -16 13 -11 14 -10 9 4 -5 14 -24 23 -24 12z"/>
<path d="M2193 3629 c-14 -14 -6 -39 12 -39 7 0 18 7 26 16 10 13 10 17 -2 25
-18 11 -23 11 -36 -2z m22 -9 c-3 -5 -12 -10 -18 -10 -7 0 -6 4 3 10 19 12 23
12 15 0z"/>
<path d="M850 3570 c-8 -5 -12 -11 -9 -14 9 -9 79 6 73 15 -7 12 -45 11 -64
-1z"/>
<path d="M2198 3573 c7 -3 16 -2 19 1 4 3 -2 6 -13 5 -11 0 -14 -3 -6 -6z"/>
<path d="M2630 3570 c0 -5 5 -10 10 -10 6 0 10 5 10 10 0 6 -4 10 -10 10 -5 0
-10 -4 -10 -10z"/>
<path d="M2230 3560 c0 -5 7 -10 15 -10 8 0 15 5 15 10 0 6 -7 10 -15 10 -8 0
-15 -4 -15 -10z"/>
<path d="M1540 3550 c0 -5 5 -10 10 -10 6 0 10 5 10 10 0 6 -4 10 -10 10 -5 0
-10 -4 -10 -10z"/>
<path d="M768 3526 c-22 -16 -13 -26 22 -26 25 0 50 16 50 32 0 13 -53 9 -72
-6z"/>
<path d="M1333 3512 c-28 -18 -43 -35 -45 -52 -2 -19 -8 -24 -23 -22 -11 2
-17 1 -13 -4 8 -7 -32 -49 -68 -71 -17 -11 -15 -12 16 -13 19 -1 52 -4 72 -5
23 -3 41 1 49 11 9 12 7 14 -17 14 -16 0 -36 5 -44 10 -12 8 -9 10 12 10 16 0
33 8 40 19 6 10 16 17 22 15 14 -5 76 32 76 45 0 5 -9 13 -21 16 -16 5 -18 9
-8 21 24 30 -6 33 -48 6z"/>
<path d="M2530 3495 c0 -2 14 -8 32 -13 37 -9 48 -42 15 -42 -12 0 -29 -5 -37
-10 -13 -8 -12 -10 4 -10 15 0 16 -3 6 -15 -16 -19 -5 -35 25 -35 18 0 22 -4
18 -20 -4 -15 0 -20 15 -20 12 0 24 -5 27 -11 5 -6 12 -4 20 8 7 10 11 21 9
25 -3 5 1 8 8 8 7 0 0 7 -16 15 -15 8 -39 12 -52 9 -17 -4 -24 -2 -24 9 0 8 7
17 15 21 8 3 15 12 15 20 0 8 6 17 13 19 9 4 9 6 -1 6 -7 1 -10 6 -7 11 3 6
-1 10 -9 10 -9 0 -16 5 -16 10 0 6 -13 10 -30 10 -16 0 -30 -2 -30 -5z"/>
<path d="M748 3477 c-7 -8 -20 -12 -28 -9 -8 3 -12 1 -8 -3 10 -10 -17 -35
-38 -35 -16 0 -16 -1 2 -14 17 -13 22 -13 42 0 29 19 64 54 55 54 -5 0 -1 5 7
10 13 8 13 10 -2 10 -9 0 -23 -6 -30 -13z"/>
<path d="M1497 3466 c-6 -16 11 -26 31 -19 10 4 10 8 1 19 -15 18 -25 18 -32
0z"/>
<path d="M1940 3460 c0 -5 5 -10 11 -10 5 0 7 5 4 10 -3 6 -8 10 -11 10 -2 0
-4 -4 -4 -10z"/>
<path d="M1770 3451 c0 -5 16 -19 35 -31 19 -12 35 -28 35 -36 0 -8 6 -17 14
-20 8 -3 17 -15 20 -27 6 -22 6 -22 22 -2 14 19 13 21 -16 33 -37 15 -39 26
-5 19 16 -3 24 0 22 7 -2 6 -13 11 -25 10 -12 0 -18 5 -15 12 2 6 -1 15 -6 19
-6 3 -9 11 -6 16 4 5 -12 9 -34 9 -23 0 -41 -4 -41 -9z"/>
<path d="M1888 3445 c13 -9 26 -14 29 -11 8 8 3 12 -27 21 l-25 7 23 -17z"/>
<path d="M1118 3383 c7 -3 16 -2 19 1 4 3 -2 6 -13 5 -11 0 -14 -3 -6 -6z"/>
<path d="M1080 3360 c20 -13 40 -13 40 0 0 6 -12 10 -27 10 -22 0 -25 -2 -13
-10z"/>
<path d="M1920 3360 c0 -5 7 -10 15 -10 9 0 12 -6 9 -15 -8 -20 42 -43 58 -27
9 9 9 12 -1 12 -7 0 -10 4 -6 9 7 12 -34 41 -57 41 -10 0 -18 -4 -18 -10z"/>
<path d="M2840 3330 c0 -5 5 -10 10 -10 6 0 10 5 10 10 0 6 -4 10 -10 10 -5 0
-10 -4 -10 -10z"/>
<path d="M584 3321 c3 -5 -8 -14 -25 -21 -17 -7 -28 -18 -25 -25 2 -7 -1 -18
-7 -24 -21 -21 3 -24 38 -5 39 21 43 30 18 37 -12 3 -8 5 9 6 34 1 44 17 19
30 -24 13 -34 14 -27 2z"/>
<path d="M1208 3323 c7 -3 16 -2 19 1 4 3 -2 6 -13 5 -11 0 -14 -3 -6 -6z"/>
<path d="M2745 3320 c3 -5 14 -10 23 -10 15 0 15 2 2 10 -20 13 -33 13 -25 0z"/>
<path d="M2968 3293 c7 -3 16 -2 19 1 4 3 -2 6 -13 5 -11 0 -14 -3 -6 -6z"/>
<path d="M2595 3281 c-8 -15 28 -31 54 -24 17 4 19 8 10 19 -13 16 -55 19 -64
5z"/>
<path d="M1905 3270 c3 -5 15 -10 26 -10 11 0 17 5 14 10 -3 6 -15 10 -26 10
-11 0 -17 -4 -14 -10z"/>
<path d="M2887 3273 c7 -2 9 -11 6 -19 -6 -16 5 -18 27 -4 18 11 13 17 -20 23
-14 2 -20 2 -13 0z"/>
<path d="M2016 3261 c-4 -5 0 -12 6 -14 7 -3 -9 -6 -37 -6 -36 -1 -46 -4 -35
-11 8 -5 27 -10 42 -10 24 0 27 -4 26 -32 -1 -18 4 -34 10 -36 7 -2 10 -7 7
-12 -3 -5 16 -16 42 -25 52 -17 114 -50 78 -41 -11 2 -38 11 -60 19 -41 16
-51 15 -41 -1 9 -16 157 -94 164 -88 3 4 -7 19 -22 35 -15 16 -27 33 -25 38 1
4 -27 23 -62 40 -76 39 -66 44 16 8 63 -28 84 -27 36 1 -29 17 -35 27 -32 47
0 4 -3 7 -9 7 -5 0 -10 6 -10 13 0 27 -83 86 -94 68z"/>
<path d="M2953 3256 c-4 -7 -17 -16 -28 -18 -11 -2 -19 -10 -17 -17 2 -8 -4
-10 -18 -6 -31 10 -24 -2 12 -19 38 -19 60 -20 77 -3 11 10 13 8 8 -11 -5 -20
-2 -23 21 -20 31 4 42 28 12 28 -12 0 -18 5 -15 10 4 6 -7 10 -24 10 -17 0
-31 5 -31 10 0 6 9 10 19 10 28 0 35 17 12 30 -15 8 -22 7 -28 -4z"/>
<path d="M1790 3250 c0 -5 11 -10 25 -10 14 0 25 5 25 10 0 6 -11 10 -25 10
-14 0 -25 -4 -25 -10z"/>
<path d="M1868 3253 c7 -3 16 -2 19 1 4 3 -2 6 -13 5 -11 0 -14 -3 -6 -6z"/>
<path d="M2516 3235 c-7 -19 -5 -19 30 0 l29 15 -26 0 c-15 0 -29 -7 -33 -15z"/>
<path d="M710 3222 c-37 -19 -99 -72 -84 -72 5 0 43 21 84 45 71 43 72 63 0
27z"/>
<path d="M1670 3230 c20 -13 43 -13 35 0 -3 6 -16 10 -28 10 -18 0 -19 -2 -7
-10z"/>
<path d="M2605 3230 c3 -5 -3 -10 -14 -10 -11 0 -23 -4 -26 -10 -10 -15 49 -5
76 14 l23 16 -32 0 c-20 0 -31 -4 -27 -10z"/>
<path d="M1471 3216 c-7 -9 -39 -23 -70 -33 -31 -9 -63 -23 -71 -31 -13 -13
-12 -13 6 -3 26 13 73 16 95 7 10 -4 20 -3 23 3 5 7 15 7 34 -1 15 -6 36 -12
47 -14 61 -11 81 -19 102 -43 l23 -26 -13 27 c-6 15 -28 35 -47 43 -38 17
-101 60 -111 76 -3 6 -11 4 -18 -5z"/>
<path d="M1725 3219 c-5 -8 -4 -10 3 -5 6 4 21 2 32 -4 11 -6 50 -12 88 -14
37 -2 85 -6 107 -10 l40 -6 -35 11 c-19 5 -64 14 -100 19 -36 4 -79 11 -96 15
-21 5 -34 3 -39 -6z"/>
<path d="M3040 3210 c0 -5 5 -10 11 -10 5 0 7 5 4 10 -3 6 -8 10 -11 10 -2 0
-4 -4 -4 -10z"/>
<path d="M1750 3166 c0 -2 7 -7 16 -10 8 -3 12 -2 9 4 -6 10 -25 14 -25 6z"/>
<path d="M1968 3163 c7 -3 16 -2 19 1 4 3 -2 6 -13 5 -11 0 -14 -3 -6 -6z"/>
<path d="M651 3129 c-45 -32 -50 -46 -10 -30 13 5 35 12 49 15 14 3 36 15 50
26 l25 20 -36 0 c-25 0 -49 -10 -78 -31z"/>
<path d="M2922 3139 c-8 -12 -9 -19 -1 -19 5 0 8 -4 4 -9 -3 -6 3 -14 12 -20
17 -9 17 -10 1 -16 -9 -4 -23 -3 -30 1 -7 4 -4 -2 6 -14 23 -26 17 -34 -21
-35 l-28 0 25 -11 c40 -17 55 -35 41 -49 -9 -9 -16 -9 -30 0 -15 10 -20 9 -24
-1 -7 -19 1 -26 30 -26 13 0 22 -4 18 -10 -3 -5 -13 -7 -23 -4 -15 5 -15 4 1
-9 22 -19 4 -28 -33 -16 -14 4 -37 10 -52 13 -34 8 -36 22 -6 32 18 5 19 8 7
18 -8 6 -14 22 -14 36 0 18 -9 29 -35 42 -19 9 -42 17 -50 17 -10 0 -8 -3 5
-9 17 -7 16 -9 -10 -10 l-30 -2 30 -7 c44 -9 40 -36 -5 -34 -19 0 -28 -1 -19
-4 11 -3 15 -11 12 -24 -5 -16 -12 -20 -34 -17 -15 3 -26 1 -23 -4 3 -4 24 -9
47 -9 32 -2 35 -3 14 -6 -27 -4 -28 -5 -10 -18 16 -13 15 -14 -17 -12 -19 1
-41 6 -48 11 -7 4 -16 5 -19 2 -10 -10 2 -16 37 -21 18 -2 35 -7 39 -10 3 -4
-3 -5 -14 -3 -15 2 -20 -2 -19 -20 1 -21 -3 -23 -28 -20 -15 3 -28 1 -28 -4 0
-4 8 -8 17 -8 12 0 14 -3 7 -10 -12 -12 -67 12 -62 26 2 5 -12 14 -30 20 -17
5 -37 15 -44 22 -23 23 -31 12 -9 -11 l21 -24 -47 -2 c-38 -1 -51 3 -61 19
-15 24 -12 24 35 5 20 -8 37 -14 39 -13 1 2 -15 18 -37 36 -26 22 -45 31 -58
27 -18 -6 -18 -7 0 -45 11 -22 24 -40 29 -40 6 0 10 -9 10 -21 0 -11 10 -35
22 -52 12 -17 30 -46 39 -64 16 -32 16 -33 -2 -33 -18 0 -23 -15 -22 -57 1 -7
-3 -10 -8 -7 -5 3 -9 18 -9 34 0 24 -11 37 -56 72 -31 23 -51 44 -45 46 6 2
28 -10 48 -27 37 -31 38 -31 41 -10 3 15 -5 29 -20 41 -18 14 -19 17 -4 11 13
-4 17 -3 12 5 -4 7 -13 12 -20 12 -8 0 -20 8 -27 18 -13 15 -12 16 4 3 9 -8
20 -12 22 -9 7 7 -59 73 -142 142 -76 63 -85 70 -138 92 -33 14 -35 13 -35 -6
0 -13 9 -22 25 -26 13 -3 29 -12 36 -20 14 -17 5 -18 -24 -3 -21 11 -21 10 2
-15 18 -19 27 -23 33 -14 6 10 8 10 8 1 0 -8 15 -13 38 -14 26 0 32 -3 18 -8
-17 -7 -16 -9 10 -32 28 -23 36 -69 13 -69 -20 0 -7 -18 36 -50 30 -23 44 -39
40 -49 -4 -10 8 -28 32 -49 l38 -33 -54 35 c-51 35 -81 45 -81 28 0 -4 5 -13
12 -20 9 -9 8 -12 -5 -12 -11 0 -15 -6 -11 -17 5 -16 3 -15 -10 1 -23 28 -32
12 -12 -20 28 -42 8 -41 -32 2 -20 22 -34 36 -29 30 4 -5 7 -17 7 -26 0 -9 9
-25 20 -35 10 -9 18 -22 17 -29 -1 -6 6 -10 16 -8 12 2 17 -4 17 -18 0 -12 -4
-19 -9 -16 -5 4 -11 0 -14 -6 -3 -9 -12 -5 -31 11 -14 14 -29 21 -33 18 -3 -4
-12 -2 -20 4 -7 6 -13 8 -13 3 0 -4 -6 1 -14 12 -9 12 -11 21 -4 25 10 7 -36
59 -52 59 -6 0 -10 7 -10 15 0 8 -7 15 -16 15 -13 0 -12 -6 8 -33 14 -17 30
-56 37 -86 11 -52 8 -77 -7 -55 -4 6 -15 13 -24 17 -21 7 -34 -23 -16 -38 7
-5 12 -20 10 -32 -3 -21 -5 -20 -33 11 -16 19 -29 39 -29 45 0 14 -17 14 -25
1 -4 -6 -11 -8 -16 -4 -5 3 -19 -16 -31 -42 -14 -32 -17 -49 -10 -52 8 -2 7
-14 -5 -35 -15 -29 -17 -30 -24 -12 -4 11 -8 14 -8 6 -1 -8 -3 -12 -6 -9 -3 3
-1 17 4 32 6 14 7 26 2 26 -4 0 -14 11 -21 25 l-13 24 -28 -20 c-16 -11 -29
-17 -29 -13 0 3 -7 1 -15 -6 -8 -7 -15 -18 -14 -24 3 -27 -3 -44 -27 -77 -15
-19 -23 -25 -19 -14 15 43 16 50 5 33 -6 -10 -16 -18 -23 -18 -7 0 -35 -10
-64 -22 -44 -20 -54 -30 -72 -70 -11 -26 -18 -53 -16 -61 3 -7 -6 -23 -19 -35
-14 -11 -34 -39 -45 -61 -12 -22 -25 -42 -31 -46 -13 -8 -13 1 1 27 8 15 8 19
0 14 -18 -12 -12 5 8 22 23 20 64 92 57 99 -10 10 -26 -9 -26 -30 0 -18 -2
-19 -10 -7 -8 13 -12 12 -27 -4 -13 -13 -14 -17 -3 -12 8 4 5 -1 -6 -11 -20
-16 -35 -53 -39 -93 -4 -33 -46 -158 -60 -176 -14 -19 -14 -18 -16 1 -1 11 -1
23 0 28 2 14 -17 7 -23 -9 -3 -8 -2 -12 4 -9 16 10 12 -11 -5 -25 -8 -7 -14
-24 -13 -39 1 -23 -19 -78 -27 -69 -1 1 2 26 7 53 5 28 11 64 12 80 1 17 8 56
15 88 16 73 7 86 -13 21 l-15 -49 4 45 c2 25 6 55 10 68 5 16 3 22 -8 22 -8 0
-17 -6 -20 -12 -2 -7 -8 -10 -12 -6 -4 4 -2 16 6 25 13 16 12 17 -3 5 -9 -7
-18 -9 -20 -5 -3 4 -2 1 0 -7 3 -8 5 -27 4 -42 -1 -21 2 -26 16 -21 9 3 0 -11
-20 -30 -39 -37 -52 -61 -21 -36 17 13 17 13 3 -5 -8 -11 -14 -21 -12 -23 6
-9 -1 -23 -28 -58 -39 -49 -39 -37 0 17 36 49 32 60 -10 29 -34 -25 -41 -18
-8 8 21 18 34 51 19 51 -12 0 -47 -42 -68 -79 -10 -19 -26 -37 -33 -39 -12 -4
-11 -1 2 14 19 22 59 135 52 146 -3 4 3 5 12 1 14 -5 16 -3 11 11 -4 9 -3 15
2 12 4 -3 22 12 40 34 17 22 36 39 41 37 5 -1 20 13 34 32 14 19 26 28 26 20
1 -8 7 1 15 19 8 18 28 47 45 63 31 31 43 62 15 39 -8 -7 -15 -9 -15 -4 0 4
-5 3 -12 -4 -15 -15 -31 -16 -22 0 4 7 3 8 -5 4 -6 -4 -9 -12 -6 -17 4 -5 -5
-14 -19 -20 -16 -7 -26 -23 -30 -44 -4 -17 -19 -46 -34 -63 -15 -18 -35 -44
-45 -58 -11 -14 -21 -23 -25 -20 -3 3 2 14 10 23 8 10 18 25 22 33 3 8 15 29
25 45 10 17 16 36 13 43 -2 6 3 12 12 12 9 0 13 6 10 15 -4 8 -10 12 -15 9 -5
-3 -6 2 -3 10 3 9 10 16 15 16 5 0 25 16 45 35 31 31 31 42 -1 35 -5 -1 -1 8
9 19 22 24 35 29 16 6 -10 -12 -10 -15 3 -15 9 0 25 12 37 27 23 29 63 43 54
18 -5 -11 0 -12 23 -6 57 17 93 41 93 63 l0 21 -23 -21 c-13 -12 -27 -22 -32
-22 -5 0 1 9 14 21 12 12 20 27 17 35 -3 8 -2 14 2 14 5 0 17 7 28 15 17 14
17 14 -11 3 -16 -6 -45 -26 -64 -42 -19 -17 -31 -26 -28 -20 11 19 -22 25 -52
10 -35 -18 -55 -42 -46 -55 3 -6 0 -9 -7 -6 -15 6 -17 43 -3 64 6 11 2 12 -18
7 -16 -4 -27 -1 -30 7 -3 7 -6 5 -6 -5 -1 -10 -6 -18 -12 -18 -7 0 -9 -11 -6
-27 4 -22 -2 -37 -30 -68 -30 -34 -34 -36 -28 -15 6 20 5 23 -5 13 -7 -7 -13
-26 -12 -44 0 -19 -7 -40 -20 -53 l-20 -21 16 33 c11 21 14 38 8 48 -7 12 -12
6 -27 -25 -10 -22 -27 -48 -37 -58 -11 -10 -27 -30 -34 -46 -8 -15 -19 -25
-24 -22 -4 3 -17 -10 -29 -28 -11 -18 -36 -48 -56 -65 -19 -18 -35 -37 -35
-42 0 -5 -16 -35 -36 -66 -27 -41 -39 -53 -45 -43 -5 9 1 30 17 59 14 25 32
63 39 85 l14 40 -20 -24 c-10 -13 -19 -20 -19 -16 0 13 62 90 88 109 24 18 24
18 13 -2 -14 -26 -14 -35 -1 -27 6 3 10 1 10 -5 0 -6 5 -8 11 -4 8 5 8 9 -1
14 -16 10 44 112 73 126 12 5 31 29 44 53 24 46 30 77 13 66 -5 -3 -10 -14
-10 -24 0 -10 -9 -26 -19 -35 -20 -18 -20 -18 0 33 l19 51 -23 -12 c-12 -7
-30 -19 -39 -27 -10 -8 -18 -10 -18 -6 0 5 -7 0 -15 -11 -14 -18 -14 -18 -15
0 0 15 -3 16 -14 6 -8 -6 -12 -18 -9 -25 7 -20 -15 -80 -37 -100 -19 -17 -20
-17 -20 2 0 11 9 28 20 38 20 19 28 41 10 30 -6 -4 -10 7 -10 24 0 37 -12 40
-30 6 -15 -29 -34 -23 -24 8 9 33 45 106 54 112 4 2 8 16 8 30 0 13 -4 22 -9
19 -5 -3 -9 -16 -9 -29 0 -13 -6 -28 -14 -32 -7 -4 -19 -25 -25 -45 -12 -36
-31 -60 -31 -39 0 5 4 13 10 16 5 3 10 13 10 22 0 13 -3 13 -15 3 -20 -16 -19
-12 5 38 24 49 24 52 5 52 -8 0 -24 -18 -35 -39 -11 -22 -24 -42 -30 -46 -5
-3 -17 -21 -26 -40 -8 -18 -23 -36 -32 -40 -12 -4 -10 1 6 18 33 35 27 45 -8
12 -16 -15 -27 -32 -24 -37 5 -8 -9 -12 -33 -9 -7 1 -13 -3 -13 -9 0 -17 -92
-100 -111 -100 -9 0 -22 -7 -29 -15 -7 -8 -9 -15 -5 -15 4 0 0 -11 -9 -25 -24
-36 -20 -42 11 -14 15 13 22 16 15 7 -11 -14 -10 -18 9 -28 14 -8 19 -8 15 -1
-5 7 -1 9 8 5 19 -7 20 -18 6 -45 -8 -14 -7 -19 1 -19 6 0 8 -7 5 -16 -5 -14
-4 -15 9 -4 20 17 19 1 -2 -22 -16 -18 -16 -18 2 -12 15 6 14 1 -8 -28 -15
-19 -27 -42 -27 -51 0 -14 4 -15 28 -6 22 8 25 8 15 -2 -15 -15 -17 -33 -4
-25 5 4 7 -3 4 -14 -4 -14 -1 -20 7 -18 7 2 17 -11 22 -29 6 -23 13 -31 23
-27 10 4 15 0 15 -10 0 -14 4 -15 20 -6 11 6 20 8 20 5 0 -3 11 2 25 11 14 9
25 13 25 9 0 -4 7 -2 15 5 8 7 15 17 15 22 0 6 -7 4 -17 -3 -15 -13 -15 -12 0
18 9 17 22 35 28 39 8 4 8 1 1 -12 -5 -11 -8 -30 -7 -44 1 -14 -6 -37 -16 -52
-19 -27 -25 -58 -11 -58 4 0 20 19 35 42 30 47 35 40 12 -16 -8 -20 -12 -36
-9 -36 3 0 -1 -12 -11 -26 -9 -14 -15 -28 -12 -30 5 -6 42 55 52 85 3 11 13
21 20 21 8 0 20 10 26 23 12 21 11 21 -6 7 -17 -14 -17 -13 -8 5 6 11 21 29
33 40 l23 20 -8 -24 c-16 -53 -62 -137 -72 -134 -6 2 -13 -3 -16 -10 -7 -20
33 -10 52 12 12 14 13 14 6 -4 -15 -41 -17 -55 -7 -55 5 0 12 6 15 14 3 8 16
20 29 27 23 12 23 11 -2 -16 l-25 -28 30 19 c32 21 31 23 8 -33 -5 -13 -3 -15
11 -10 15 6 17 3 13 -12 -3 -11 0 -22 5 -23 6 -2 -8 -12 -30 -22 -48 -22 -67
-58 -55 -105 l8 -31 40 32 c27 23 37 27 32 15 -4 -10 -7 -23 -7 -28 0 -6 -4
-8 -9 -4 -5 3 -13 0 -17 -6 -4 -7 -3 -9 3 -6 6 4 16 0 23 -8 10 -12 17 -10 50
17 37 29 65 79 53 92 -4 3 -1 6 5 6 6 0 9 6 6 14 -3 8 0 17 7 22 9 5 10 2 6
-9 -3 -10 -2 -17 4 -17 6 0 6 -7 -1 -20 -10 -18 -9 -19 15 -8 14 6 25 15 25
20 0 12 28 10 32 -3 2 -6 16 6 31 28 28 41 38 71 12 37 -15 -19 -15 -19 -8 1
5 18 3 17 -22 -5 l-28 -25 18 28 c9 15 14 27 11 27 -16 0 15 38 35 43 21 6 21
6 -2 -19 -12 -13 -19 -25 -16 -25 24 -5 33 -4 38 4 3 4 6 -10 7 -32 1 -26 -3
-43 -12 -48 -8 -4 -17 -21 -20 -37 -3 -16 -10 -34 -17 -40 -8 -7 -7 -3 1 14
13 25 13 25 -8 7 -19 -18 -20 -18 -18 0 1 24 -33 19 -55 -7 -9 -11 -19 -17
-22 -14 -9 9 -47 -16 -47 -31 0 -19 16 -19 24 0 6 17 26 21 26 5 0 -17 -33
-49 -43 -43 -6 4 -7 1 -2 -6 4 -8 -4 -25 -21 -43 -18 -19 -23 -29 -12 -25 18
6 33 -19 17 -29 -6 -3 -8 -12 -6 -18 3 -7 -1 -13 -9 -13 -18 0 -18 6 3 29 9
11 11 18 5 18 -7 0 -12 -4 -12 -10 0 -5 -10 -14 -22 -21 -17 -9 -20 -9 -15 4
9 25 -31 8 -52 -22 -12 -17 -17 -36 -14 -53 3 -16 -2 -36 -12 -50 -15 -19 -16
-20 -11 -3 7 18 5 18 -17 -3 -13 -12 -29 -22 -35 -22 -13 0 -15 -22 -6 -58 5
-16 12 -21 24 -17 13 4 19 -1 24 -21 5 -20 12 -25 26 -21 15 4 20 0 20 -14 0
-10 4 -19 9 -19 5 0 13 -9 16 -20 4 -11 11 -18 16 -15 5 4 16 -1 25 -9 21 -22
31 -20 41 7 6 19 8 16 13 -18 4 -35 8 -40 28 -37 16 2 22 -2 22 -16 0 -14 7
-19 27 -18 26 1 28 5 39 71 22 136 23 146 13 140 -5 -4 -9 -17 -9 -29 0 -13
-11 -35 -25 -50 l-25 -27 0 45 c0 26 4 46 10 46 5 0 14 10 21 21 9 18 8 24 -5
31 -15 8 -15 12 1 41 21 41 28 91 11 80 -17 -10 -48 -11 -48 -2 0 11 30 39 41
39 5 0 9 -5 9 -11 0 -26 18 5 24 41 4 26 11 40 21 40 8 0 15 5 15 11 0 5 -6 7
-13 3 -9 -6 -9 -4 1 7 15 17 16 33 0 23 -16 -10 -60 -15 -56 -6 19 38 48 73
72 88 l29 17 -7 -29 c-11 -48 -13 -83 -4 -78 12 8 9 -14 -6 -44 -12 -23 -12
-30 -1 -45 7 -10 17 -18 22 -18 4 0 7 -11 6 -25 -2 -32 10 -31 25 3 l11 28 -3
-32 c-2 -30 -1 -32 14 -18 9 8 19 12 23 9 6 -7 12 14 22 81 l5 40 -19 -22
c-22 -26 -33 -30 -25 -8 4 8 2 15 -4 15 -17 0 -20 71 -3 87 12 13 16 13 19 2
11 -42 12 -42 30 -27 9 8 25 18 36 22 18 6 18 5 1 -21 -10 -16 -12 -22 -4 -15
20 18 31 14 19 -8 -6 -11 -16 -17 -25 -14 -16 7 -21 -21 -6 -30 5 -4 3 -32 -5
-68 -17 -73 -8 -90 30 -55 19 18 27 38 31 73 8 75 19 115 30 112 14 -5 14 -39
-1 -75 -8 -18 -14 -51 -14 -74 0 -37 2 -40 16 -28 14 11 15 10 12 -11 -2 -19
-9 -25 -27 -25 -20 0 -29 -13 -57 -75 -18 -41 -34 -71 -34 -65 0 24 -40 -68
-40 -92 l1 -28 14 25 c8 14 14 32 15 41 0 8 11 26 24 38 14 13 26 33 28 44 5
32 25 31 26 -2 0 -17 -7 -36 -19 -47 -10 -9 -19 -27 -19 -40 0 -12 -5 -35 -11
-50 -11 -30 -4 -78 10 -70 5 3 4 -15 0 -41 -5 -25 -7 -48 -5 -50 7 -7 43 82
49 119 4 26 2 37 -6 35 -18 -3 -12 72 6 86 8 7 20 21 26 32 11 19 11 18 5 -4
-4 -16 -3 -21 5 -17 7 5 11 -3 11 -21 l1 -28 24 30 c14 17 25 41 26 55 1 32
14 67 21 54 2 -5 6 -26 7 -47 1 -22 9 -49 17 -62 12 -19 13 -31 4 -67 -6 -24
-15 -52 -20 -63 -19 -41 -26 -91 -18 -125 8 -39 1 -117 -13 -126 -5 -3 -9 -14
-9 -25 0 -29 -17 -23 -29 12 -7 22 -15 29 -26 25 -10 -4 -15 1 -15 14 0 24 21
70 31 70 8 0 39 63 39 77 0 3 -6 3 -14 0 -8 -3 -17 -1 -20 6 -3 9 -8 8 -15 -3
-14 -19 -14 -43 -1 -35 6 3 10 2 10 -3 0 -6 -7 -13 -16 -16 -9 -3 -14 -12 -11
-19 2 -6 -2 -16 -9 -22 -13 -9 -22 -39 -23 -77 -1 -10 -6 -18 -12 -18 -7 0 -9
9 -6 21 5 19 3 19 -24 -7 -24 -23 -29 -25 -29 -10 0 12 -5 16 -15 12 -8 -3
-15 -1 -15 5 0 6 -4 7 -10 4 -6 -4 -8 5 -5 22 3 15 1 35 -4 43 -9 13 -12 12
-26 -5 -16 -20 -16 -20 -10 3 6 22 -8 31 -20 11 -5 -6 -12 -4 -20 8 -12 16
-14 13 -26 -25 -15 -52 -34 -56 -24 -6 4 24 3 34 -4 29 -6 -3 -11 -2 -11 4 0
16 -40 24 -55 11 -12 -10 -15 -9 -15 4 0 23 -16 20 -34 -6 -17 -24 -19 -20
-16 24 1 22 -2 27 -14 22 -12 -4 -16 0 -16 15 0 12 -6 21 -15 21 -8 0 -15 -3
-15 -7 0 -5 -14 -16 -30 -25 -18 -10 -30 -13 -30 -6 0 7 -16 9 -45 6 -25 -3
-45 -1 -45 4 0 5 -10 6 -22 2 -20 -6 -21 -5 -9 10 8 9 9 16 3 16 -6 0 -13 -4
-17 -10 -3 -5 -12 -7 -19 -4 -8 3 -17 1 -20 -5 -4 -5 2 -12 13 -16 11 -3 20
-14 20 -23 0 -9 3 -36 7 -59 5 -35 4 -43 -8 -43 -17 0 -50 -74 -42 -94 3 -7
-7 -21 -21 -30 -21 -14 -24 -20 -14 -32 6 -7 9 -23 6 -34 -9 -34 43 -113 117
-179 104 -94 141 -111 259 -127 131 -17 126 -18 136 9 9 21 9 21 17 2 4 -11
12 -23 16 -26 15 -10 362 -3 383 8 11 6 55 9 98 8 42 -2 80 1 83 6 10 16 22 9
17 -10 -4 -16 3 -19 59 -26 93 -10 289 -5 317 8 15 8 46 55 88 137 35 69 77
146 93 172 16 25 32 64 36 85 3 21 11 43 16 49 12 16 -32 83 -57 85 -17 1 -17
2 -2 6 19 5 22 20 8 42 -5 8 -14 10 -22 6 -9 -6 -11 -3 -6 9 4 10 7 19 7 21 0
2 13 -4 30 -13 17 -10 32 -28 36 -45 3 -17 12 -27 24 -27 28 0 40 -23 33 -66
-6 -40 -33 -94 -133 -269 -52 -89 -78 -145 -68 -145 2 0 48 11 102 25 169 43
298 42 401 -1 41 -17 285 -9 407 12 51 10 152 20 223 24 72 4 148 13 170 19
22 7 50 15 62 18 24 6 92 75 94 96 2 23 5 32 22 90 14 44 15 62 6 78 -6 12 -9
31 -6 43 3 11 13 50 22 86 9 36 14 75 11 86 -4 13 0 27 9 34 7 6 21 35 31 63
9 29 38 94 65 146 39 73 47 96 38 107 -17 20 -39 18 -33 -3 3 -12 -2 -9 -13 6
-10 14 -26 34 -36 45 -18 20 -18 20 -1 -7 9 -15 13 -27 9 -27 -5 0 0 -9 10
-20 22 -24 1 -28 -29 -5 -10 8 -23 12 -28 9 -5 -3 -16 0 -24 7 -26 21 -26 2 0
-40 29 -45 36 -92 12 -72 -19 16 -30 -13 -15 -41 8 -16 8 -19 -1 -13 -18 11
-29 -14 -24 -54 l4 -36 -31 43 c-17 24 -34 40 -37 37 -4 -3 0 -10 7 -14 11 -7
11 -15 2 -41 -6 -18 -9 -36 -6 -40 2 -4 -2 -15 -9 -26 -8 -10 -11 -25 -8 -33
3 -9 1 -12 -6 -7 -7 4 -12 2 -12 -6 0 -10 -2 -10 -9 1 -13 21 -34 2 -28 -26 3
-18 1 -23 -9 -19 -8 3 -14 4 -14 3 0 -1 4 -16 9 -33 5 -18 5 -37 0 -45 -7 -11
-9 -11 -9 2 0 9 -8 27 -18 39 -18 22 -18 22 -12 -34 l6 -56 -22 21 -21 20 -7
-23 c-3 -13 -6 -33 -6 -45 0 -14 -6 -23 -15 -23 -20 0 -55 -40 -55 -64 0 -17
-2 -18 -10 -6 -6 10 -10 11 -10 3 0 -7 -7 -13 -15 -13 -10 0 -15 -10 -16 -27
0 -26 -1 -26 -9 -7 -15 38 -34 42 -27 6 5 -24 3 -30 -8 -26 -10 4 -12 0 -8
-18 3 -13 3 -20 -1 -17 -4 4 -18 -3 -32 -16 -24 -22 -68 -37 -79 -27 -9 10
-45 9 -45 0 0 -17 -21 4 -31 29 -5 14 -12 24 -14 21 -3 -2 1 -18 7 -35 9 -25
9 -35 -1 -47 -7 -9 -18 -13 -23 -10 -5 3 -18 -2 -28 -11 -10 -9 -24 -14 -31
-9 -7 4 -10 3 -6 -2 3 -6 1 -16 -4 -24 -8 -13 -10 -13 -18 0 -8 12 -13 10 -32
-10 l-22 -25 6 40 c4 22 7 48 7 58 0 32 20 18 21 -15 1 -22 3 -26 6 -13 3 11
9 25 14 31 5 6 5 14 1 18 -4 4 -8 12 -8 17 -1 5 -2 14 -3 19 0 6 -8 10 -16 10
-8 0 -15 6 -16 13 0 6 -2 23 -3 37 -7 60 18 66 40 10 9 -22 20 -40 25 -40 5 0
9 -7 9 -15 0 -21 18 -19 23 3 4 16 5 16 6 0 1 -22 21 -24 21 -3 0 8 5 15 10
15 6 0 10 17 10 38 l0 37 21 -25 20 -25 -7 45 c-4 25 -8 69 -9 99 -1 38 -6 56
-19 63 -9 5 -14 13 -11 18 3 4 -13 28 -35 51 -27 30 -40 52 -40 72 0 33 25 65
34 44 3 -6 4 2 0 18 -3 17 -6 39 -7 50 -1 11 -6 26 -10 32 -16 25 4 34 24 11
l19 -23 -7 35 c-6 33 -5 34 13 20 10 -8 22 -19 26 -25 5 -6 8 -3 8 6 0 9 -11
25 -25 35 -28 21 -50 73 -36 87 10 10 61 -19 61 -34 0 -5 5 -9 11 -9 6 0 -3
17 -19 38 -22 27 -28 42 -21 53 7 12 9 12 9 -2 0 -9 16 -33 35 -55 29 -34 34
-36 35 -18 0 17 5 21 25 19 14 -2 25 1 25 5 0 13 -23 25 -40 22 -9 -1 -19 11
-26 33 -12 39 -9 43 18 18 12 -10 18 -12 18 -4 0 7 4 10 9 7 11 -7 9 44 -2 62
-5 6 -13 12 -20 12 -8 0 -8 -3 1 -12 14 -14 16 -38 4 -38 -5 0 -19 10 -32 22
-13 13 -31 22 -40 21 -20 -3 -42 16 -59 52 -11 23 -15 26 -18 13 -8 -33 -35
-15 -46 30 -6 26 -1 28 20 7 8 -9 20 -14 26 -12 13 4 60 -39 63 -59 4 -24 14
-30 24 -14 6 10 12 11 22 2 18 -14 40 0 32 21 -11 29 3 19 26 -19 12 -19 25
-33 28 -30 2 3 -1 12 -8 21 -7 8 -10 22 -6 30 3 10 -4 26 -18 40 -29 29 -40
65 -20 65 16 0 18 28 5 63 -12 32 -2 47 27 36 24 -9 30 -22 8 -17 -27 5 -21
-9 14 -38 19 -16 29 -21 21 -11 -8 10 -11 20 -7 24 10 10 17 -2 20 -33 3 -30
21 -40 44 -26 9 7 10 15 3 35 -8 20 -7 27 2 27 6 0 -1 11 -18 25 l-30 24 35
-9 c19 -6 36 -10 37 -10 10 0 0 40 -12 50 -19 16 -20 60 -1 60 8 0 13 -6 12
-12 0 -7 4 -15 9 -17 6 -3 17 -14 26 -24 8 -11 21 -18 27 -16 8 3 1 18 -19 41
-20 25 -24 36 -13 31 12 -4 15 -2 12 8 -5 16 -75 57 -99 58 -19 1 -55 38 -46
47 4 4 9 -1 13 -10 3 -9 14 -16 23 -16 9 -1 33 -7 54 -14 20 -8 37 -10 37 -6
0 11 -62 35 -81 32 -19 -3 -33 35 -16 45 6 4 2 9 -11 14 -21 8 -40 7 -77 -6
-17 -6 -16 -4 4 13 23 19 23 20 5 25 -14 3 -12 5 9 6 15 0 27 -3 27 -9 0 -5 3
-9 8 -8 13 4 52 -13 52 -22 0 -5 9 -14 21 -20 20 -11 20 -11 4 14 -11 17 -13
26 -6 26 7 0 9 5 6 10 -4 6 -14 9 -22 8 -10 -2 -17 5 -18 20 -1 15 4 22 17 22
23 0 23 13 1 48 -15 23 -15 25 -2 14 9 -7 24 -10 33 -6 15 6 20 -5 19 -44 -1
-10 2 -10 14 0 10 8 11 14 4 16 -18 6 -12 22 9 22 10 0 23 7 27 15 7 12 14 12
43 2 19 -7 44 -18 56 -24 17 -10 21 -9 21 5 0 9 -9 27 -20 40 -24 26 -81 30
-95 7 -5 -10 -15 -13 -25 -9 -9 3 -14 10 -11 15 3 5 -4 9 -16 9 -12 0 -19 4
-15 10 4 6 15 6 31 0 31 -12 34 -12 34 -1 0 4 -15 13 -32 19 l-33 10 40 -2
c22 -2 48 -6 58 -11 9 -4 34 -4 55 1 20 4 51 7 67 5 28 -2 29 -2 11 12 -14 10
-37 13 -78 10 -38 -3 -58 -1 -58 6 0 16 -107 14 -113 -1 -3 -9 -12 -6 -28 9
-16 14 -29 19 -38 14 -11 -7 -11 -9 0 -13 8 -3 11 -8 7 -12 -3 -4 -18 0 -32 9
-18 12 -26 26 -26 47 0 21 -6 31 -20 35 -21 6 -24 12 -12 29 11 17 46 10 69
-13 15 -15 18 -24 10 -32 -6 -6 -7 -11 -1 -11 5 0 3 -4 -5 -9 -9 -6 -10 -11
-2 -15 6 -4 11 -2 11 3 0 15 27 14 33 -1 2 -7 8 -10 12 -6 4 4 2 15 -6 25 -9
11 -10 14 -1 9 21 -12 33 3 21 26 -10 18 -9 20 5 15 10 -4 14 -3 11 2 -7 13
16 26 24 14 3 -6 13 -13 21 -16 10 -4 8 -6 -6 -6 -15 -1 -23 -9 -27 -28 -7
-34 2 -43 28 -33 13 6 15 9 5 9 -12 1 -13 3 -1 10 7 5 26 4 44 -3 24 -9 31 -8
35 2 3 10 7 10 18 1 10 -8 14 -8 14 0 0 6 7 11 15 11 28 0 15 18 -25 34 -22 9
-40 20 -40 25 0 5 -14 12 -30 16 -32 7 -59 40 -38 47 9 3 9 6 0 12 -7 4 -12 2
-12 -3 0 -6 -7 -11 -16 -11 -8 0 -13 4 -9 9 7 13 -26 30 -45 24 -9 -3 -7 1 5
11 12 9 15 15 7 16 -7 0 -11 3 -9 8 3 4 -17 7 -43 7 -27 0 -46 -3 -43 -7 2 -5
11 -8 18 -8 9 0 12 -6 9 -15 -9 -21 -19 -19 -33 9 -9 17 -10 29 -3 42 13 25
-4 48 -40 58 -35 8 -36 -6 -4 -24 40 -21 41 -41 3 -33 l-32 6 45 -41 c24 -23
52 -42 62 -42 10 0 18 -7 18 -15 0 -18 31 -20 48 -3 9 9 16 9 28 -4 9 -9 13
-21 9 -28 -6 -9 -9 -9 -15 0 -5 8 -15 10 -26 6 -12 -4 -14 -10 -8 -14 16 -10
13 -42 -4 -42 -8 0 -12 6 -9 13 4 10 -2 13 -19 9 -17 -3 -24 0 -24 11 0 9 -7
20 -16 25 -9 5 -16 13 -16 18 -1 15 -38 58 -44 51 -3 -3 1 -19 9 -36 11 -23
12 -33 4 -38 -7 -3 -9 -3 -5 1 3 4 -1 16 -10 27 -9 11 -18 24 -18 29 -1 6 -2
15 -3 22 -1 9 -4 9 -12 1 -13 -13 -39 -6 -39 9 0 6 7 8 15 5 8 -4 17 -2 20 2
2 5 -3 11 -13 14 -9 2 -26 8 -36 13 -15 5 -17 4 -11 -6 5 -9 4 -11 -3 -6 -7 4
-12 14 -12 22 0 8 4 13 9 10 5 -4 21 -2 35 4 17 6 26 6 26 0 0 -6 5 -10 10
-10 6 0 5 8 -2 20 -7 11 -18 18 -25 16 -7 -3 -15 -1 -17 3 -3 5 -17 9 -31 9
-18 0 -25 -5 -21 -14 3 -8 -2 -15 -12 -16 -9 0 -24 -2 -32 -3 -8 -1 -23 3 -33
8 -10 5 -21 7 -23 4 -3 -2 20 -19 51 -38 56 -34 63 -43 45 -54 -15 -9 -12 -68
4 -90 12 -17 15 -17 35 -3 15 11 18 17 10 20 -8 3 -13 19 -12 41 1 20 -4 37
-10 37 -6 0 -8 2 -5 5 9 9 78 -36 90 -59 10 -19 10 -20 -5 -8 -9 8 -24 12 -34
9 -17 -4 -17 -4 1 -12 27 -12 70 -54 63 -62 -4 -3 -15 0 -24 8 -10 7 -5 -1 10
-18 17 -18 24 -33 18 -37 -5 -4 -8 -14 -5 -24 5 -16 5 -16 -9 1 -8 9 -21 17
-29 17 -8 0 -18 3 -22 8 -4 4 -26 12 -49 19 -29 7 -35 11 -18 12 20 1 21 3 11
16 -7 8 -16 13 -20 10 -4 -2 -18 8 -32 24 -26 32 -84 55 -76 30 3 -8 11 -14
18 -14 7 0 15 -6 18 -13 2 -8 -2 -10 -14 -5 -11 4 -15 3 -10 -5 4 -7 -3 -10
-21 -8 -24 1 -28 6 -25 28 2 19 -3 28 -18 33 -12 4 -20 15 -20 28 0 22 1 22
19 -2 l19 -25 -5 27 c-3 14 -13 28 -22 30 -10 3 -8 5 8 6 17 1 21 5 17 17 -3
9 -6 21 -6 27 0 7 -4 6 -9 -2 -7 -11 -13 -12 -23 -3 -11 9 -14 3 -15 -30 -1
-23 2 -49 8 -60 14 -26 0 -44 -17 -21 -13 17 -13 17 -14 0 0 -10 7 -20 15 -24
9 -3 15 -15 13 -26 -2 -15 5 -26 25 -35 20 -10 27 -20 27 -42 0 -38 -10 -61
-22 -54 -6 4 -9 1 -7 -5 3 -7 7 -11 10 -9 3 2 13 -3 22 -11 9 -7 24 -11 32 -7
9 3 13 2 10 -4 -4 -6 4 -14 17 -19 18 -8 19 -10 5 -10 -10 -1 -27 4 -39 10
-21 11 -21 5 0 -50 4 -10 1 -11 -14 -2 -36 20 -64 49 -64 65 0 9 -4 16 -10 16
-18 0 -32 40 -19 56 10 12 8 19 -9 35 l-22 20 0 -24 c0 -13 -3 -26 -6 -29 -8
-8 -45 3 -39 11 2 4 -2 8 -10 8 -10 0 -12 -8 -8 -29 8 -41 -12 -35 -30 9 -17
43 -13 63 12 58 16 -3 17 2 11 34 -4 21 -10 43 -14 49 -4 7 -3 12 2 12 8 0 21
-19 27 -40 8 -31 18 -50 26 -50 11 0 11 -2 0 38 -8 25 -7 32 5 32 8 0 14 -6
14 -14 0 -8 7 -16 15 -20 11 -4 15 1 15 19 0 13 -5 27 -10 30 -10 6 -50 79
-50 91 0 3 7 0 16 -7 14 -11 16 -10 14 6 -4 33 0 41 10 25 6 -9 10 -10 10 -3
0 6 -4 15 -10 18 -15 9 -12 25 5 25 20 0 19 30 -1 59 -16 23 -16 23 6 11 18
-10 25 -8 43 7 17 15 19 15 14 2 -6 -18 10 -39 30 -39 10 0 11 5 3 19 -5 11
-10 22 -10 25 0 8 65 -27 75 -42 6 -7 15 -13 20 -12 21 5 36 -1 30 -10 -3 -5
-1 -10 4 -10 6 0 11 7 11 15 0 8 8 15 18 16 9 0 2 5 -15 10 -36 11 -63 47 -43
59 8 5 7 11 -4 23 -22 21 -20 26 7 20 21 -6 21 -5 -3 18 -32 30 -56 76 -45 86
4 5 10 3 12 -3 12 -35 32 -47 79 -48 27 -1 56 -6 64 -11 8 -5 22 -8 30 -7 9 1
20 -10 27 -28 13 -34 2 -40 -31 -15 -16 12 -22 12 -28 2 -6 -9 -12 -8 -22 6
-7 9 -18 17 -25 17 -13 0 -15 -26 -1 -35 5 -3 7 -12 3 -20 -3 -8 0 -15 5 -15
6 0 18 -18 28 -40 17 -39 40 -46 31 -9 -4 13 0 19 11 19 12 0 13 3 4 12 -16
16 -15 38 1 38 6 0 19 -15 27 -33 8 -17 25 -37 37 -43 17 -8 20 -13 11 -22 -8
-8 -8 -12 -1 -12 5 0 22 -11 37 -25 34 -31 56 -33 49 -4 -5 18 -3 20 16 14 25
-8 27 0 5 23 -11 10 -13 17 -5 20 6 2 18 -4 27 -12 17 -18 28 -21 19 -6 -3 6
0 10 7 10 7 0 3 6 -8 13 -73 42 -95 63 -87 84 3 7 1 13 -5 13 -14 0 -10 32 6
49 12 12 10 17 -12 30 -14 9 -26 20 -26 24 0 5 11 2 25 -7 30 -20 56 -21 29
-1 -13 10 -15 14 -5 15 11 0 11 4 -2 18 -10 10 -14 22 -10 27 5 4 2 5 -4 1 -7
-4 -21 -2 -30 3 -15 9 -13 10 13 11 17 0 37 -7 44 -15 7 -8 20 -15 30 -15 10
0 31 -7 46 -15 36 -18 69 -20 36 -2 -12 7 -19 16 -16 20 4 4 -3 7 -16 7 -12 0
-28 7 -34 15 -9 13 -32 20 -71 25 -5 0 1 7 14 14 24 13 24 14 3 25 -11 6 -26
11 -32 11 -6 0 -24 10 -41 22 -24 18 -29 27 -24 50 5 19 3 28 -6 28 -7 0 -9 3
-5 7 4 5 14 -1 22 -11 7 -11 17 -17 20 -13 4 4 -4 16 -17 27 -19 15 -21 22
-11 28 10 7 5 12 -18 22 -23 9 -28 15 -18 21 9 6 7 9 -8 9 -12 0 -27 7 -34 15
-11 13 -8 15 21 15 l34 0 -38 27 c-27 19 -34 29 -25 35 10 6 10 8 1 8 -7 0
-13 5 -13 11 0 6 7 8 16 5 14 -5 15 -4 4 9 -10 12 -9 16 4 21 25 10 19 27 -8
22 -14 -3 -31 -1 -38 3 -10 7 -9 9 4 9 9 0 23 3 31 6 9 3 24 -3 36 -15 15 -15
26 -18 48 -11 l28 8 -27 1 c-28 1 -41 21 -14 21 8 0 18 5 22 12 5 8 2 9 -11 4
-32 -12 -157 -17 -150 -6 3 5 0 10 -7 10 -9 0 -9 3 2 10 12 8 11 11 -8 16 -19
5 -20 9 -10 23 7 9 8 13 4 9 -5 -4 -14 -4 -20 2 -8 6 -16 2 -24 -11z m63 -147
c-3 -3 -11 0 -18 7 -9 10 -8 11 6 5 10 -3 15 -9 12 -12z m-205 -22 c0 -5 -16
-10 -36 -10 -21 0 -33 4 -29 10 3 6 19 10 36 10 16 0 29 -4 29 -10z m124 -108
c3 -5 2 -18 -1 -30 -4 -17 -11 -21 -30 -17 -14 2 -28 7 -32 11 -3 4 3 4 14 0
17 -6 17 -4 -4 18 l-24 26 36 0 c20 0 38 -4 41 -8z m-361 -43 l22 -21 -22 11
c-12 6 -25 16 -28 21 -11 17 5 11 28 -11z m470 5 c26 -13 33 -21 29 -36 -3
-11 1 -24 8 -28 7 -4 14 -20 16 -34 3 -34 -27 -35 -58 -4 -20 20 -21 23 -5 26
19 4 23 17 7 27 -17 10 -52 65 -41 65 6 0 26 -7 44 -16z m-165 -59 c21 -33 21
-35 3 -35 -15 0 -18 -5 -14 -21 6 -20 4 -20 -17 -8 -12 8 -31 19 -42 25 -15 9
-16 13 -6 17 9 4 8 6 -4 6 -9 1 -20 6 -23 11 -4 7 3 8 21 4 24 -6 26 -5 21 15
-9 36 34 27 61 -14z m132 20 c8 -9 8 -15 2 -15 -18 0 -42 12 -42 21 0 14 26
10 40 -6z m-310 -56 c0 -6 -4 -7 -10 -4 -5 3 -10 11 -10 16 0 6 5 7 10 4 6 -3
10 -11 10 -16z m316 -18 c-4 -6 -14 -7 -23 -4 -15 6 -14 7 3 13 22 9 29 6 20
-9z m-296 -10 c0 -6 20 -13 45 -17 25 -3 48 -10 51 -15 3 -5 -1 -6 -9 -3 -11
4 -13 -1 -9 -22 5 -25 3 -27 -24 -21 -28 5 -28 5 -9 -12 22 -18 31 -41 16 -41
-5 0 -7 -10 -3 -22 5 -21 4 -22 -14 -8 -37 28 -55 50 -49 60 4 6 12 4 22 -5
24 -24 28 -9 4 16 -11 12 -18 25 -16 29 2 4 -2 16 -10 26 -11 15 -14 16 -15 4
0 -13 -2 -13 -9 -1 -6 9 -5 19 2 27 14 16 27 18 27 5z m388 -25 c7 -4 9 -12 6
-18 -4 -6 1 -17 10 -24 11 -8 13 -14 7 -19 -15 -9 -14 -52 2 -62 14 -9 30 -43
20 -43 -3 0 -12 8 -20 18 -8 9 -12 11 -8 5 3 -7 1 -13 -5 -13 -6 0 -13 7 -16
15 -3 8 -15 17 -26 21 -13 4 -17 9 -9 13 13 8 -13 71 -29 71 -12 0 -32 38 -26
49 6 9 74 -1 94 -13z m-154 0 c15 -7 27 -18 27 -22 0 -5 10 -14 22 -21 22 -12
22 -12 1 -13 -12 0 -35 14 -53 30 -43 42 -43 50 3 26z m257 3 c21 1 40 -3 44
-9 5 -8 -4 -9 -29 -5 -37 7 -46 -1 -24 -23 23 -23 -10 -10 -61 24 -9 7 12 23
22 17 6 -4 28 -6 48 -4z m-361 -19 c0 -5 -2 -10 -4 -10 -3 0 -8 5 -11 10 -3 6
-1 10 4 10 6 0 11 -4 11 -10z m-141 -20 c-13 -9 -39 -2 -39 10 0 4 12 5 26 2
17 -3 22 -7 13 -12z m-269 -12 c0 -13 -23 -5 -28 10 -2 7 2 10 12 6 9 -3 16
-11 16 -16z m226 -74 c-5 -17 -1 -35 9 -50 19 -29 35 -31 28 -4 -3 12 1 22 11
26 9 3 13 11 9 18 -4 6 1 5 10 -3 16 -12 17 -27 5 -61 -3 -8 -11 -35 -18 -60
-11 -41 -13 -43 -26 -25 -8 10 -14 29 -14 41 0 22 -28 60 -37 50 -3 -2 0 -14
7 -25 6 -12 8 -21 4 -21 -3 0 -1 -7 6 -15 7 -9 10 -18 6 -22 -3 -4 2 -16 13
-27 19 -22 36 -86 23 -86 -5 0 -14 6 -21 13 -10 10 -11 9 -6 -5 6 -14 2 -18
-16 -18 -14 0 -19 -3 -13 -8 6 -4 18 -21 27 -39 14 -27 15 -32 2 -37 -10 -3
-15 -19 -15 -46 0 -29 -4 -39 -12 -34 -8 5 -9 0 -4 -17 16 -54 18 -89 7 -89
-6 0 -11 -9 -11 -20 0 -11 -5 -20 -11 -20 -7 0 -8 -7 -4 -17 4 -10 9 -29 10
-42 2 -12 12 -33 23 -45 11 -11 22 -28 26 -36 3 -8 4 5 1 29 l-6 43 31 -4 c28
-4 31 -3 26 18 -4 13 -2 25 3 28 4 3 7 18 5 33 l-4 28 12 -27 c12 -28 28 -38
28 -17 0 5 5 7 10 4 6 -3 7 -17 4 -30 -4 -17 0 -27 15 -37 12 -7 21 -20 21
-29 0 -19 56 -62 73 -56 7 2 20 -2 30 -11 11 -10 17 -11 18 -4 1 7 3 17 4 22
1 6 3 13 4 17 0 4 6 2 13 -5 15 -15 28 -15 28 -1 0 6 6 16 13 23 18 17 46 -14
36 -40 -11 -28 -11 -66 1 -59 6 3 10 -2 10 -12 0 -11 5 -24 12 -31 9 -9 7 -12
-12 -12 -22 0 -22 -1 -7 -18 10 -10 17 -29 16 -43 0 -13 -3 -18 -6 -11 -2 6
-12 12 -21 13 -10 0 -12 3 -5 6 10 3 10 9 0 24 -9 15 -9 23 1 39 14 23 16 33
3 26 -5 -3 -25 5 -45 19 -34 23 -36 24 -36 5 0 -17 -4 -19 -27 -14 -22 6 -25
4 -20 -10 6 -14 3 -16 -14 -11 -19 6 -20 5 -9 -14 6 -12 16 -19 21 -15 6 3 13
-3 16 -15 3 -11 9 -19 13 -16 4 3 10 -9 12 -26 3 -19 1 -28 -6 -26 -15 6 -35
-38 -26 -54 10 -15 1 -41 -11 -33 -5 3 -9 19 -9 35 0 17 -5 39 -10 50 -7 13
-7 19 0 19 5 0 10 -4 10 -10 0 -5 4 -10 9 -10 15 0 1 35 -20 48 -16 10 -19 9
-19 -3 0 -8 -4 -15 -10 -15 -5 0 -10 9 -10 19 0 30 -19 35 -29 9 -10 -23 -10
-22 -10 5 -1 17 -6 27 -16 27 -8 0 -15 7 -15 15 0 8 -5 15 -11 15 -6 0 -8 -7
-5 -16 3 -9 9 -28 13 -42 6 -24 5 -26 -10 -13 -10 7 -17 19 -17 26 0 6 -9 20
-19 29 -14 13 -20 14 -23 4 -4 -10 -9 -8 -23 5 -13 13 -20 15 -25 7 -6 -9 -13
-9 -28 -1 -17 9 -21 8 -20 -6 1 -10 -1 -30 -5 -44 -5 -20 -1 -31 19 -50 21
-20 28 -21 45 -11 23 15 39 8 39 -16 0 -14 2 -14 9 -3 6 10 11 5 16 -19 5 -23
3 -35 -6 -41 -10 -6 -15 -2 -17 14 -3 21 -27 47 -44 47 -15 0 -8 -27 12 -45
15 -14 17 -21 9 -32 -9 -10 -7 -13 10 -13 25 0 25 -3 7 -55 -18 -50 -30 -51
-34 -2 -2 20 -7 37 -13 37 -5 0 -9 -4 -9 -10 0 -18 -22 -10 -27 10 -7 26 -19
26 -26 0 -3 -13 1 -21 16 -26 30 -9 56 -45 56 -74 l0 -25 -19 23 c-12 14 -21
18 -25 12 -5 -7 -11 -5 -20 6 -11 16 -12 14 -13 -12 -1 -43 -19 -125 -21 -94
-2 35 -16 57 -24 37 -3 -8 -3 -25 0 -36 3 -12 1 -21 -6 -21 -6 0 -11 9 -11 19
0 27 -28 35 -32 9 l-3 -20 -25 21 c-14 11 -18 19 -9 15 14 -4 16 1 13 27 -4
36 -14 51 -21 32 -9 -26 -31 -12 -47 32 -21 53 -32 57 -38 14 -4 -22 0 -33 14
-40 10 -5 18 -17 18 -26 0 -14 -3 -14 -26 1 -24 17 -26 16 -45 -8 -17 -21 -24
-24 -40 -16 -15 8 -19 7 -19 -5 0 -20 -43 -20 -60 0 -7 9 -10 29 -7 49 5 29 3
33 -16 32 -19 -1 -23 -9 -29 -56 -7 -64 -3 -77 10 -29 l8 34 13 -24 c15 -27
23 -91 12 -91 -3 0 -8 -12 -9 -27 -3 -35 -12 -43 -12 -10 0 14 -3 33 -6 41 -5
14 -9 13 -26 -6 l-20 -23 7 75 c3 41 8 85 11 97 3 17 1 21 -11 17 -12 -5 -15
5 -16 52 -1 36 -4 47 -7 29 -4 -27 -5 -28 -13 -10 -7 14 -8 9 -4 -20 3 -28 2
-35 -5 -25 -5 8 -10 25 -10 38 0 41 -20 12 -22 -31 l-1 -42 -4 36 c-2 20 -13
45 -24 54 -18 18 -19 17 -20 -16 -1 -23 -3 -27 -6 -11 -5 26 -18 28 -32 5 -9
-16 -10 -15 -11 7 0 19 -2 22 -10 10 -8 -13 -9 -13 -14 0 -12 40 -16 42 -11 8
6 -41 -12 -90 -25 -69 -4 8 -11 2 -20 -18 -20 -49 -30 -36 -13 17 21 62 19 85
-6 120 -23 32 -27 52 -11 52 6 0 10 -8 10 -19 0 -21 23 -45 33 -34 4 3 7 14 7
24 0 10 5 21 12 25 7 5 9 1 6 -13 -4 -13 2 -27 13 -37 18 -15 20 -15 30 11 6
16 8 48 6 73 -3 25 -3 39 0 33 11 -28 25 -11 21 25 -3 20 -2 48 2 62 5 18 9 6
15 -47 11 -101 33 -97 26 5 -2 17 2 32 7 32 5 0 8 25 7 56 -2 31 -1 54 2 51
10 -11 20 -132 12 -148 -6 -11 -4 -21 6 -29 14 -11 15 0 12 99 -3 111 8 134
15 32 5 -59 23 -79 34 -36 4 18 1 32 -12 46 -14 15 -16 24 -7 37 5 10 7 26 3
37 -15 40 -22 123 -11 130 6 3 11 -1 11 -9 0 -8 4 -17 9 -21 6 -3 9 5 9 17 -5
82 11 128 26 76 5 -18 8 -20 15 -9 7 10 12 8 25 -10 l16 -23 0 22 c0 13 6 22
15 22 11 0 15 11 15 36 0 27 4 35 14 31 8 -3 19 0 25 7 25 30 134 6 115 -25
-6 -11 -1 -11 20 -3 13 5 12 9 -9 26 -28 22 -33 56 -10 64 10 4 13 13 10 24
-4 13 1 19 20 24 14 4 23 11 20 17 -4 5 -1 16 5 25 10 12 16 12 28 2 16 -14
16 -14 -4 37 -4 10 0 15 11 15 12 0 15 5 10 21 -5 15 -4 19 4 15 22 -14 31 5
14 31 -17 26 -17 26 6 14 28 -16 34 -10 35 34 1 21 5 30 11 24 18 -18 31 -8
32 27 1 45 7 50 39 35 23 -10 26 -9 21 4 -4 8 -2 15 4 15 7 0 9 -10 5 -26z
m320 -22 c-9 -8 -26 10 -26 26 1 15 2 15 15 -2 8 -11 13 -21 11 -24z m-63 -29
c-7 -2 -19 -2 -25 0 -7 3 -2 5 12 5 14 0 19 -2 13 -5z m-33 -33 c0 -11 6 -20
14 -20 7 0 21 -11 30 -25 16 -24 16 -25 -8 -25 -16 0 -32 10 -44 28 -22 31
-25 62 -5 62 7 0 13 -9 13 -20z m-85 -29 c-3 -11 -1 -22 5 -26 12 -8 13 -25 1
-25 -13 0 -22 30 -16 51 4 11 9 19 11 19 3 0 3 -9 -1 -19z m-838 -13 c-3 -8
-6 -5 -6 6 -1 11 2 17 5 13 3 -3 4 -12 1 -19z m1303 -58 c0 -5 -4 -10 -10 -10
-5 0 -10 5 -10 10 0 6 5 10 10 10 6 0 10 -4 10 -10z m-2450 -21 c-7 -11 -14
-18 -17 -15 -3 3 0 12 7 21 18 21 23 19 10 -6z m2449 -13 c9 -11 6 -12 -15 -8
-19 3 -22 7 -12 13 16 11 14 11 27 -5z m-2397 -37 c-9 -11 -25 -30 -34 -41
-10 -12 -18 -27 -18 -33 0 -7 -6 -18 -14 -24 -12 -10 -14 -8 -9 11 4 21 2 20
-24 -8 -15 -17 -33 -39 -39 -50 -7 -10 -14 -17 -17 -14 -3 3 19 37 50 75 32
39 51 71 45 73 -22 7 -1 22 23 16 12 -3 26 -1 29 5 4 6 11 11 16 11 6 0 2 -9
-8 -21z m1009 -20 c-6 -16 -10 -18 -10 -7 -1 22 12 55 16 42 2 -6 -1 -22 -6
-35z m1374 13 c-3 -3 -11 0 -18 7 -9 10 -8 11 6 5 10 -3 15 -9 12 -12z m-2055
-1 c0 -3 -11 -21 -25 -41 -26 -38 -41 -100 -24 -100 5 0 9 5 9 12 0 6 3 9 6 6
3 -3 -8 -28 -24 -54 -17 -27 -33 -59 -37 -71 -3 -13 -10 -23 -14 -23 -5 0 -3
17 5 38 7 20 13 46 14 56 0 18 -1 18 -19 2 -11 -10 -24 -15 -30 -12 -6 4 -27
0 -48 -9 l-38 -15 24 20 c13 11 31 20 41 20 31 0 71 50 68 84 -2 17 2 31 7 31
12 0 65 52 59 58 -2 2 3 4 11 4 8 0 15 -3 15 -6z m131 -34 c-10 -9 -11 -8 -5
6 3 10 9 15 12 12 3 -3 0 -11 -7 -18z m589 8 c0 -8 -4 -15 -10 -15 -5 0 -7 7
-4 15 4 8 8 15 10 15 2 0 4 -7 4 -15z m825 5 c3 -5 -1 -10 -9 -10 -9 0 -16 5
-16 10 0 6 4 10 9 10 6 0 13 -4 16 -10z m-925 -42 c-1 -26 -3 -30 -10 -16 -6
9 -7 23 -4 32 9 25 14 19 14 -16z m-1229 -11 l-23 -22 17 28 c10 15 20 25 23
22 3 -3 -5 -16 -17 -28z m1533 8 c3 -8 1 -15 -4 -15 -6 0 -10 7 -10 15 0 8 2
15 4 15 2 0 6 -7 10 -15z m-1274 -26 c-7 -11 -14 -18 -17 -15 -3 3 0 12 7 21
18 21 23 19 10 -6z m240 8 c0 -2 -12 -14 -27 -28 l-28 -24 24 28 c23 25 31 32
31 24z m494 -45 c-12 -26 -33 -57 -45 -67 l-22 -20 12 25 c9 16 -2 9 -29 -20
-26 -29 -36 -36 -28 -20 7 14 11 29 10 33 -1 5 2 6 8 2 5 -3 13 2 17 12 3 10
15 29 27 42 12 13 15 21 7 16 -9 -5 -12 -4 -7 3 4 7 14 12 22 12 8 0 12 4 9
10 -3 5 0 7 8 4 8 -3 18 -1 22 5 16 26 10 7 -11 -37z m426 12 c0 -8 -4 -14
-10 -14 -5 0 -10 9 -10 21 0 11 5 17 10 14 6 -3 10 -13 10 -21z m-1210 -14 c0
-4 -7 -13 -15 -20 -17 -14 -21 -35 -5 -25 18 11 11 -6 -22 -51 -31 -43 -49
-54 -30 -17 5 10 8 29 7 43 -3 30 28 77 49 77 9 0 16 -4 16 -7z m802 -42 c-7
-7 -12 -8 -12 -2 0 6 3 14 7 17 3 4 9 5 12 2 2 -3 -1 -11 -7 -17z m114 -2 c-9
-14 -13 -31 -10 -39 3 -8 -6 -21 -21 -31 -27 -18 -27 -17 -20 6 6 21 4 20 -19
-7 -14 -16 -25 -26 -26 -21 0 11 93 115 104 115 4 1 1 -10 -8 -23z m454 -2 c0
-14 -4 -23 -10 -19 -5 3 -10 15 -10 26 0 10 5 19 10 19 6 0 10 -12 10 -26z
m1055 -4 c3 -5 2 -10 -4 -10 -5 0 -13 5 -16 10 -3 6 -2 10 4 10 5 0 13 -4 16
-10z m-1395 -57 c-10 -16 -11 -15 -6 7 3 14 6 32 7 40 1 8 4 5 6 -7 2 -12 -1
-30 -7 -40z m-1156 22 c-9 -14 -18 -25 -21 -25 -5 0 5 18 20 38 17 22 18 13 1
-13z m1114 -1 c-7 -15 -14 -21 -16 -15 -2 7 2 18 8 26 18 22 21 18 8 -11z
m1619 20 c-3 -3 -12 -4 -19 -1 -8 3 -5 6 6 6 11 1 17 -2 13 -5z m-1786 -32
c-5 -10 -17 -25 -26 -32 -13 -11 -13 -8 2 18 19 33 41 46 24 14z m1422 -19
c-7 -2 -19 -2 -25 0 -7 3 -2 5 12 5 14 0 19 -2 13 -5z m-2105 -54 c-23 -28
-50 -60 -58 -72 -14 -21 -14 -21 4 -7 18 14 18 13 11 -10 -17 -56 -56 -63 -52
-8 1 22 18 45 64 89 35 32 65 59 69 59 3 0 -14 -23 -38 -51z m2204 8 c8 -14 0
-29 -12 -22 -5 3 -12 0 -16 -6 -3 -6 -1 -15 6 -19 8 -5 8 -9 -4 -13 -10 -4
-23 5 -38 25 -12 18 -17 28 -10 24 7 -4 19 -1 27 8 11 11 12 16 2 20 -6 3 -1
3 13 0 14 -4 28 -11 32 -17z m-2472 -27 c-20 -28 -40 -46 -40 -37 0 3 7 18 15
33 8 16 15 25 15 20 0 -6 5 -5 12 2 21 21 20 13 -2 -18z m2367 -10 c3 -11 16
-23 29 -26 13 -3 24 -10 24 -15 0 -5 -7 -6 -16 -2 -12 4 -15 2 -12 -8 3 -8 11
-13 17 -11 17 3 13 -15 -5 -22 -11 -4 -19 4 -30 29 -8 19 -20 35 -27 35 -8 0
-7 4 3 10 13 9 13 11 0 20 -11 7 -12 10 -2 10 8 0 16 -9 19 -20z m-2272 -12
c-10 -34 -39 -88 -47 -88 -12 0 -10 7 17 60 27 53 41 65 30 28z m1120 -4 c-9
-14 -14 -32 -11 -39 3 -8 1 -17 -3 -20 -14 -8 -19 18 -9 53 5 19 15 32 24 32
15 0 15 -3 -1 -26z m82 -11 c-3 -10 -5 -4 -5 12 0 17 2 24 5 18 2 -7 2 -21 0
-30z m1281 7 c4 -21 2 -22 -12 -7 -19 19 -21 40 -3 35 6 -3 14 -15 15 -28z
m-1804 9 c2 -2 -8 -20 -24 -39 l-28 -34 4 33 c2 18 6 36 9 41 5 8 30 8 39 -1z
m393 -31 c-3 -8 -6 -5 -6 6 -1 11 2 17 5 13 3 -3 4 -12 1 -19z m878 11 c11
-17 -1 -21 -15 -4 -8 9 -8 15 -2 15 6 0 14 -5 17 -11z m510 -9 c10 -11 21 -18
24 -15 4 2 7 -5 8 -15 2 -22 -35 -34 -56 -17 -12 10 -14 9 -9 -3 4 -11 0 -16
-12 -16 -10 0 -16 5 -13 12 2 6 -5 14 -16 17 -12 3 -21 13 -21 22 0 13 4 15
13 8 18 -15 56 -22 62 -13 3 5 1 11 -5 15 -12 7 -13 25 -2 25 5 0 17 -9 27
-20z m-1315 3 c0 -5 -5 -15 -10 -23 -8 -12 -10 -11 -10 8 0 12 5 22 10 22 6 0
10 -3 10 -7z m-690 -13 c0 -5 -5 -10 -11 -10 -5 0 -7 5 -4 10 3 6 8 10 11 10
2 0 4 -4 4 -10z m491 -17 c-8 -15 -10 -15 -11 -2 0 17 10 32 18 25 2 -3 -1
-13 -7 -23z m1297 7 c7 -11 11 -20 9 -20 -2 0 -12 9 -22 20 -10 11 -14 20 -9
20 5 0 15 -9 22 -20z m282 0 c0 -5 -2 -10 -4 -10 -3 0 -8 5 -11 10 -3 6 -1 10
4 10 6 0 11 -4 11 -10z m-1658 -23 c-12 -13 -22 -28 -22 -34 0 -6 -6 -16 -14
-22 -11 -9 -12 -6 -8 16 2 16 14 36 26 45 31 26 43 22 18 -5z m208 14 c0 -6
-4 -13 -10 -16 -5 -3 -10 1 -10 9 0 9 5 16 10 16 6 0 10 -4 10 -9z m1491 -9
c-7 -2 -18 1 -23 6 -8 8 -4 9 13 5 13 -4 18 -8 10 -11z m-1771 -1 c0 -6 -4
-13 -10 -16 -5 -3 -10 1 -10 9 0 9 5 16 10 16 6 0 10 -4 10 -9z m196 -38 c-18
-33 -21 -17 -5 24 6 15 13 23 16 16 2 -6 -3 -24 -11 -40z m1528 -6 c-1 -9 3
-17 9 -17 6 0 8 -2 5 -5 -3 -3 -13 -2 -22 1 -14 5 -15 9 -4 15 10 7 9 9 -4 9
-10 0 -18 5 -18 11 0 6 8 9 18 7 9 -2 16 -11 16 -21z m-1744 -39 c0 -23 -3
-29 -11 -21 -6 6 -8 20 -4 32 9 30 15 26 15 -11z m-366 -3 c-2 -27 -23 -59
-32 -51 -2 3 -14 0 -25 -6 l-20 -10 20 28 c11 16 23 37 26 47 10 27 35 21 31
-8z m207 -22 c-9 -16 -10 -16 -11 -1 0 9 3 25 7 35 7 16 8 17 11 1 2 -10 -1
-25 -7 -35z m52 34 c7 4 6 -1 -2 -10 -10 -13 -11 -20 -1 -31 14 -18 -6 -67
-30 -74 -12 -3 -12 -1 -2 6 9 6 11 21 6 50 -6 41 3 90 13 64 3 -6 10 -9 16 -5z
m258 -10 c-10 -9 -11 -8 -5 6 3 10 9 15 12 12 3 -3 0 -11 -7 -18z m-344 -19
c-3 -8 -6 -5 -6 6 -1 11 2 17 5 13 3 -3 4 -12 1 -19z m414 -15 c-12 -20 -14
-14 -5 12 4 9 9 14 11 11 3 -2 0 -13 -6 -23z m1347 -9 c0 -23 -2 -24 -15 -11
-9 8 -12 20 -9 26 12 19 24 12 24 -15z m-1758 -12 c0 -11 -11 -32 -25 -48 -14
-16 -25 -34 -25 -40 0 -6 -9 -19 -19 -28 -19 -17 -19 -17 -14 6 3 12 11 30 18
38 7 8 20 32 28 53 17 39 37 50 37 19z m380 6 c0 -17 -60 -121 -66 -115 -6 5
24 75 44 103 20 27 22 28 22 12z m1434 -56 c4 -7 2 -12 -3 -12 -6 0 -12 -12
-12 -27 -1 -16 -5 -1 -9 32 -8 64 0 101 11 49 3 -17 9 -36 13 -42z m-2045 9
c-12 -17 -25 -28 -29 -26 -12 7 -33 -23 -27 -38 7 -20 -5 -36 -32 -40 -12 -2
-27 -10 -32 -18 -5 -8 -9 -9 -9 -4 0 18 31 56 41 50 5 -4 5 3 0 18 -8 21 -5
28 22 48 18 13 37 23 43 21 6 -1 17 5 24 13 23 28 22 7 -1 -24z m363 -3 c-8
-8 -9 -4 -5 13 4 13 8 18 11 10 2 -7 -1 -18 -6 -23z m1498 22 c0 -5 -2 -10 -4
-10 -3 0 -8 5 -11 10 -3 6 -1 10 4 10 6 0 11 -4 11 -10z m-1400 -35 c-7 -9
-15 -13 -18 -10 -3 2 1 11 8 20 7 9 15 13 18 10 3 -2 -1 -11 -8 -20z m205 -1
c14 5 12 -29 -4 -99 -18 -75 -43 -4 -27 75 6 30 12 46 14 36 2 -10 10 -15 17
-12z m855 16 c0 -5 -2 -10 -4 -10 -3 0 -8 5 -11 10 -3 6 -1 10 4 10 6 0 11 -4
11 -10z m-1087 -46 c-2 -7 -10 -11 -17 -8 -11 4 -21 -10 -44 -59 -3 -5 5 -4
17 3 l22 11 -19 -38 c-11 -21 -22 -45 -26 -53 -3 -8 -3 3 0 25 5 37 4 39 -10
20 -15 -19 -15 -19 -9 5 6 22 4 23 -9 12 -14 -11 -15 -8 -13 20 2 18 3 43 4
56 1 12 5 22 11 22 5 0 7 -6 4 -14 -3 -8 0 -17 7 -22 7 -4 10 -3 6 3 -4 6 3
19 15 29 20 17 21 18 15 1 -6 -15 -4 -16 13 -7 11 6 20 16 20 23 0 8 3 7 9 -2
5 -8 7 -20 4 -27z m397 -15 c0 -16 -4 -29 -8 -29 -4 0 -8 15 -8 34 0 19 4 32
8 30 4 -3 8 -18 8 -35z m-368 9 c-7 -7 -12 -8 -12 -2 0 6 3 14 7 17 3 4 9 5
12 2 2 -3 -1 -11 -7 -17z m1613 -6 c-2 -3 -12 -1 -22 2 -15 6 -15 9 -3 16 13
8 35 -8 25 -18z m-1587 -25 c-10 -34 -38 -60 -38 -35 0 13 41 81 46 76 2 -2
-2 -20 -8 -41z m-210 -8 c-11 -32 -24 -44 -32 -30 -10 16 14 70 29 65 10 -4
11 -12 3 -35z m-58 12 c-13 -25 -30 -36 -30 -20 0 7 -7 4 -16 -7 -14 -18 -15
-18 -4 4 6 12 15 20 19 17 5 -3 11 2 15 10 3 8 10 15 16 15 8 0 8 -6 0 -19z
m1504 -72 l5 -84 -20 50 c-11 28 -24 51 -29 53 -5 2 1 18 13 36 12 19 23 33
25 31 1 -1 4 -40 6 -86z m-52 69 c-15 -15 -16 -50 -1 -65 15 -15 21 -55 25
-175 1 -59 7 -115 13 -125 9 -16 10 -14 11 10 0 39 12 33 38 -18 25 -51 26
-55 12 -55 -5 0 -10 9 -10 20 0 11 -4 20 -9 20 -5 0 -5 -16 0 -37 8 -40 6 -49
-10 -39 -6 4 -8 20 -5 35 4 17 1 32 -6 36 -19 12 -22 -1 -10 -44 6 -23 7 -47
3 -54 -4 -6 -6 -23 -5 -37 2 -22 1 -23 -8 -7 -6 9 -15 15 -20 12 -10 -6 -22
23 -14 36 3 5 10 7 15 4 5 -4 9 0 9 8 0 23 -12 28 -26 9 -11 -15 -13 -14 -25
11 -7 15 -18 27 -26 27 -8 0 -13 11 -13 28 1 26 1 26 16 7 12 -16 16 -17 23
-6 7 11 11 9 20 -8 7 -11 15 -21 19 -21 9 0 0 86 -17 185 -13 75 -14 88 -1 80
12 -7 12 1 4 43 -4 19 -11 29 -19 26 -8 -4 -16 6 -20 25 -7 33 -5 48 8 44 4
-2 7 3 7 11 0 8 6 17 13 19 20 9 22 8 9 -5z m-1682 -7 c0 -6 -4 -13 -10 -16
-5 -3 -10 1 -10 9 0 9 5 16 10 16 6 0 10 -4 10 -9z m563 -7 c-7 -18 -33 -26
-33 -10 0 16 7 23 24 23 8 0 12 -6 9 -13z m1197 3 c0 -1 4 -17 9 -35 12 -40 6
-41 -14 -2 -18 34 -18 40 -5 40 6 0 10 -1 10 -3z m-1537 -47 c-5 -19 -23 -39
-23 -25 0 9 20 45 24 45 2 0 2 -9 -1 -20z m1627 4 c0 -11 6 -15 18 -12 20 6
42 -20 42 -49 0 -15 -2 -14 -15 3 -8 11 -15 14 -15 7 0 -18 -30 -16 -30 2 0
18 -16 20 -23 3 -3 -8 -6 -6 -6 5 -1 9 3 17 8 17 5 0 7 9 4 20 -3 11 0 20 6
20 6 0 11 -7 11 -16z m-1240 -9 c0 -8 -4 -15 -10 -15 -5 0 -7 7 -4 15 4 8 8
15 10 15 2 0 4 -7 4 -15z m1487 0 c9 -24 -1 -27 -15 -5 -8 13 -8 20 -2 20 6 0
13 -7 17 -15z m-1572 -27 c-4 -18 -11 -34 -15 -36 -4 -2 -3 -18 3 -37 12 -41
4 -54 -23 -37 -17 10 -20 8 -29 -24 -5 -20 -21 -46 -35 -59 l-26 -24 -1 27
c-2 40 -3 45 -17 69 -6 12 -9 29 -6 37 10 26 22 18 17 -11 -4 -26 -3 -26 10
-10 8 9 19 17 25 17 12 0 22 24 22 53 0 12 5 29 10 37 7 11 8 6 4 -16 -9 -46
12 -51 27 -7 15 48 18 53 30 53 7 0 8 -12 4 -32z m1672 6 c-3 -4 -14 -3 -24 0
-15 6 -15 8 -3 16 16 10 39 -4 27 -16z m-112 -24 c10 -11 13 -20 7 -20 -6 0
-16 9 -22 20 -6 11 -9 20 -7 20 2 0 12 -9 22 -20z m-1452 -30 c-3 -56 -8 -80
-22 -93 -11 -10 -12 -8 -7 10 4 12 2 24 -4 28 -5 3 -10 -3 -10 -14 0 -36 -17
-31 -18 6 -2 52 -9 52 -22 1 -6 -24 -20 -49 -31 -56 -23 -14 -24 -9 -5 21 8
12 22 46 32 76 16 49 18 52 29 32 12 -24 25 -18 25 11 0 13 6 18 18 16 13 -3
17 -12 15 -38z m1377 -31 c0 -4 3 -16 6 -26 5 -17 5 -17 -9 0 -13 15 -15 16
-21 2 -3 -8 -10 -15 -16 -15 -16 0 -12 28 6 38 14 8 14 12 3 30 -8 12 -17 22
-21 22 -5 0 -8 6 -8 13 0 6 14 -3 30 -22 17 -18 30 -37 30 -42z m-364 -71 c0
-12 -7 -23 -13 -26 -18 -5 -29 28 -13 38 9 6 11 24 7 66 l-6 59 13 -58 c7 -31
13 -67 12 -79z m-1514 70 c-7 -7 -12 -8 -12 -2 0 14 12 26 19 19 2 -3 -1 -11
-7 -17z m1693 -27 c2 -20 -2 -31 -11 -31 -19 0 -25 14 -18 50 8 38 26 26 29
-19z m-1163 -1 c-4 -44 -16 -52 -25 -18 -4 14 0 29 10 40 9 10 17 18 17 18 1
0 0 -18 -2 -40z m163 -16 c-17 -34 -20 -18 -4 23 6 15 13 23 15 17 3 -6 -2
-24 -11 -40z m958 21 c-7 -21 -13 -19 -13 6 0 11 4 18 10 14 5 -3 7 -12 3 -20z
m294 10 c0 -8 -4 -12 -9 -9 -4 3 -8 9 -8 15 0 5 4 9 8 9 5 0 9 -7 9 -15z
m-2088 -48 l-24 -20 23 7 c18 6 22 3 22 -12 0 -11 -9 -22 -19 -25 -21 -5 -45
-38 -56 -76 -12 -38 14 -15 36 33 10 22 19 34 19 25 0 -19 -27 -76 -41 -84 -5
-4 -9 -15 -9 -26 0 -10 -5 -19 -11 -19 -6 0 -8 9 -3 23 3 12 3 19 -1 15 -5 -4
-14 -3 -21 3 -14 11 -38 3 -29 -10 2 -5 -4 -16 -15 -26 -15 -13 -20 -14 -20
-5 0 16 42 80 52 80 4 0 17 19 29 42 15 30 17 39 7 30 -13 -10 -17 -10 -21 1
-3 8 -1 20 4 28 5 8 9 10 9 5 0 -5 8 -2 17 5 13 11 15 11 9 1 -7 -11 -4 -11
12 -1 12 7 27 24 34 38 11 21 13 22 17 6 2 -11 -7 -27 -20 -38z m741 10 c0 -5
-4 -5 -10 -2 -5 3 -10 14 -10 23 0 15 2 15 10 2 5 -8 10 -19 10 -23z m260 -14
c0 -28 -3 -34 -10 -23 -7 11 -10 7 -10 -17 0 -17 4 -35 10 -38 5 -3 -4 -27
-20 -54 -17 -27 -30 -54 -30 -62 0 -8 -5 -21 -11 -29 -7 -11 -8 -1 -3 35 3 28
10 54 15 60 5 5 9 17 9 28 0 11 4 15 12 11 8 -5 9 -2 4 12 -4 10 -9 34 -12 52
-3 24 0 32 11 32 9 0 18 7 21 15 10 24 14 17 14 -22z m770 -6 c0 -13 4 -27 9
-32 14 -15 25 -95 13 -95 -13 0 -22 25 -22 60 0 16 -7 33 -15 37 -9 5 -12 17
-8 31 7 29 23 28 23 -1z m233 -40 c-8 -14 -23 4 -23 27 0 35 14 41 21 9 3 -15
4 -31 2 -36z m-1063 28 c0 -14 -4 -25 -9 -25 -4 0 -6 11 -3 25 2 14 6 25 8 25
2 0 4 -11 4 -25z m-256 -42 c-1 -32 -5 -66 -9 -76 -10 -24 1 -33 20 -17 13 11
15 9 15 -13 0 -14 -4 -28 -9 -31 -13 -8 -21 -46 -10 -46 5 0 13 10 18 23 10
25 41 55 41 40 0 -6 -23 -42 -50 -81 -28 -40 -45 -72 -39 -72 8 0 7 -5 -2 -17
-7 -10 1 -5 18 11 18 16 32 32 31 35 -2 19 3 31 13 31 8 0 8 -5 -1 -15 -7 -8
-9 -15 -5 -15 3 0 -3 -12 -14 -26 -11 -15 -18 -31 -15 -36 3 -5 1 -15 -5 -22
-10 -12 -15 -50 -12 -90 1 -16 3 -17 18 -5 15 12 16 12 8 -1 -5 -8 -17 -21
-27 -28 -10 -7 -18 -20 -18 -29 0 -12 3 -13 14 -4 11 9 15 9 18 -1 4 -10 9
-10 23 2 17 14 18 13 13 -2 -8 -20 18 -33 29 -15 5 7 22 19 39 28 l31 17 -18
-52 c-18 -50 -18 -50 0 -27 18 23 19 23 23 5 3 -16 6 -15 21 11 12 23 16 26
17 11 0 -33 37 19 45 65 4 24 12 39 21 39 8 0 14 4 14 9 0 5 9 11 21 14 18 5
20 2 13 -26 -9 -46 -23 -69 -24 -39 0 46 -27 8 -44 -63 -7 -29 -7 -29 13 -11
21 19 21 19 21 -17 0 -44 15 -57 25 -20 5 21 8 24 16 12 8 -12 10 -12 19 1 9
15 14 36 11 53 -1 5 3 6 9 2 5 -3 10 -25 10 -48 0 -32 3 -39 11 -27 8 11 12
12 16 3 7 -18 23 -16 23 2 0 8 -4 15 -10 15 -5 0 -10 7 -10 15 0 19 14 19 34
-1 15 -14 16 -14 16 4 0 13 7 18 23 18 17 -1 23 5 26 29 4 30 4 30 11 5 l7
-25 11 25 c6 14 11 21 11 17 1 -4 11 1 23 12 11 11 25 18 29 15 4 -2 11 1 14
6 5 8 13 6 26 -6 20 -18 27 -84 8 -84 -6 0 -8 8 -5 18 3 9 1 24 -4 32 -8 12
-10 9 -10 -12 0 -15 -5 -30 -11 -34 -8 -4 -9 0 -4 15 4 13 2 21 -5 21 -6 0
-13 -8 -16 -17 -3 -10 -10 -27 -15 -38 -5 -11 -11 -35 -13 -53 -5 -49 -19 -54
-14 -5 2 29 0 39 -7 32 -5 -5 -8 -39 -7 -74 2 -35 1 -69 -2 -74 -9 -15 -36 -2
-36 17 0 13 3 12 15 -4 14 -17 15 -14 9 36 -8 67 -14 77 -15 24 0 -29 -2 -34
-8 -19 -8 19 -8 19 -16 -4 -5 -17 -9 -20 -15 -11 -6 9 -10 6 -16 -11 l-7 -24
-13 30 c-7 17 -13 23 -14 14 0 -23 -47 -72 -53 -56 -3 7 -6 3 -6 -9 -1 -11 -8
-29 -16 -40 -15 -18 -16 -17 -10 14 7 36 0 40 -27 15 -17 -15 -18 -15 -19 13
0 24 -4 19 -19 -26 -17 -51 -19 -53 -19 -21 -1 27 -4 31 -14 22 -16 -13 -67 7
-67 27 0 15 -12 16 -28 0 -9 -9 -12 -9 -12 1 0 10 -3 11 -14 2 -11 -9 -15 -9
-19 1 -4 10 -7 11 -18 1 -7 -7 -21 -13 -30 -13 -10 0 -20 -11 -23 -25 -4 -17
-12 -25 -23 -23 -12 2 -19 -6 -23 -27 -3 -16 -11 -29 -18 -28 -7 2 -12 -4 -12
-12 0 -9 -6 -12 -15 -9 -8 4 -15 17 -15 31 0 24 -1 25 -22 10 -22 -14 -24 -13
-39 27 -10 27 -21 41 -32 40 -15 -2 -17 11 -17 107 0 66 4 109 10 109 6 0 10
5 10 12 0 6 7 19 15 28 11 12 12 24 6 48 -8 26 -6 35 15 57 13 14 24 31 24 38
0 8 3 8 12 -1 8 -8 20 -1 49 31 21 23 38 47 39 54 0 6 10 19 23 29 l22 16 -23
-5 c-23 -5 -23 -5 -7 20 10 14 12 22 5 18 -9 -5 -10 -1 -5 16 8 24 8 24 -14 5
-13 -12 -19 -26 -15 -38 4 -13 0 -18 -14 -18 -17 0 -33 -19 -36 -42 -1 -3 -5
-10 -10 -15 -5 -4 -6 9 -3 33 5 29 2 46 -9 60 -15 18 -15 18 -11 -4 3 -12 1
-20 -4 -16 -5 3 -9 -10 -9 -28 0 -40 -15 -67 -28 -53 -14 15 -23 130 -12 141
7 7 6 21 -1 42 -13 39 -1 60 36 60 26 0 38 -19 29 -43 -4 -8 -1 -15 5 -15 6 0
11 20 12 48 0 26 3 41 6 35 5 -14 33 -18 33 -5 0 4 9 8 20 8 19 0 19 -1 -2
-23 -27 -29 -16 -30 17 -1 15 13 25 32 25 48 0 21 7 40 14 40 1 0 0 -26 0 -57z
m1400 -1 c-1 -2 -16 4 -33 12 -20 11 -28 21 -25 31 5 12 12 9 33 -12 14 -16
26 -29 25 -31z m-124 22 c0 -8 -4 -14 -10 -14 -5 0 -10 9 -10 21 0 11 5 17 10
14 6 -3 10 -13 10 -21z m-409 -37 c-13 -13 -23 9 -15 35 l7 23 9 -24 c5 -15 5
-28 -1 -34z m134 33 c3 -5 1 -10 -4 -10 -6 0 -11 5 -11 10 0 6 2 10 4 10 3 0
8 -4 11 -10z m-346 -42 c1 -5 -3 -8 -8 -8 -11 0 -21 37 -13 45 6 5 20 -19 21
-37z m-608 -9 c-5 -13 -10 -18 -10 -11 -1 7 -5 10 -11 7 -16 -10 -12 7 7 27
21 23 28 11 14 -23z m69 -14 c-6 -19 -18 -35 -26 -35 -18 0 -18 3 8 53 24 47
36 36 18 -18z m1032 41 c6 4 8 1 6 -7 -3 -8 3 -28 13 -44 17 -28 14 -54 -6
-58 -11 -3 -45 105 -37 117 3 6 7 5 10 -2 2 -7 8 -9 14 -6z m-917 -40 c-9 -21
-11 -35 -6 -31 16 9 13 -25 -4 -60 l-15 -30 6 38 c3 26 2 37 -5 32 -6 -3 -11
-14 -11 -24 0 -23 -22 -42 -38 -32 -8 5 -5 17 13 43 14 21 25 40 25 43 0 9 43
65 47 61 2 -1 -4 -20 -12 -40z m351 9 c9 -8 11 -15 5 -15 -6 0 -11 -8 -11 -17
0 -21 -15 -6 -25 25 -7 26 9 30 31 7z m809 -3 c-3 -3 -11 0 -18 7 -9 10 -8 11
6 5 10 -3 15 -9 12 -12z m-1663 -14 c-7 -7 -12 -8 -12 -2 0 14 12 26 19 19 2
-3 -1 -11 -7 -17z m56 -39 l-4 -44 -12 30 c-15 33 -7 84 9 68 6 -6 9 -30 7
-54z m549 29 c-3 -8 -6 -5 -6 6 -1 11 2 17 5 13 3 -3 4 -12 1 -19z m300 0 c-3
-8 -6 -5 -6 6 -1 11 2 17 5 13 3 -3 4 -12 1 -19z m243 -40 c-4 -105 -1 -135
10 -118 5 8 7 30 4 48 -7 37 -5 39 26 12 16 -14 22 -30 22 -59 -1 -38 0 -40
28 -36 24 3 32 -2 49 -31 12 -19 21 -47 21 -61 0 -30 -12 -23 -17 9 -5 31 -31
68 -48 68 -16 0 -29 -17 -17 -22 11 -4 24 -68 14 -68 -5 0 -13 5 -20 12 -7 7
-12 8 -12 3 0 -6 -4 -3 -9 4 -6 9 -6 22 0 34 14 26 2 77 -17 70 -10 -4 -12
-15 -8 -43 5 -29 2 -38 -10 -43 -10 -4 -16 -19 -16 -42 0 -19 -5 -35 -10 -35
-6 0 -8 11 -4 25 5 19 2 25 -10 25 -12 0 -14 7 -9 32 6 31 5 32 -11 16 -9 -9
-24 -14 -32 -11 -14 5 -15 1 -9 -26 6 -27 3 -32 -17 -40 -13 -4 -29 -6 -37 -3
-11 4 -13 -1 -8 -24 5 -27 2 -31 -26 -42 -28 -10 -30 -10 -13 3 11 8 16 21 13
30 -4 8 -2 15 3 15 6 0 10 14 10 31 0 17 4 28 10 24 6 -3 10 1 10 9 0 19 11
20 29 4 11 -11 12 -4 6 36 -6 45 -5 49 9 37 13 -11 16 -11 16 0 0 12 2 12 9 0
5 -7 14 -10 20 -7 6 4 11 2 11 -5 0 -7 3 -10 6 -6 4 3 1 21 -5 39 -10 27 -9
35 4 44 19 14 19 48 0 64 -18 15 -20 31 -3 28 7 -2 17 12 22 30 6 17 12 32 14
32 2 0 3 -28 2 -62z m101 39 c-10 -9 -11 -8 -5 6 3 10 9 15 12 12 3 -3 0 -11
-7 -18z m-521 9 c0 -3 -4 -8 -10 -11 -5 -3 -10 -1 -10 4 0 6 5 11 10 11 6 0
10 -2 10 -4z m264 -28 c9 -17 16 -38 16 -47 1 -13 3 -13 15 3 12 16 15 17 15
4 0 -9 8 -15 17 -14 23 1 37 -80 16 -88 -7 -3 -13 -1 -13 5 0 6 -7 9 -15 5
-10 -3 -15 1 -15 14 0 10 -4 22 -10 25 -5 3 -10 1 -10 -5 0 -7 -6 -5 -15 4 -8
8 -15 24 -15 36 0 12 -4 18 -10 15 -6 -4 -18 -4 -26 -1 -12 5 -12 9 -2 25 12
19 13 19 33 3 11 -9 14 -10 8 -2 -12 13 -18 50 -9 50 3 0 12 -14 20 -32z
m-1032 -10 c-7 -7 -12 -8 -12 -2 0 14 12 26 19 19 2 -3 -1 -11 -7 -17z m46
-34 c-3 -14 -5 -12 -10 9 -3 19 -2 25 4 19 6 -6 8 -18 6 -28z m353 13 c-10 -9
-11 -8 -5 6 3 10 9 15 12 12 3 -3 0 -11 -7 -18z m-870 -23 c-11 -15 -21 -21
-21 -14 0 15 31 52 38 46 2 -3 -5 -17 -17 -32z m111 -3 c-9 -22 -20 -37 -24
-35 -4 2 -14 -6 -22 -18 -9 -12 -17 -20 -20 -17 -8 8 6 59 17 59 5 0 20 11 33
25 32 34 35 31 16 -14z m1321 -47 c4 -23 3 -26 -7 -13 -8 12 -17 14 -33 8 -38
-14 -37 10 1 69 10 16 30 -17 39 -64z m-93 44 c0 -7 3 -24 7 -38 6 -22 5 -24
-10 -11 -14 11 -17 11 -17 0 0 -9 -3 -10 -11 -2 -14 14 -1 63 17 63 8 0 14 -6
14 -12z m573 -12 c4 -10 1 -13 -8 -9 -8 3 -12 9 -9 14 7 12 11 11 17 -5z m89
-14 c-6 -2 -8 -11 -5 -20 6 -14 4 -15 -9 -4 -9 7 -14 21 -11 33 5 16 8 17 20
7 9 -7 11 -14 5 -16z m-2082 3 c0 -8 -4 -15 -10 -15 -5 0 -7 7 -4 15 4 8 8 15
10 15 2 0 4 -7 4 -15z m1314 -16 c3 -17 6 -43 6 -58 0 -20 2 -23 10 -11 5 8 7
23 4 34 -4 12 -2 16 5 12 15 -10 13 -37 -3 -59 -12 -16 -14 -15 -24 10 -24 62
-31 103 -17 103 7 0 15 -14 19 -31z m-669 -40 c-5 -15 -4 -19 5 -14 8 5 10 -3
8 -26 -2 -18 -8 -34 -14 -36 -7 -2 -11 19 -11 63 0 46 3 62 9 50 5 -9 6 -26 3
-37z m-573 16 c3 -13 2 -22 -3 -19 -4 2 -12 -4 -18 -13 -12 -21 -15 -3 -5 35
8 29 21 28 26 -3z m1955 -28 c12 -28 25 -63 28 -77 6 -22 4 -21 -20 10 -15 19
-24 26 -20 15 3 -11 8 -36 11 -55 4 -34 3 -34 -4 -5 -5 17 -13 39 -19 50 -12
24 -17 115 -6 115 4 0 18 -24 30 -53z m-1037 2 c-12 -16 -25 -27 -28 -24 -4 3
-2 9 4 13 6 4 13 15 17 25 3 9 11 17 17 17 6 0 2 -14 -10 -31z m43 1 c-9 -16
-21 -30 -26 -30 -9 0 -1 17 21 43 23 26 25 21 5 -13z m807 0 c0 -5 -2 -10 -4
-10 -3 0 -8 5 -11 10 -3 6 -1 10 4 10 6 0 11 -4 11 -10z m-380 -75 c0 -3 -5
-3 -11 0 -7 5 -9 -5 -5 -31 6 -36 6 -37 -12 -21 -10 9 -23 17 -28 17 -5 0 -3
-4 5 -9 12 -8 12 -13 0 -39 l-14 -30 -17 40 c-17 39 -17 39 7 50 16 7 23 19
23 37 -1 65 1 67 27 29 14 -20 25 -40 25 -43z m77 30 c0 -25 -4 -45 -8 -45
-10 0 -12 51 -3 74 9 24 11 20 11 -29z m-240 6 c1 -10 -3 -18 -11 -18 -10 0
-13 17 -7 46 2 10 15 -11 18 -28z m823 8 c18 -33 6 -42 -13 -9 -10 16 -14 30
-8 30 6 0 15 -9 21 -21z m-179 -64 c12 -30 15 -50 6 -52 -19 -7 -29 -2 -23 12
3 8 1 15 -4 15 -6 0 -10 21 -9 48 0 50 -2 52 30 -23z m-79 10 c6 -29 -7 -34
-15 -6 -4 17 0 31 9 31 1 0 4 -11 6 -25z m-871 -12 c-12 -20 -14 -14 -5 12 4
9 9 14 11 11 3 -2 0 -13 -6 -23z m319 -5 c10 -25 14 -28 17 -15 9 36 33 10 33
-36 0 -18 -2 -19 -10 -7 -5 8 -10 11 -10 5 0 -5 -5 -3 -10 5 -8 12 -10 10 -10
-8 0 -31 -16 -20 -23 15 -3 16 -8 38 -12 51 -11 35 11 26 25 -10z m-407 7 c-3
-9 -8 -14 -10 -11 -3 3 -2 9 2 15 9 16 15 13 8 -4z m162 -65 c-19 -36 -31 -35
-16 1 5 13 13 33 17 44 6 17 8 18 11 3 2 -9 -3 -31 -12 -48z m-135 16 c-7 -14
-19 -27 -27 -30 -14 -6 -14 -4 17 41 19 29 27 20 10 -11z m305 -5 c-7 -32 -25
-43 -25 -15 0 19 20 57 27 51 3 -3 2 -19 -2 -36z m749 -27 c4 -40 2 -54 -4
-44 -10 15 -14 118 -5 109 2 -3 7 -32 9 -65z m-694 27 c0 -10 -7 -31 -14 -47
-8 -15 -13 -31 -10 -36 3 -4 -2 -8 -10 -8 -13 0 -13 4 0 35 7 19 14 46 14 60
0 15 4 24 10 20 6 -3 10 -14 10 -24z m234 -3 c10 -38 7 -58 -9 -58 -8 0 -15 9
-15 20 0 13 -7 20 -20 20 -11 0 -20 5 -20 11 0 6 7 8 15 5 9 -3 18 1 21 9 9
22 21 18 28 -7z m-339 -30 c-8 -24 -16 -52 -18 -63 -3 -11 -5 -3 -6 17 -1 41
14 88 28 88 6 0 4 -18 -4 -42z m-191 -12 c-9 -15 -19 -25 -21 -22 -3 2 3 16
13 30 9 15 19 25 21 22 3 -2 -3 -16 -13 -30z m-44 -6 c-6 -12 -14 -20 -17 -17
-2 3 1 14 8 26 17 26 24 19 9 -9z m950 0 c9 -16 8 -20 -5 -20 -8 0 -15 9 -15
20 0 11 2 20 5 20 2 0 9 -9 15 -20z m-152 -21 c-3 -8 -7 -3 -11 10 -4 17 -3
21 5 13 5 -5 8 -16 6 -23z m197 -17 c-8 -8 -25 17 -25 38 0 9 6 6 16 -8 9 -13
13 -26 9 -30z m105 0 c0 -7 -4 -10 -10 -7 -5 3 -10 16 -10 28 0 18 2 19 10 7
5 -8 10 -21 10 -28z m-251 -18 c20 -33 20 -54 1 -54 -10 0 -21 26 -25 63 -5
36 -1 34 24 -9z m91 6 c0 -11 -4 -20 -10 -20 -5 0 -10 9 -10 20 0 11 5 20 10
20 6 0 10 -9 10 -20z m-230 -28 c0 -4 -9 -8 -21 -9 -17 -2 -18 1 -9 12 12 14
30 12 30 -3z m426 -69 c23 -75 24 -88 12 -97 -8 -6 -17 -18 -21 -26 -4 -12 -6
-11 -6 3 -1 17 -2 17 -17 2 -25 -24 -38 -13 -48 38 -10 50 -4 69 16 49 25 -25
31 -11 25 53 -4 38 -2 65 3 65 5 0 21 -39 36 -87z m-1466 -88 c-14 -36 -22
-28 -14 14 4 19 10 29 16 23 5 -5 4 -20 -2 -37z m1014 -31 c3 -8 2 -12 -4 -9
-6 3 -10 10 -10 16 0 14 7 11 14 -7z m34 -20 c-3 -14 -5 -12 -10 9 -3 19 -2
25 4 19 6 -6 8 -18 6 -28z m89 4 c-3 -8 -6 -5 -6 6 -1 11 2 17 5 13 3 -3 4
-12 1 -19z m216 -36 c3 -34 1 -39 -10 -30 -11 8 -12 7 -7 -6 14 -35 -36 -1
-61 42 -6 11 -3 11 13 1 12 -7 25 -9 29 -5 4 5 2 11 -4 13 -7 3 -13 11 -13 19
0 9 4 13 9 9 5 -3 13 0 16 6 12 18 24 -4 28 -49z m247 27 c0 -5 -4 -9 -10 -9
-5 0 -10 7 -10 16 0 8 5 12 10 9 6 -3 10 -10 10 -16z m-464 -25 c8 3 18 -3 23
-12 10 -16 10 -16 11 1 0 16 1 16 18 -1 22 -22 36 -78 22 -87 -6 -3 -10 -14
-10 -23 0 -26 -56 -47 -87 -33 -13 6 -28 9 -32 6 -5 -2 -20 9 -35 25 -14 17
-30 30 -35 30 -5 0 -12 11 -15 24 -3 13 -8 31 -12 39 -4 11 1 13 21 10 14 -3
28 -9 31 -14 9 -15 24 -10 18 6 -4 8 -3 22 0 31 6 15 8 15 26 -1 20 -18 23
-16 21 20 -1 18 0 18 11 -3 6 -13 17 -21 24 -18z m269 5 c4 -11 4 -23 1 -26
-3 -4 -6 -1 -6 5 0 6 -7 18 -16 26 -13 14 -13 16 0 16 8 0 18 -9 21 -21z
m-135 -72 c0 -10 -4 -15 -10 -12 -5 3 -10 18 -10 33 0 21 2 24 10 12 5 -8 10
-23 10 -33z m693 22 c4 -16 3 -18 -9 -8 -16 13 -19 29 -5 29 5 0 11 -9 14 -21z
m-383 -84 c0 -5 -5 -3 -10 5 -5 8 -10 20 -10 25 0 6 5 3 10 -5 5 -8 10 -19 10
-25z m-1770 -5 c-6 -11 -16 -20 -22 -20 -6 0 -3 9 7 20 10 11 20 20 22 20 2 0
-1 -9 -7 -20z m0 -64 c0 -3 -4 -8 -10 -11 -5 -3 -10 -1 -10 4 0 6 5 11 10 11
6 0 10 -2 10 -4z m-416 -37 c-8 -14 -24 -10 -24 6 0 9 6 12 15 9 8 -4 12 -10
9 -15z m-92 -25 c-7 -12 -11 -13 -17 -4 -4 7 -2 16 6 21 18 11 23 4 11 -17z
m239 6 c5 0 9 -4 9 -10 0 -5 -6 -10 -14 -10 -16 0 -29 -27 -20 -41 9 -14 -4
-10 -26 8 -25 22 -26 36 -1 28 16 -5 18 -2 14 16 -5 18 -3 21 11 16 10 -4 22
-7 27 -7z m-135 -33 c1 -10 -3 -17 -10 -17 -16 0 -36 21 -36 37 0 19 43 0 46
-20z"/>
<path d="M3000 2671 c0 -5 11 -11 24 -13 17 -4 23 -1 19 9 -6 14 -43 18 -43 4z"/>
<path d="M2581 2417 c2 -1 13 -9 24 -17 19 -14 19 -14 6 3 -7 9 -18 17 -24 17
-6 0 -8 -1 -6 -3z"/>
<path d="M2570 2385 c0 -8 34 -45 42 -45 16 0 7 30 -11 40 -21 11 -31 13 -31
5z"/>
<path d="M2520 2340 c0 -5 5 -10 11 -10 5 0 7 5 4 10 -3 6 -8 10 -11 10 -2 0
-4 -4 -4 -10z"/>
<path d="M2530 2303 c0 -15 31 -46 38 -38 3 3 -4 15 -16 28 -12 12 -22 16 -22
10z"/>
<path d="M2476 2276 c3 -9 11 -16 16 -16 13 0 5 23 -10 28 -7 2 -10 -2 -6 -12z"/>
<path d="M2482 2220 c7 -11 16 -20 21 -20 4 0 13 -12 19 -27 10 -24 12 -25 16
-9 2 11 -3 23 -12 28 -9 5 -16 15 -16 22 0 8 -7 17 -16 20 -24 9 -25 8 -12
-14z"/>
<path d="M2560 2212 c0 -11 9 -27 20 -37 22 -20 25 -10 10 29 -11 30 -30 35
-30 8z"/>
<path d="M2440 2196 c0 -9 -4 -14 -10 -11 -13 8 -13 -25 0 -45 7 -12 10 -12
10 -1 0 9 8 11 25 7 17 -4 25 -2 25 7 0 7 -11 24 -25 37 -21 20 -25 21 -25 6z"/>
<path d="M2286 2117 c5 -18 4 -20 -7 -9 -21 20 -28 14 -16 -13 14 -29 23 -31
36 -7 10 18 10 18 27 -37 8 -27 16 -2 10 31 -4 22 -15 37 -32 45 -23 11 -24
10 -18 -10z"/>
<path d="M2495 2129 c-4 -6 0 -18 9 -27 15 -15 16 -15 16 5 0 25 -15 38 -25
22z"/>
<path d="M2484 2056 c-4 -11 1 -25 15 -39 l21 -21 -10 33 c-12 42 -18 48 -26
27z"/>
<path d="M2230 2051 c0 -5 5 -13 10 -16 6 -3 10 -2 10 4 0 5 -4 13 -10 16 -5
3 -10 2 -10 -4z"/>
<path d="M2270 2051 c0 -5 5 -13 10 -16 6 -3 10 -2 10 4 0 5 -4 13 -10 16 -5
3 -10 2 -10 -4z"/>
<path d="M2535 2020 c6 -38 17 -54 34 -49 6 3 0 20 -15 44 l-25 40 6 -35z"/>
<path d="M2190 2025 c0 -15 18 -40 24 -34 3 3 -1 14 -9 25 -8 10 -14 15 -15 9z"/>
<path d="M2080 1963 c0 -4 5 -15 10 -23 8 -13 10 -13 10 2 0 9 -4 20 -10 23
-5 3 -10 3 -10 -2z"/>
<path d="M2340 1946 c0 -8 5 -18 10 -21 6 -3 10 1 10 9 0 8 -4 18 -10 21 -5 3
-10 -1 -10 -9z"/>
<path d="M2281 1935 c-1 -14 5 -21 19 -21 11 0 20 4 20 8 0 4 -6 8 -14 8 -8 0
-17 6 -19 13 -3 6 -6 3 -6 -8z"/>
<path d="M2371 1915 c0 -35 2 -37 11 -19 7 15 7 28 -1 40 -9 16 -10 12 -10
-21z"/>
<path d="M2415 1930 c3 -5 8 -10 11 -10 2 0 4 5 4 10 0 6 -5 10 -11 10 -5 0
-7 -4 -4 -10z"/>
<path d="M2167 1913 c-10 -10 -8 -39 5 -67 9 -20 14 -23 25 -15 7 6 13 17 13
23 0 18 -36 67 -43 59z"/>
<path d="M2210 1891 c0 -5 5 -13 10 -16 6 -3 10 -2 10 4 0 5 -4 13 -10 16 -5
3 -10 2 -10 -4z"/>
<path d="M2720 1893 c0 -5 5 -15 10 -23 8 -12 10 -11 10 8 0 12 -4 22 -10 22
-5 0 -10 -3 -10 -7z"/>
<path d="M2776 1867 c3 -10 9 -15 12 -12 3 3 0 11 -7 18 -10 9 -11 8 -5 -6z"/>
<path d="M2243 1855 c0 -8 4 -12 9 -9 5 3 6 10 3 15 -9 13 -12 11 -12 -6z"/>
<path d="M2310 1823 c0 -30 21 -63 41 -63 5 0 9 7 9 15 0 8 -7 15 -15 15 -8 0
-12 6 -9 13 2 7 -2 21 -10 32 -15 19 -15 19 -16 -12z"/>
<path d="M2485 1840 c3 -5 8 -10 11 -10 2 0 4 5 4 10 0 6 -5 10 -11 10 -5 0
-7 -4 -4 -10z"/>
<path d="M2610 1842 c0 -5 10 -17 21 -28 22 -19 22 -19 10 3 -12 24 -31 39
-31 25z"/>
<path d="M2136 1814 c-3 -9 -2 -23 3 -32 8 -13 10 -10 9 16 -1 36 -3 39 -12
16z"/>
<path d="M2420 1823 c0 -4 5 -15 10 -23 8 -13 10 -13 10 2 0 9 -4 20 -10 23
-5 3 -10 3 -10 -2z"/>
<path d="M2790 1812 c0 -12 4 -22 9 -22 10 0 9 26 -2 36 -4 4 -7 -2 -7 -14z"/>
<path d="M2724 1795 c-2 -25 29 -44 59 -37 17 4 17 5 -3 19 -17 12 -19 17 -9
24 8 5 10 9 4 10 -46 7 -50 5 -51 -16z"/>
<path d="M2962 1801 c-9 -6 -9 -11 2 -27 14 -18 15 -18 22 -1 8 22 -6 39 -24
28z"/>
<path d="M2636 1782 c-2 -4 -1 -14 5 -22 7 -12 9 -10 9 8 0 23 -5 28 -14 14z"/>
<path d="M2855 1770 c3 -5 8 -10 11 -10 2 0 4 5 4 10 0 6 -5 10 -11 10 -5 0
-7 -4 -4 -10z"/>
<path d="M2156 1728 c-9 -34 -7 -45 7 -51 9 -3 14 7 16 34 2 42 -13 53 -23 17z"/>
<path d="M2445 1740 c-4 -6 2 -10 13 -10 10 0 24 -10 30 -22 10 -22 11 -22 11
-2 1 23 -44 51 -54 34z"/>
<path d="M2300 1731 c0 -5 5 -13 10 -16 6 -3 10 -2 10 4 0 5 -4 13 -10 16 -5
3 -10 2 -10 -4z"/>
<path d="M2380 1698 c0 -19 2 -20 10 -8 13 19 13 30 0 30 -5 0 -10 -10 -10
-22z"/>
<path d="M2190 1694 c0 -8 5 -12 10 -9 6 4 8 11 5 16 -9 14 -15 11 -15 -7z"/>
<path d="M2466 1682 c2 -20 1 -31 -5 -28 -5 3 -7 -3 -4 -15 4 -14 8 -17 13 -9
5 9 9 9 14 1 4 -6 5 -15 1 -20 -3 -5 -1 -12 5 -16 5 -3 10 2 10 12 1 16 2 16
13 2 15 -20 37 -13 37 10 0 25 -35 62 -52 56 -9 -4 -19 3 -26 17 -10 21 -11
20 -6 -10z"/>
<path d="M2351 1684 c0 -11 3 -14 6 -6 3 7 2 16 -1 19 -3 4 -6 -2 -5 -13z"/>
<path d="M2078 1672 c-10 -2 -18 -11 -18 -20 0 -9 -3 -28 -7 -42 -6 -24 -6
-24 11 -7 14 14 21 15 32 6 11 -9 14 -6 14 17 0 37 -10 51 -32 46z"/>
<path d="M2247 1656 c-3 -8 -2 -18 4 -22 16 -9 22 2 11 21 -8 15 -10 16 -15 1z"/>
<path d="M1950 1584 c-6 -15 -8 -29 -6 -32 3 -3 9 4 13 14 3 10 11 22 16 25 5
4 5 9 -2 13 -6 4 -15 -4 -21 -20z"/>
<path d="M2142 1581 c1 -18 -4 -36 -10 -39 -5 -4 -9 -19 -9 -33 3 -39 31 -30
37 12 5 32 6 32 14 11 4 -13 5 -40 1 -59 -4 -22 -3 -33 4 -29 5 4 16 -15 24
-41 10 -31 15 -40 16 -25 1 13 -4 33 -10 44 -6 12 -11 44 -10 72 1 43 -4 57
-28 85 l-30 35 1 -33z"/>
<path d="M2266 1594 c-23 -23 -19 -39 10 -40 14 -1 33 -9 42 -17 23 -21 50 -1
58 42 5 26 3 31 -12 31 -14 0 -15 -3 -6 -12 22 -22 13 -29 -14 -11 -36 23 -60
26 -78 7z"/>
<path d="M2570 1576 c0 -10 8 -16 22 -16 12 0 19 1 17 3 -2 1 -12 9 -21 16
-15 12 -18 11 -18 -3z"/>
<path d="M2210 1534 c0 -10 5 -26 10 -34 8 -11 9 -7 4 15 -8 37 -14 45 -14 19z"/>
<path d="M2450 1528 c0 -9 5 -20 10 -23 13 -8 13 5 0 25 -8 13 -10 13 -10 -2z"/>
<path d="M1871 1504 c0 -11 3 -14 6 -6 3 7 2 16 -1 19 -3 4 -6 -2 -5 -13z"/>
<path d="M2400 1508 c0 -7 -3 -23 -6 -34 -4 -15 0 -23 12 -28 24 -9 34 11 21
45 -12 30 -27 39 -27 17z"/>
<path d="M2469 1456 c-9 -19 -13 -49 -11 -70 4 -36 5 -36 17 -14 14 29 28 118
17 118 -4 0 -15 -15 -23 -34z"/>
<path d="M2145 1451 c-3 -5 -1 -12 5 -16 5 -3 10 1 10 9 0 18 -6 21 -15 7z"/>
<path d="M2295 1410 c-3 -5 -1 -10 4 -10 6 0 11 5 11 10 0 6 -2 10 -4 10 -3 0
-8 -4 -11 -10z"/>
<path d="M2247 1396 c-3 -8 0 -22 8 -33 13 -17 14 -17 20 -1 4 10 1 24 -8 32
-13 13 -16 13 -20 2z"/>
<path d="M2865 2430 c3 -5 11 -10 16 -10 6 0 7 5 4 10 -3 6 -11 10 -16 10 -6
0 -7 -4 -4 -10z"/>
<path d="M1713 1272 c-17 -22 -20 -36 -14 -63 7 -32 8 -33 18 -13 7 12 8 26 3
34 -6 10 -4 21 7 32 8 9 13 22 11 28 -2 6 -13 -2 -25 -18z"/>
<path d="M1574 1197 c-1 -30 1 -36 6 -22 5 12 9 14 9 6 1 -8 4 -12 7 -8 7 7
-5 67 -14 67 -4 0 -8 -19 -8 -43z"/>
<path d="M1620 885 c0 -5 5 -17 10 -25 5 -8 10 -10 10 -5 0 6 -5 17 -10 25 -5
8 -10 11 -10 5z"/>
<path d="M2610 1052 c0 -10 22 -32 32 -32 5 0 3 9 -4 20 -13 20 -28 27 -28 12z"/>
<path d="M2561 1024 c0 -11 3 -14 6 -6 3 7 2 16 -1 19 -3 4 -6 -2 -5 -13z"/>
<path d="M2910 675 c0 -5 5 -17 10 -25 5 -8 10 -10 10 -5 0 6 -5 17 -10 25 -5
8 -10 11 -10 5z"/>
<path d="M795 3140 c-3 -6 1 -7 9 -4 18 7 21 14 7 14 -6 0 -13 -4 -16 -10z"/>
<path d="M1525 3121 c-6 -11 9 -23 19 -14 9 9 7 23 -3 23 -6 0 -12 -4 -16 -9z"/>
<path d="M3056 3123 c-12 -12 -6 -18 19 -19 14 -1 25 0 25 2 0 8 -38 23 -44
17z"/>
<path d="M1760 3106 c0 -2 7 -7 16 -10 8 -3 12 -2 9 4 -6 10 -25 14 -25 6z"/>
<path d="M3250 3080 c0 -5 7 -10 16 -10 8 0 12 5 9 10 -3 6 -10 10 -16 10 -5
0 -9 -4 -9 -10z"/>
<path d="M1730 3071 c0 -6 4 -13 10 -16 6 -3 7 1 4 9 -7 18 -14 21 -14 7z"/>
<path d="M3165 3070 c3 -5 13 -10 21 -10 8 0 12 5 9 10 -3 6 -13 10 -21 10 -8
0 -12 -4 -9 -10z"/>
<path d="M2603 3029 c-12 -4 -7 -8 17 -12 23 -5 38 -3 48 6 11 12 9 14 -17 13
-17 -1 -39 -4 -48 -7z"/>
<path d="M2360 3016 c0 -8 7 -19 15 -23 8 -5 16 -20 18 -33 3 -22 9 -25 36
-22 18 2 40 -2 49 -10 10 -8 8 -2 -5 15 -24 31 -56 58 -90 76 -19 10 -23 9
-23 -3z"/>
<path d="M3120 3019 c0 -5 4 -9 10 -9 5 0 7 -6 4 -13 -3 -8 2 -20 10 -27 13
-10 17 -9 22 4 3 9 4 22 1 30 -6 15 -47 29 -47 15z"/>
<path d="M2570 3000 c0 -5 7 -10 15 -10 8 0 15 -4 15 -10 0 -5 16 -10 35 -10
40 0 47 17 10 25 -14 3 -36 7 -50 10 -14 3 -25 1 -25 -5z"/>
<path d="M2845 3000 c-13 -6 -15 -9 -5 -9 8 0 22 4 30 9 18 12 2 12 -25 0z"/>
<path d="M3360 2994 c0 -13 18 -39 24 -34 2 3 -2 14 -10 24 -8 11 -14 16 -14
10z"/>
<path d="M503 2950 c-13 -5 -23 -12 -23 -15 0 -9 16 -5 36 10 22 16 19 18 -13
5z"/>
<path d="M3380 2936 c0 -14 40 -30 50 -20 5 6 -29 34 -42 34 -4 0 -8 -6 -8
-14z"/>
<path d="M2565 2930 c3 -5 8 -10 11 -10 2 0 4 5 4 10 0 6 -5 10 -11 10 -5 0
-7 -4 -4 -10z"/>
<path d="M3245 2930 c3 -5 11 -10 16 -10 6 0 7 5 4 10 -3 6 -11 10 -16 10 -6
0 -7 -4 -4 -10z"/>
<path d="M3455 2920 c-3 -5 1 -10 9 -10 9 0 16 5 16 10 0 6 -4 10 -9 10 -6 0
-13 -4 -16 -10z"/>
<path d="M3586 2902 c26 -14 27 -16 10 -22 -17 -6 -18 -7 -3 -13 9 -3 19 -2
22 4 4 5 10 7 14 5 4 -3 7 5 6 17 -1 18 -8 22 -40 23 l-38 1 29 -15z"/>
<path d="M2330 2893 c0 -5 9 -18 20 -28 11 -10 20 -14 20 -8 0 5 -9 18 -20 28
-11 10 -20 14 -20 8z"/>
<path d="M3180 2890 c0 -5 5 -10 11 -10 5 0 7 5 4 10 -3 6 -8 10 -11 10 -2 0
-4 -4 -4 -10z"/>
<path d="M672 2868 c-18 -11 -31 -22 -29 -25 5 -4 77 36 77 43 0 8 -15 2 -48
-18z"/>
<path d="M3140 2875 c0 -2 10 -10 23 -16 20 -11 21 -11 8 4 -13 16 -31 23 -31
12z"/>
<path d="M3500 2842 c0 -12 19 -26 26 -19 2 2 -2 10 -11 17 -9 8 -15 8 -15 2z"/>
<path d="M3600 2841 c0 -11 58 -61 71 -61 5 0 9 5 9 11 0 5 5 7 10 4 6 -3 10
-2 10 4 0 15 -18 23 -22 9 -2 -6 -10 -8 -17 -4 -7 5 -10 14 -7 22 3 8 2 14 -2
15 -4 0 -17 2 -29 5 -13 2 -23 0 -23 -5z"/>
<path d="M2131 2822 c8 -12 20 -24 28 -27 27 -10 22 3 -9 25 -31 22 -32 22
-19 2z"/>
<path d="M3338 2803 c7 -3 16 -2 19 1 4 3 -2 6 -13 5 -11 0 -14 -3 -6 -6z"/>
<path d="M3250 2791 c0 -6 12 -9 28 -9 15 1 42 -7 61 -16 38 -20 49 -17 23 8
-20 18 -112 32 -112 17z"/>
<path d="M2210 2785 c0 -7 62 -45 73 -45 16 0 -4 19 -35 34 -34 17 -38 19 -38
11z"/>
<path d="M3180 2781 c0 -5 9 -11 20 -14 12 -3 20 -14 20 -27 0 -11 -4 -18 -10
-15 -5 3 -10 1 -10 -4 0 -13 7 -13 35 -1 11 5 14 9 8 9 -7 1 -13 7 -13 15 0
16 -26 46 -41 46 -5 0 -9 -4 -9 -9z"/>
<path d="M3576 2741 c5 -5 20 -12 34 -16 22 -7 23 -6 11 9 -7 9 -23 16 -34 16
-13 0 -17 -4 -11 -9z"/>
<path d="M3710 2727 c0 -18 28 -42 37 -33 9 8 -9 38 -25 44 -7 2 -12 -3 -12
-11z"/>
<path d="M2430 2721 c0 -5 7 -14 15 -21 16 -14 18 -10 9 14 -6 17 -24 22 -24
7z"/>
<path d="M464 2695 c-10 -8 -15 -15 -10 -15 6 0 1 -6 -10 -14 -10 -8 -16 -17
-12 -21 9 -10 24 1 48 35 23 32 16 39 -16 15z"/>
<path d="M3245 2700 c3 -5 14 -10 23 -10 15 0 15 2 2 10 -20 13 -33 13 -25 0z"/>
<path d="M3596 2701 c15 -14 54 -23 54 -13 0 11 -24 22 -48 22 -10 0 -12 -3
-6 -9z"/>
<path d="M3705 2690 c-3 -5 -1 -10 4 -10 6 0 11 5 11 10 0 6 -2 10 -4 10 -3 0
-8 -4 -11 -10z"/>
<path d="M493 2668 c-4 -7 -1 -8 8 -4 8 4 6 1 -3 -7 -10 -8 -18 -19 -18 -25 0
-6 -12 -20 -27 -32 -15 -11 -34 -31 -42 -43 -15 -21 94 68 118 97 9 11 7 15
-9 19 -11 3 -23 0 -27 -5z"/>
<path d="M3695 2660 c-3 -5 -1 -10 4 -10 6 0 11 5 11 10 0 6 -2 10 -4 10 -3 0
-8 -4 -11 -10z"/>
<path d="M3740 2655 c10 -12 9 -15 -8 -15 -11 0 -23 -7 -26 -16 -8 -21 -8 -24
4 -24 6 0 10 7 10 15 0 8 9 15 19 15 10 0 21 6 24 14 7 17 -1 26 -21 26 -12 0
-12 -3 -2 -15z"/>
<path d="M513 2617 c-48 -33 -50 -52 -2 -25 22 12 45 28 51 35 17 21 -12 14
-49 -10z"/>
<path d="M1540 2629 c0 -5 5 -7 10 -4 6 3 10 8 10 11 0 2 -4 4 -10 4 -5 0 -10
-5 -10 -11z"/>
<path d="M428 2614 c-38 -20 -36 -38 2 -19 17 9 30 20 30 25 0 12 1 12 -32 -6z"/>
<path d="M640 2595 c-19 -19 -38 -35 -43 -35 -5 0 -22 -9 -37 -20 -19 -14 -30
-16 -32 -8 -5 13 -81 -76 -84 -98 -1 -8 2 -16 7 -20 5 -3 7 -10 4 -15 -4 -5
-1 -9 5 -9 6 0 4 -10 -6 -24 -8 -14 -16 -29 -16 -33 0 -4 -2 -10 -4 -12 -2 -2
-4 1 -4 8 0 7 -4 9 -10 6 -12 -7 -14 -35 -2 -35 4 0 21 11 37 25 21 18 24 23
10 18 -20 -6 -20 -6 -1 15 11 12 24 22 30 22 6 0 6 -4 -1 -11 -8 -8 -8 -20 -3
-34 8 -20 4 -25 -28 -40 -43 -20 -72 -44 -72 -58 0 -6 10 -1 23 11 34 32 42
27 16 -10 -13 -18 -17 -28 -9 -22 8 6 24 14 35 18 17 6 17 4 -4 -18 -27 -28
-17 -35 14 -11 11 8 49 34 85 58 39 26 64 51 64 60 -1 9 2 15 6 12 4 -2 25 12
46 31 21 20 49 40 61 44 13 5 32 24 43 42 19 31 27 59 14 45 -4 -3 -13 1 -21
9 -14 13 -17 13 -32 -1 -23 -20 -33 -19 -30 3 4 42 -4 40 -52 -10 -28 -29 -41
-40 -30 -24 26 36 19 47 -12 19 -12 -11 -29 -24 -37 -28 -8 -4 1 6 20 23 19
17 38 31 42 32 4 0 16 14 28 30 l21 30 -28 -10 c-28 -10 -28 -10 -8 7 18 15
40 53 32 53 -2 0 -18 -16 -37 -35z m-55 -80 c-79 -69 -115 -90 -128 -75 -8 8
-8 11 -1 7 7 -4 30 10 53 29 37 33 98 73 111 73 3 0 -13 -15 -35 -34z m50 -89
c-9 -13 -24 -27 -33 -31 -13 -5 -12 -2 4 17 18 22 36 38 42 38 1 0 -5 -11 -13
-24z m-93 -79 c-28 -29 -29 -46 -2 -22 18 17 30 8 13 -9 -5 -4 -8 -12 -8 -18
0 -6 -16 -22 -35 -36 l-35 -26 30 34 c27 29 27 31 5 17 -36 -25 -47 -21 -20 8
13 14 20 25 16 25 -7 0 45 49 53 50 3 0 -5 -10 -17 -23z"/>
<path d="M2020 2616 c0 -8 5 -18 10 -21 6 -3 10 3 10 14 0 12 -4 21 -10 21 -5
0 -10 -6 -10 -14z"/>
<path d="M3638 2623 c7 -3 16 -2 19 1 4 3 -2 6 -13 5 -11 0 -14 -3 -6 -6z"/>
<path d="M2130 2600 c0 -5 9 -10 20 -10 11 0 20 5 20 10 0 6 -9 10 -20 10 -11
0 -20 -4 -20 -10z"/>
<path d="M3716 2583 c-3 -3 -3 -10 0 -14 7 -12 34 -11 34 0 0 11 -26 22 -34
14z"/>
<path d="M486 2530 c-41 -43 -53 -60 -43 -60 1 0 27 25 56 55 30 30 49 55 44
55 -6 0 -31 -22 -57 -50z"/>
<path d="M1541 2564 c0 -11 3 -14 6 -6 3 7 2 16 -1 19 -3 4 -6 -2 -5 -13z"/>
<path d="M3277 2564 c3 -7 9 -14 14 -14 5 0 9 -5 9 -11 0 -5 -4 -7 -10 -4 -5
3 -10 2 -10 -4 0 -19 20 -22 36 -7 13 13 13 18 2 29 -21 21 -48 28 -41 11z"/>
<path d="M3671 2533 c17 -22 31 -33 43 -33 5 0 -1 11 -14 25 -27 28 -50 34
-29 8z"/>
<path d="M3780 2538 c0 -12 -5 -16 -17 -11 -14 5 -15 3 -7 -6 7 -7 21 -11 33
-9 20 3 21 5 7 23 -13 18 -15 18 -16 3z"/>
<path d="M1201 2506 c-15 -23 -26 -33 -31 -26 -4 7 -20 -4 -43 -30 -40 -44
-44 -55 -23 -63 8 -3 22 10 35 34 12 21 28 39 34 40 17 0 60 56 55 71 -2 6
-15 -5 -27 -26z"/>
<path d="M411 2507 c-6 -8 -8 -16 -5 -20 3 -3 1 -15 -6 -26 -18 -35 8 -25 30
11 25 41 10 69 -19 35z"/>
<path d="M1865 2510 c-3 -5 -2 -10 4 -10 5 0 13 5 16 10 3 6 2 10 -4 10 -5 0
-13 -4 -16 -10z"/>
<path d="M3251 2506 c-9 -11 -8 -14 6 -12 10 0 17 -4 16 -11 -2 -7 4 -10 13
-6 13 5 13 8 -2 24 -20 23 -19 22 -33 5z"/>
<path d="M3331 2510 c-15 -9 -6 -30 12 -30 8 0 7 3 -2 9 -11 7 -10 10 5 13 11
2 14 6 9 10 -6 4 -17 3 -24 -2z"/>
<path d="M2930 2506 c0 -2 9 -6 20 -9 11 -3 18 -1 14 4 -5 9 -34 13 -34 5z"/>
<path d="M3760 2492 c0 -5 7 -15 15 -22 10 -9 15 -9 15 -1 0 6 4 11 10 11 5 0
7 -7 4 -15 -4 -8 -1 -15 5 -15 6 0 11 4 11 10 0 5 8 7 18 3 14 -5 15 -3 5 7
-7 8 -18 15 -25 16 -7 2 -23 6 -35 10 -13 3 -23 2 -23 -4z"/>
<path d="M3715 2480 c3 -5 11 -10 16 -10 6 0 7 5 4 10 -3 6 -11 10 -16 10 -6
0 -7 -4 -4 -10z"/>
<path d="M1645 2460 c-3 -5 -7 -25 -9 -45 -3 -39 16 -48 34 -15 18 33 -6 91
-25 60z"/>
<path d="M1530 2442 c-42 -20 -104 -83 -90 -92 6 -4 -4 -18 -24 -35 -19 -15
-32 -33 -30 -40 3 -6 -9 -30 -26 -53 -17 -24 -28 -47 -25 -51 3 -5 -2 -12 -10
-15 -9 -3 -20 -17 -25 -31 -5 -14 -14 -25 -20 -25 -5 0 -10 -5 -10 -10 0 -6
12 -3 26 7 27 17 27 17 15 -4 -15 -28 -14 -29 9 -29 12 0 20 7 20 17 0 9 7 22
16 29 8 7 14 23 13 34 0 12 0 26 1 31 1 6 3 15 4 20 2 6 8 24 15 42 11 28 16
31 42 26 24 -4 30 -1 38 20 11 29 33 46 39 29 4 -14 51 8 73 34 9 11 9 15 2
10 -8 -4 -13 -2 -13 6 0 8 6 20 13 27 10 11 9 14 -1 18 -10 4 -8 11 8 28 l21
23 -24 0 c-14 0 -39 -7 -57 -16z"/>
<path d="M943 2435 c-9 -24 1 -27 15 -5 8 13 8 20 2 20 -6 0 -13 -7 -17 -15z"/>
<path d="M3260 2435 c0 -8 2 -15 4 -15 2 0 11 -3 20 -6 11 -4 16 -1 16 11 0
12 6 15 23 10 17 -5 19 -4 7 4 -23 16 -70 14 -70 -4z"/>
<path d="M3725 2440 c3 -5 10 -10 16 -10 5 0 9 5 9 10 0 6 -7 10 -16 10 -8 0
-12 -4 -9 -10z"/>
<path d="M3800 2435 c0 -2 9 -9 20 -15 16 -9 20 -8 20 5 0 8 -9 15 -20 15 -11
0 -20 -2 -20 -5z"/>
<path d="M2960 2417 c0 -8 7 -20 15 -27 13 -11 15 -9 12 11 -4 25 -27 39 -27
16z"/>
<path d="M384 2398 l-19 -23 23 19 c21 18 27 26 19 26 -2 0 -12 -10 -23 -22z"/>
<path d="M1686 2403 c-6 -14 -5 -15 5 -6 7 7 10 15 7 18 -3 3 -9 -2 -12 -12z"/>
<path d="M3858 2398 c14 -17 6 -29 -13 -22 -7 3 -16 1 -19 -5 -4 -5 2 -12 13
-16 12 -3 21 -17 23 -33 2 -15 9 -26 16 -24 6 1 12 -2 12 -6 0 -4 -6 -14 -12
-21 -11 -11 -10 -13 5 -8 15 6 16 3 7 -13 -13 -24 -13 -26 6 -45 13 -12 14
-19 4 -30 -10 -12 -10 -15 0 -15 10 0 10 -3 0 -15 -11 -13 -8 -15 13 -15 14 0
27 5 29 12 2 6 10 9 18 6 11 -3 7 -11 -14 -31 -28 -27 -29 -28 -10 -42 18 -14
18 -14 -5 -15 -36 0 -9 -27 41 -41 51 -13 45 -21 -7 -9 -51 12 -64 2 -28 -21
l28 -19 -30 0 -29 0 22 -16 c12 -8 26 -13 31 -10 11 7 58 -30 49 -39 -9 -10
-79 15 -73 25 10 16 -10 18 -35 4 -20 -11 -21 -13 -7 -14 10 0 17 -6 14 -12
-4 -14 82 -56 118 -58 15 -1 13 -4 -8 -10 -31 -9 -57 -4 -57 12 0 5 -4 6 -10
3 -5 -3 -23 1 -39 10 -45 23 -49 18 -13 -15 19 -17 27 -30 19 -30 -25 0 -14
-29 16 -41 16 -7 37 -20 46 -29 19 -20 95 -45 109 -36 7 4 7 18 0 43 -6 21
-11 52 -13 68 -1 17 -5 39 -8 50 -4 12 -8 40 -9 63 -1 24 -7 46 -14 50 -7 4
-12 14 -11 22 2 25 -13 92 -35 150 -25 66 -80 193 -88 200 -3 3 -10 14 -16 25
-6 11 -20 22 -30 24 -15 3 -16 1 -6 -11z m106 -196 c2 -4 -4 -9 -15 -9 -10 -1
-19 2 -19 8 0 11 27 12 34 1z m3 -108 c-3 -3 -12 -4 -19 -1 -8 3 -5 6 6 6 11
1 17 -2 13 -5z m60 -210 c-3 -3 -12 -4 -19 -1 -8 3 -5 6 6 6 11 1 17 -2 13 -5z
m13 -64 c20 -12 9 -21 -18 -13 -12 3 -19 9 -16 14 7 11 15 11 34 -1z"/>
<path d="M3375 2390 l-30 -6 34 -12 c38 -14 81 -16 81 -4 0 14 -54 28 -85 22z"/>
<path d="M2788 2353 c6 -2 12 -18 12 -34 0 -30 14 -39 24 -16 5 10 7 10 12 0
6 -14 34 -18 34 -5 0 14 -62 62 -79 61 -10 0 -11 -2 -3 -6z"/>
<path d="M3096 2344 c-8 -22 -5 -24 21 -18 13 4 20 11 16 20 -7 19 -29 18 -37
-2z"/>
<path d="M3570 2350 c-11 -7 -9 -11 13 -19 16 -6 40 -11 55 -10 25 0 26 1 6 9
-12 5 -25 13 -29 19 -8 13 -25 14 -45 1z"/>
<path d="M379 2329 l-24 -20 28 17 c15 9 27 18 27 20 0 8 -8 4 -31 -17z"/>
<path d="M3351 2346 c12 -10 60 -16 54 -6 -3 5 -18 10 -32 10 -15 0 -24 -2
-22 -4z"/>
<path d="M1319 2323 c-13 -16 -12 -17 4 -4 9 7 17 15 17 17 0 8 -8 3 -21 -13z"/>
<path d="M1385 2330 c-3 -6 1 -7 9 -4 18 7 21 14 7 14 -6 0 -13 -4 -16 -10z"/>
<path d="M3511 2313 c-18 -19 -10 -25 12 -8 10 7 15 15 10 18 -4 3 -14 -2 -22
-10z"/>
<path d="M3710 2320 c0 -6 7 -10 15 -10 8 0 15 2 15 4 0 2 -7 6 -15 10 -8 3
-15 1 -15 -4z"/>
<path d="M3627 2299 c7 -7 15 -10 18 -7 3 3 -2 9 -12 12 -14 6 -15 5 -6 -5z"/>
<path d="M3315 2290 c-3 -5 1 -10 10 -10 9 0 13 5 10 10 -3 6 -8 10 -10 10 -2
0 -7 -4 -10 -10z"/>
<path d="M3357 2289 c7 -7 15 -10 18 -7 3 3 -2 9 -12 12 -14 6 -15 5 -6 -5z"/>
<path d="M1020 2275 c-7 -9 -10 -18 -7 -22 4 -3 2 -13 -4 -22 -6 -9 0 -3 15
12 26 28 33 47 17 47 -5 0 -14 -7 -21 -15z"/>
<path d="M2870 2255 c0 -8 7 -15 16 -15 14 0 14 3 4 15 -7 8 -14 15 -16 15 -2
0 -4 -7 -4 -15z"/>
<path d="M1485 2240 c-3 -5 -1 -10 4 -10 6 0 11 5 11 10 0 6 -2 10 -4 10 -3 0
-8 -4 -11 -10z"/>
<path d="M2939 2241 c11 -7 9 -10 -8 -16 -14 -4 -20 -12 -17 -21 4 -11 2 -12
-14 -4 -11 6 -21 6 -24 1 -3 -5 8 -14 26 -20 38 -14 58 -14 38 -1 -12 8 -12
10 -1 10 11 0 11 3 0 17 -8 9 -9 14 -4 11 6 -3 15 0 22 7 10 10 9 14 -3 19
-23 9 -31 7 -15 -3z"/>
<path d="M3490 2240 c0 -5 6 -10 14 -10 8 0 16 -4 18 -10 5 -14 48 0 48 16 0
10 -13 14 -40 14 -22 0 -40 -4 -40 -10z"/>
<path d="M3368 2223 c7 -3 16 -2 19 1 4 3 -2 6 -13 5 -11 0 -14 -3 -6 -6z"/>
<path d="M2957 2193 c-3 -5 -2 -15 2 -22 5 -7 11 -9 14 -4 3 5 2 15 -2 22 -5
7 -11 9 -14 4z"/>
<path d="M3373 2184 c0 -8 3 -14 6 -15 3 0 17 -2 30 -5 19 -3 22 -2 12 10 -17
20 -48 26 -48 10z"/>
<path d="M3055 2090 c3 -5 13 -10 21 -10 8 0 14 5 14 10 0 6 -9 10 -21 10 -11
0 -17 -4 -14 -10z"/>
<path d="M2800 2060 c0 -5 5 -10 10 -10 6 0 10 5 10 10 0 6 -4 10 -10 10 -5 0
-10 -4 -10 -10z"/>
<path d="M505 2025 c-3 -8 -7 -22 -10 -31 -3 -8 -1 -13 4 -10 5 3 11 17 13 31
6 27 0 34 -7 10z"/>
<path d="M3760 2018 c0 -4 16 -8 35 -8 19 0 35 2 35 4 0 2 -16 6 -35 8 -19 2
-35 0 -35 -4z"/>
<path d="M1310 2000 c-6 -12 -9 -24 -7 -27 3 -2 11 5 17 17 6 12 9 24 7 27 -3
2 -11 -5 -17 -17z"/>
<path d="M1269 1943 c-13 -17 -13 -17 6 -3 11 8 22 16 24 17 2 2 0 3 -6 3 -6
0 -17 -8 -24 -17z"/>
<path d="M3520 1896 c0 -2 7 -6 15 -10 8 -3 15 -1 15 4 0 6 -7 10 -15 10 -8 0
-15 -2 -15 -4z"/>
<path d="M3640 1860 c0 -9 32 -30 46 -30 4 0 -1 9 -11 20 -19 21 -35 26 -35
10z"/>
<path d="M3390 1831 c0 -11 25 -21 51 -21 12 0 16 5 13 15 -7 16 -64 21 -64 6z"/>
<path d="M700 1805 c-7 -9 -11 -18 -8 -20 3 -3 11 1 18 10 7 9 11 18 8 20 -3
3 -11 -1 -18 -10z"/>
<path d="M3386 1796 c6 -16 53 -25 80 -15 16 6 15 8 -8 13 -75 16 -78 17 -72
2z"/>
<path d="M3808 1793 c7 -3 16 -2 19 1 4 3 -2 6 -13 5 -11 0 -14 -3 -6 -6z"/>
<path d="M3328 1777 c10 -12 10 -16 0 -21 -7 -3 -4 -5 7 -3 26 3 26 31 0 36
-16 3 -17 1 -7 -12z"/>
<path d="M3770 1760 c0 -5 7 -10 16 -10 8 0 12 5 9 10 -3 6 -10 10 -16 10 -5
0 -9 -4 -9 -10z"/>
<path d="M3840 1756 c0 -9 74 -47 84 -43 6 3 17 -2 24 -9 11 -12 9 -14 -10
-14 -21 0 -20 -2 10 -21 23 -15 30 -25 23 -33 -7 -9 -7 -16 1 -24 16 -16 2
-28 -15 -14 -17 15 -87 44 -87 37 0 -3 10 -9 22 -14 20 -7 20 -9 -12 -24 -19
-10 -42 -14 -54 -11 -21 7 -21 6 -2 -15 11 -11 16 -24 13 -27 -8 -8 12 -28 36
-37 11 -4 21 -16 24 -27 3 -11 9 -20 13 -20 4 0 11 -7 14 -16 5 -12 2 -15 -11
-10 -10 3 0 -10 22 -30 28 -24 32 -32 15 -23 -23 11 -24 11 -11 -4 17 -22 7
-22 -25 -1 -34 23 -45 7 -14 -19 14 -11 18 -18 9 -14 -15 5 -16 0 -11 -35 4
-30 2 -39 -6 -34 -7 4 -12 2 -12 -5 0 -8 -4 -8 -15 1 -22 18 -20 -7 2 -34 15
-17 13 -17 -8 2 -19 17 -28 20 -31 10 -8 -19 3 -41 41 -83 l34 -39 28 35 c16
19 29 42 29 51 0 9 4 19 9 22 5 3 12 18 16 33 3 16 12 35 20 43 7 8 22 44 34
80 12 36 26 73 32 83 5 10 8 21 5 25 -2 4 1 32 7 62 18 82 11 129 -19 140 -14
6 -36 10 -48 10 -13 0 -34 8 -47 19 -21 16 -129 39 -129 27z m95 -184 c-3 -3
-11 0 -18 7 -9 10 -8 11 6 5 10 -3 15 -9 12 -12z m40 -122 c3 -5 1 -10 -4 -10
-6 0 -11 5 -11 10 0 6 2 10 4 10 3 0 8 -4 11 -10z m-34 -192 c11 -21 11 -22
-4 -9 -10 7 -17 17 -17 22 0 15 9 10 21 -13z"/>
<path d="M3795 1730 c3 -5 14 -10 23 -10 15 0 15 2 2 10 -20 13 -33 13 -25 0z"/>
<path d="M505 1690 c-3 -5 -1 -10 4 -10 6 0 11 5 11 10 0 6 -2 10 -4 10 -3 0
-8 -4 -11 -10z"/>
<path d="M3485 1690 c28 -12 37 -12 30 0 -3 6 -16 10 -28 9 -21 0 -21 -1 -2
-9z"/>
<path d="M3690 1690 c0 -5 5 -10 11 -10 5 0 7 5 4 10 -3 6 -8 10 -11 10 -2 0
-4 -4 -4 -10z"/>
<path d="M3860 1680 c0 -5 4 -10 9 -10 5 0 18 -3 28 -6 16 -5 16 -4 -1 10 -23
18 -36 20 -36 6z"/>
<path d="M3493 1661 c26 -15 43 -19 54 -13 20 12 9 18 -47 27 l-45 7 38 -21z"/>
<path d="M740 1635 c-7 -8 -16 -13 -20 -10 -5 3 -11 1 -15 -4 -9 -15 37 -3 54
14 8 8 10 15 4 15 -6 0 -16 -7 -23 -15z"/>
<path d="M3440 1646 c0 -2 9 -6 20 -9 11 -3 18 -1 14 4 -5 9 -34 13 -34 5z"/>
<path d="M3500 1609 c13 -23 78 -60 85 -48 4 5 -1 12 -9 15 -9 3 -14 9 -11 13
2 4 -6 7 -18 7 -15 -1 -21 4 -19 16 2 11 -4 16 -17 15 -15 -1 -17 -5 -11 -18z"/>
<path d="M3628 1523 c7 -3 16 -2 19 1 4 3 -2 6 -13 5 -11 0 -14 -3 -6 -6z"/>
<path d="M726 1503 c-6 -14 -5 -15 5 -6 7 7 10 15 7 18 -3 3 -9 -2 -12 -12z"/>
<path d="M770 1500 c-8 -5 -12 -12 -9 -15 4 -3 12 1 19 10 14 17 11 19 -10 5z"/>
<path d="M3370 1465 c0 -9 8 -19 18 -22 9 -4 20 -11 23 -16 4 -5 12 -8 18 -6
6 2 1 16 -14 32 -29 30 -45 35 -45 12z"/>
<path d="M3795 1460 c18 -20 45 -27 45 -12 0 8 -43 32 -57 32 -3 0 2 -9 12
-20z"/>
<path d="M3670 1440 c0 -5 5 -10 11 -10 5 0 7 5 4 10 -3 6 -8 10 -11 10 -2 0
-4 -4 -4 -10z"/>
<path d="M747 1419 c-18 -11 -24 -39 -7 -39 10 0 34 39 28 45 -2 2 -11 -1 -21
-6z"/>
<path d="M3877 1414 c3 -7 14 -16 25 -20 32 -10 32 3 -1 19 -23 12 -28 12 -24
1z"/>
<path d="M3390 1400 c20 -13 33 -13 25 0 -3 6 -14 10 -23 10 -15 0 -15 -2 -2
-10z"/>
<path d="M3732 1398 c6 -18 57 -53 65 -44 4 4 -6 18 -22 31 -33 27 -49 32 -43
13z"/>
<path d="M3402 1354 c10 -10 20 -15 24 -12 3 4 -5 12 -18 18 -22 12 -22 12 -6
-6z"/>
<path d="M821 1332 c-7 -13 -10 -29 -8 -36 3 -7 -1 -23 -9 -37 -20 -36 -17
-46 6 -21 12 12 24 22 28 22 4 0 13 9 20 21 13 21 7 63 -8 54 -5 -3 -10 1 -12
7 -3 8 -9 4 -17 -10z"/>
<path d="M3205 1339 c-4 -6 3 -21 15 -34 12 -13 20 -30 17 -38 -10 -25 8 -40
32 -27 l22 11 -25 30 c-13 16 -27 38 -31 49 -7 22 -20 26 -30 9z"/>
<path d="M3725 1340 c3 -5 1 -10 -6 -10 -10 0 -10 -3 -1 -12 9 -9 15 -9 23 -1
12 12 4 33 -12 33 -6 0 -7 -4 -4 -10z"/>
<path d="M3840 1321 c0 -11 9 -23 21 -26 38 -12 37 15 -2 35 -16 9 -19 7 -19
-9z"/>
<path d="M3270 1301 c0 -5 7 -14 15 -21 8 -7 15 -18 15 -25 0 -7 7 -18 15 -25
12 -10 15 -10 15 3 0 8 -7 20 -15 27 -8 7 -15 17 -15 22 0 6 7 5 15 -2 20 -16
19 -6 -1 14 -17 17 -44 22 -44 7z"/>
<path d="M3650 1289 c0 -6 -9 -9 -20 -6 -26 7 -26 -5 0 -28 20 -18 21 -18 14
0 -6 15 -3 17 18 13 18 -3 25 -1 21 8 -6 16 -33 27 -33 13z"/>
<path d="M3730 1280 c-12 -7 -12 -12 -3 -21 15 -15 26 -7 21 15 -2 11 -7 13
-18 6z"/>
<path d="M745 1249 c-4 -6 -5 -12 -2 -15 2 -3 7 2 10 11 7 17 1 20 -8 4z"/>
<path d="M3700 1246 c0 -2 8 -10 18 -17 15 -13 16 -12 3 4 -13 16 -21 21 -21
13z"/>
<path d="M1152 1220 c-15 -24 -17 -69 -2 -54 13 13 31 74 22 74 -4 0 -13 -9
-20 -20z"/>
<path d="M3570 1201 c0 -6 4 -13 10 -16 6 -3 7 1 4 9 -7 18 -14 21 -14 7z"/>
<path d="M1179 1162 c-5 -14 -7 -27 -4 -30 3 -3 5 0 5 6 0 6 6 9 13 6 8 -3 20
2 27 11 9 11 9 15 1 15 -7 0 -10 4 -7 8 3 5 -2 9 -10 9 -9 0 -20 -11 -25 -25z"/>
<path d="M3690 1172 c6 -13 14 -21 18 -18 3 4 -2 14 -12 24 -18 16 -18 16 -6
-6z"/>
<path d="M742 1158 c-14 -14 -16 -28 -3 -28 5 0 11 9 14 20 6 23 5 24 -11 8z"/>
<path d="M3220 1161 c0 -6 4 -13 10 -16 6 -3 7 1 4 9 -7 18 -14 21 -14 7z"/>
<path d="M1283 1148 c-12 -20 -14 -50 -3 -43 20 12 9 -10 -20 -43 -32 -37 -46
-70 -35 -80 4 -4 10 -1 12 6 3 7 20 35 39 62 19 28 31 50 27 50 -4 0 -2 5 5
12 17 17 15 28 -5 21 -12 -5 -15 -2 -10 10 7 20 2 22 -10 5z"/>
<path d="M1219 1112 c-34 -35 -49 -65 -49 -97 0 -58 57 12 70 86 4 21 7 39 6
39 0 0 -13 -13 -27 -28z"/>
<path d="M1166 1112 c-2 -4 -7 -25 -11 -47 -7 -48 9 -27 18 23 6 31 3 41 -7
24z"/>
<path d="M3450 1072 c0 -5 7 -15 15 -22 8 -7 15 -8 15 -2 0 5 -7 15 -15 22 -8
7 -15 8 -15 2z"/>
<path d="M3690 1053 c0 -5 7 -16 14 -26 13 -17 14 -16 19 3 3 11 1 18 -4 14
-5 -3 -9 0 -9 5 0 6 -4 11 -10 11 -5 0 -10 -3 -10 -7z"/>
<path d="M3090 1030 c0 -5 5 -10 10 -10 6 0 10 5 10 10 0 6 -4 10 -10 10 -5 0
-10 -4 -10 -10z"/>
<path d="M3440 1026 c0 -8 5 -18 10 -21 6 -3 10 1 10 9 0 8 -4 18 -10 21 -5 3
-10 -1 -10 -9z"/>
<path d="M3340 986 c0 -9 5 -16 10 -16 6 0 10 4 10 9 0 6 -4 13 -10 16 -5 3
-10 -1 -10 -9z"/>
<path d="M3280 964 c0 -11 10 -29 22 -40 12 -10 18 -13 14 -6 -4 6 -14 24 -22
40 -12 23 -14 24 -14 6z"/>
<path d="M3370 951 c0 -5 11 -29 25 -52 14 -24 25 -37 25 -28 0 8 -7 24 -15
35 -8 10 -15 27 -15 37 0 17 -20 25 -20 8z"/>
<path d="M1272 925 c-7 -15 -11 -30 -8 -32 7 -7 28 36 24 49 -2 6 -9 -2 -16
-17z"/>
<path d="M1403 895 c-3 -9 -3 -18 -1 -21 3 -3 8 4 11 16 6 23 -1 27 -10 5z"/>
<path d="M566 888 c-10 -6 -14 -21 -12 -53 2 -25 -1 -46 -7 -48 -6 -2 -12 -26
-13 -54 -4 -65 13 -84 51 -59 35 23 47 57 26 74 -14 11 -11 17 29 53 39 36 43
42 27 51 -11 6 -16 16 -12 27 4 14 -2 17 -34 17 -22 0 -46 -3 -55 -8z"/>
<path d="M3065 890 c-3 -5 1 -10 10 -10 9 0 13 5 10 10 -3 6 -8 10 -10 10 -2
0 -7 -4 -10 -10z"/>
<path d="M1301 844 c0 -11 3 -14 6 -6 3 7 2 16 -1 19 -3 4 -6 -2 -5 -13z"/>
<path d="M3321 824 c0 -11 3 -14 6 -6 3 7 2 16 -1 19 -3 4 -6 -2 -5 -13z"/>
<path d="M3181 782 c-1 -12 6 -25 14 -28 8 -4 15 -12 15 -19 0 -8 5 -17 10
-20 18 -11 11 24 -9 42 -10 10 -21 25 -24 33 -3 10 -6 7 -6 -8z"/>
<path d="M630 781 c0 -5 9 -13 20 -16 11 -3 20 -14 20 -22 0 -9 3 -13 7 -10 9
10 -18 57 -34 57 -7 0 -13 -4 -13 -9z"/>
<path d="M3370 776 c0 -2 7 -9 15 -16 13 -11 14 -10 9 4 -5 14 -24 23 -24 12z"/>
<path d="M3124 716 c5 -33 13 -71 19 -85 l11 -26 4 23 c4 23 4 23 24 5 20 -18
21 -18 13 7 -14 45 -46 109 -62 122 -14 12 -15 7 -9 -46z"/>
<path d="M640 716 c0 -2 6 -9 14 -15 10 -9 15 -8 20 4 4 10 -1 15 -14 15 -11
0 -20 -2 -20 -4z"/>
<path d="M3280 681 c0 -6 4 -13 10 -16 6 -3 7 1 4 9 -7 18 -14 21 -14 7z"/>
<path d="M620 640 c0 -6 7 -10 15 -10 8 0 15 2 15 4 0 2 -7 6 -15 10 -8 3 -15
1 -15 -4z"/>
</g>
</svg>
